<svg xmlns="http://www.w3.org/2000/svg" xmlns:xlink="http://www.w3.org/1999/xlink" fill="none" version="1.1" width="22" height="22" viewBox="0 0 22 22"><path d="M2.0625119,2.4062639870224C2.0625119,1.8347763170223998,1.6027436,1.3750079870224,1.031256,1.3750079870224C0.45976833,1.3750079870224,0,1.8347763170223998,0,2.4062639870224L0,17.187599987022402C0,19.0868309870224,1.5382901,20.6251209870224,3.43752,20.6251209870224L20.968872,20.6251209870224C21.540359,20.6251209870224,22.000128,20.1653499870224,22.000128,19.5938629870224C22.000128,19.0223769870224,21.540359,18.5626069870224,20.968872,18.5626069870224L3.43752,18.5626069870224C2.6769686,18.5626069870224,2.0625119,17.9481509870224,2.0625119,17.187599987022402L2.0625119,2.4062639870224ZM6.5312881,5.5000317870224L15.46884,5.5000317870224C16.040327,5.5000317870224,16.500095,5.0402637870224005,16.500095,4.4687758870223995C16.500095,3.8972881870224,16.040327,3.4375198870224,15.46884,3.4375198870224L6.5312881,3.4375198870224C5.9598002,3.4375198870224,5.5000319,3.8972881870224,5.5000319,4.4687758870223995C5.5000319,5.0402637870224005,5.9598002,5.5000317870224,6.5312881,5.5000317870224ZM6.5312881,8.2500480870224C5.9598002,8.2500480870224,5.5000319,8.709815887022401,5.5000319,9.281303787022399C5.5000319,9.8527921870224,5.9598002,10.3125594870224,6.5312881,10.3125594870224L12.718823,10.3125594870224C13.290311,10.3125594870224,13.75008,9.8527921870224,13.75008,9.281303787022399C13.75008,8.709815887022401,13.290311,8.2500480870224,12.718823,8.2500480870224L6.5312881,8.2500480870224ZM6.5312881,13.0625759870224C5.9598002,13.0625759870224,5.5000319,13.5223449870224,5.5000319,14.0938309870224C5.5000319,14.6653189870224,5.9598002,15.1250879870224,6.5312881,15.1250879870224L18.218855,15.1250879870224C18.790342,15.1250879870224,19.250113,14.6653189870224,19.250113,14.0938309870224C19.250113,13.5223449870224,18.790342,13.0625759870224,18.218855,13.0625759870224L6.5312881,13.0625759870224Z" fill="#6B7280" fill-opacity="1" style="mix-blend-mode:passthrough"/></svg>