<svg xmlns="http://www.w3.org/2000/svg" xmlns:xlink="http://www.w3.org/1999/xlink" fill="none" version="1.1" width="22" height="22" viewBox="0 0 22 22"><path d="M3.3000002,6.050000195367431C3.3000002,5.139062585367432,4.0390625,4.400000095367432,4.9500003,4.400000095367432C5.8609376,4.400000095367432,6.6000004,5.139062585367432,6.6000004,6.050000195367431L6.6000004,9.900000095367432L15.400001,9.900000095367432L15.400001,6.050000195367431C15.400001,5.139062585367432,16.139063,4.400000095367432,17.050001,4.400000095367432C17.960938,4.400000095367432,18.700001,5.139062585367432,18.700001,6.050000195367431L18.700001,6.600000095367432L19.25,6.600000095367432C20.160938,6.600000095367432,20.9,7.339062695367431,20.9,8.25000019536743L20.9,9.900000095367432C21.508438,9.900000095367432,22,10.391562895367432,22,11.00000049536743C22,11.608437995367431,21.508438,12.10000039536743,20.9,12.10000039536743L20.9,13.750000495367432C20.9,14.660938095367431,20.160938,15.400000095367432,19.25,15.400000095367432L18.700001,15.400000095367432L18.700001,15.950000095367432C18.700001,16.86093809536743,17.960938,17.600001095367432,17.050001,17.600001095367432C16.139063,17.600001095367432,15.400001,16.86093809536743,15.400001,15.950000095367432L15.400001,12.10000039536743L6.6000004,12.10000039536743L6.6000004,15.950000095367432C6.6000004,16.86093809536743,5.8609376,17.600001095367432,4.9500003,17.600001095367432C4.0390625,17.600001095367432,3.3000002,16.86093809536743,3.3000002,15.950000095367432L3.3000002,15.400000095367432L2.75,15.400000095367432C1.8390626,15.400000095367432,1.1,14.660938095367431,1.1,13.750000495367432L1.1,12.10000039536743C0.49156249,12.10000039536743,0,11.608437995367431,0,11.00000049536743C0,10.391562495367431,0.49156252,9.900000095367432,1.1,9.900000095367432L1.1,8.25000019536743C1.1,7.339062695367431,1.8390626,6.600000095367432,2.75,6.600000095367432L3.3000002,6.600000095367432L3.3000002,6.050000195367431Z" fill="#F97316" fill-opacity="1" style="mix-blend-mode:passthrough"/></svg>