<svg xmlns="http://www.w3.org/2000/svg" xmlns:xlink="http://www.w3.org/1999/xlink" fill="none" version="1.1" width="22" height="22" viewBox="0 0 22 22"><path d="M6.935249319714355,11.397287C6.935249319714355,11.762447,6.789185519714356,12.110425,6.531425519714356,12.368185L5.380096919714355,13.519512C4.851688819714355,14.04792,3.9838970197143553,14.009254,3.2578730197143555,13.828825C3.0602569197143557,13.781568,2.8497529197143554,13.751497,2.6349530197143554,13.751497C1.2129770197143555,13.751497,0.05735301971435547,14.90712,0.05735301971435547,16.329098C0.05735301971435547,17.751072,1.2129769197143554,18.906696,2.6349530197143554,18.906696C2.9056010197143554,18.906696,3.1504729197143555,19.151569,3.1504729197143555,19.422216C3.1504729197143555,20.844193,4.306097019714356,21.999815,5.728073119714355,21.999815C7.150047819714356,21.999815,8.305672619714356,20.844193,8.305672619714356,19.422215C8.305672619714356,19.207415,8.279896719714355,19.001207,8.228343919714355,18.799295C8.047913119714355,18.073273,8.004952919714356,17.205481,8.537656819714355,16.677073L9.688983919714355,15.525744C9.946743919714356,15.267984,10.294721019714355,15.12192,10.659881019714355,15.12192L14.491913019714355,15.12192C14.762560019714355,15.12192,15.024616019714356,15.109033,15.286673019714355,15.078959C15.797896019714356,15.027408,15.991217019714355,14.41308,15.750640019714355,13.962C15.385480019714356,13.283233,15.179273019714355,12.509953,15.179273019714355,11.68512C15.179273019714355,9.025897,17.331569019714355,6.8736005,19.990792019714355,6.8736005C20.334474019714357,6.8736005,20.665265019714354,6.9079685,20.987466019714354,6.9767041C21.490098019714356,7.0841041,22.022801019714354,6.7232404,21.932586019714357,6.2206082C21.301072019714354,2.6849999,18.207953019714356,0,14.491914019714356,0C10.316201019714356,0,6.930954019714355,3.3852482,6.930954019714355,7.5609598L6.930954019714355,11.392992L6.935249319714355,11.397287Z" fill="#F97316" fill-opacity="1" style="mix-blend-mode:passthrough"/></svg>