<svg xmlns="http://www.w3.org/2000/svg" xmlns:xlink="http://www.w3.org/1999/xlink" fill="none" version="1.1" width="22" height="22" viewBox="0 0 22 22.0001220703125"><path d="M22.000128,11.000064Q22.000128,11.2701,21.986877,11.539811Q21.973627,11.809523,21.947159,12.078259Q21.920689,12.346994,21.881065,12.614107Q21.841442,12.881221,21.788761,13.146069Q21.73608,13.410917,21.670465,13.672861Q21.604855,13.934804,21.526466,14.193213Q21.448078,14.451621,21.357105,14.705873Q21.266132,14.960123,21.162794,15.209604Q21.059456,15.459085,20.944,15.703197Q20.828545,15.947308,20.701252,16.185459Q20.573957,16.423609,20.435131,16.655226Q20.296305,16.886843,20.14628,17.11137Q19.996256,17.335896,19.835396,17.552792Q19.674536,17.769688,19.503227,17.978432Q19.331917,18.187172,19.150572,18.387255Q18.969227,18.587337,18.778282,18.778282Q18.587337,18.969227,18.387255,19.150574Q18.187172,19.331917,17.978432,19.503227Q17.769688,19.674536,17.552792,19.835396Q17.335896,19.996256,17.11137,20.14628Q16.886843,20.296305,16.655226,20.435131Q16.423607,20.573959,16.185457,20.701254Q15.947307,20.828548,15.703197,20.944004Q15.459085,21.059458,15.209604,21.162796Q14.960123,21.266134,14.705872,21.357107Q14.451621,21.448082,14.193213,21.52647Q13.934804,21.604856,13.672861,21.670469Q13.410917,21.736082,13.14607,21.788763Q12.881222,21.841446,12.614108,21.881069Q12.346994,21.920691,12.078259,21.947159Q11.809523,21.973627,11.53981,21.986877Q11.2701,22.000128,11.000064,22.000128Q10.730027,22.000128,10.460316,21.986877Q10.190605,21.973627,9.9218693,21.947159Q9.6531334,21.920689,9.3860197,21.881065Q9.118906,21.841442,8.8540573,21.788761Q8.5892096,21.73608,8.3272657,21.670465Q8.0653219,21.604855,7.8069134,21.526466Q7.5485048,21.448078,7.2942533,21.357105Q7.0400023,21.266132,6.7905211,21.162794Q6.5410404,21.059456,6.2969303,20.944Q6.0528202,20.828545,5.8146696,20.701252Q5.5765181,20.573957,5.3449001,20.435131Q5.1132822,20.296305,4.8887553,20.14628Q4.6642284,19.996256,4.4473329,19.835396Q4.2304378,19.674536,4.021697,19.503227Q3.8129559,19.331917,3.6128721,19.150572Q3.4127884,18.969227,3.221844,18.778282Q3.0308995,18.587337,2.8495543,18.387255Q2.6682088,18.187172,2.4968996,17.978432Q2.3255901,17.769688,2.1647296,17.552792Q2.0038691,17.335896,1.8538448,17.11137Q1.7038206,16.886843,1.5649942,16.655226Q1.4261677,16.423607,1.2988735,16.185457Q1.1715792,15.947307,1.0561237,15.703197Q0.94066834,15.459085,0.83732986,15.209604Q0.73399138,14.960123,0.6430189,14.705872Q0.55204642,14.451621,0.47365904,14.193213Q0.3952716,13.934804,0.32965809,13.672861Q0.26404458,13.410917,0.21136311,13.14607Q0.15868163,12.881222,0.11905906,12.614108Q0.079436496,12.346994,0.052968308,12.078259Q0.026500113,11.809523,0.013250057,11.53981Q0,11.2701,0,11.000064Q0,10.730027,0.013250057,10.460316Q0.026500113,10.190605,0.052968308,9.9218693Q0.079436496,9.6531334,0.11905906,9.3860197Q0.15868163,9.118906,0.21136311,8.8540573Q0.26404458,8.5892096,0.32965809,8.3272657Q0.39527154,8.0653219,0.47365898,7.8069134Q0.55204642,7.5485048,0.6430189,7.2942533Q0.73399138,7.0400023,0.83732986,6.7905211Q0.94066834,6.5410404,1.0561237,6.2969303Q1.1715792,6.0528202,1.2988735,5.8146696Q1.4261677,5.5765181,1.5649942,5.3449001Q1.7038206,5.1132822,1.8538448,4.8887553Q2.0038691,4.6642284,2.1647296,4.4473329Q2.3255901,4.2304378,2.4968996,4.021697Q2.6682088,3.8129559,2.8495541,3.6128721Q3.0308995,3.4127884,3.221844,3.221844Q3.4127884,3.0308995,3.6128721,2.8495543Q3.8129559,2.6682088,4.021697,2.4968996Q4.2304378,2.3255901,4.4473329,2.1647296Q4.6642284,2.0038691,4.8887553,1.8538448Q5.1132822,1.7038206,5.3449001,1.5649942Q5.5765181,1.4261677,5.8146691,1.2988735Q6.0528202,1.1715792,6.2969298,1.0561237Q6.5410404,0.94066834,6.7905211,0.83732986Q7.0400023,0.73399138,7.2942533,0.6430189Q7.5485048,0.55204642,7.8069134,0.47365904Q8.0653219,0.3952716,8.3272657,0.32965809Q8.5892096,0.26404458,8.8540573,0.21136311Q9.118906,0.15868163,9.3860197,0.11905906Q9.6531334,0.079436496,9.9218693,0.052968308Q10.190605,0.026500113,10.460316,0.013250057Q10.730027,0,11.000064,0Q11.2701,0,11.539811,0.013250057Q11.809523,0.026500113,12.078259,0.052968308Q12.346994,0.079436496,12.614107,0.11905906Q12.881221,0.15868163,13.146069,0.21136311Q13.410917,0.26404458,13.672861,0.32965809Q13.934804,0.39527154,14.193213,0.47365898Q14.451621,0.55204642,14.705873,0.6430189Q14.960123,0.73399138,15.209604,0.83732986Q15.459085,0.94066834,15.703197,1.0561237Q15.947308,1.1715792,16.185459,1.2988735Q16.423609,1.4261677,16.655226,1.5649942Q16.886843,1.7038206,17.11137,1.8538448Q17.335896,2.0038691,17.552792,2.1647296Q17.769688,2.3255901,17.978432,2.4968996Q18.187172,2.6682088,18.387255,2.8495541Q18.587337,3.0308995,18.778282,3.221844Q18.969227,3.4127884,19.150574,3.6128721Q19.331917,3.8129559,19.503227,4.021697Q19.674536,4.2304378,19.835396,4.4473329Q19.996256,4.6642284,20.14628,4.8887553Q20.296305,5.1132822,20.435131,5.3449001Q20.573959,5.5765181,20.701254,5.8146691Q20.828548,6.0528202,20.944004,6.2969298Q21.059458,6.5410404,21.162796,6.7905211Q21.266134,7.0400023,21.357107,7.2942533Q21.448082,7.5485048,21.52647,7.8069134Q21.604856,8.0653219,21.670469,8.3272657Q21.736082,8.5892096,21.788763,8.8540573Q21.841446,9.118906,21.881069,9.3860197Q21.920691,9.6531334,21.947159,9.9218693Q21.973627,10.190605,21.986877,10.460316Q22.000128,10.730027,22.000128,11.000064Z" fill="#6B7280" fill-opacity="1" style="mix-blend-mode:passthrough"/></svg>