<svg xmlns="http://www.w3.org/2000/svg" xmlns:xlink="http://www.w3.org/1999/xlink" fill="none" version="1.1" width="22" height="22" viewBox="0 0 22 22"><path d="M1.375008,1.3750079870224C2.1355593,1.3750079870224,2.750016,1.9894646370224,2.750016,2.7500159870224L2.750016,17.187599987022402C2.750016,17.5657259870224,3.0593927,17.8751029870224,3.43752,17.8751029870224L20.62512,17.8751029870224C21.385672,17.8751029870224,22.000128,18.4895599870224,22.000128,19.2501109870224C22.000128,20.0106639870224,21.385672,20.6251209870224,20.62512,20.6251209870224L3.43752,20.6251209870224C1.5382901,20.6251209870224,0,19.0868309870224,0,17.187599987022402L0,2.7500159870224C0,1.9894646370224,0.61445671,1.3750079870224,1.375008,1.3750079870224ZM5.5000319,4.1250239870224C5.5000319,3.3644727870224,6.1144886,2.7500159870224,6.8750401,2.7500159870224L15.125088,2.7500159870224C15.88564,2.7500159870224,16.500095,3.3644727870224,16.500095,4.1250239870224C16.500095,4.8855751870224005,15.88564,5.5000317870224,15.125088,5.5000317870224L6.8750401,5.5000317870224C6.1144886,5.5000317870224,5.5000319,4.8855751870224005,5.5000319,4.1250239870224ZM6.8750401,7.5625437870224L12.375072,7.5625437870224C13.135624,7.5625437870224,13.75008,8.1770008870224,13.75008,8.9375518870224C13.75008,9.6981032870224,13.135624,10.3125594870224,12.375072,10.3125594870224L6.8750401,10.3125594870224C6.1144886,10.3125594870224,5.5000319,9.6981032870224,5.5000319,8.9375518870224C5.5000319,8.1770008870224,6.1144886,7.5625437870224,6.8750401,7.5625437870224ZM6.8750401,12.3750719870224L17.875103,12.3750719870224C18.635656,12.3750719870224,19.250113,12.9895279870224,19.250113,13.7500799870224C19.250113,14.5106319870224,18.635656,15.1250879870224,17.875103,15.1250879870224L6.8750401,15.1250879870224C6.1144886,15.1250879870224,5.5000319,14.5106319870224,5.5000319,13.7500799870224C5.5000319,12.9895279870224,6.1144886,12.3750719870224,6.8750401,12.3750719870224Z" fill="#F97316" fill-opacity="1" style="mix-blend-mode:passthrough"/></svg>