<svg xmlns="http://www.w3.org/2000/svg" xmlns:xlink="http://www.w3.org/1999/xlink" fill="none" version="1.1" width="20" height="20" viewBox="0 0 20 20"><path d="M1.2498882076416016,1.2498881816864014C1.9413032076416015,1.2498881816864014,2.4999041076416018,1.8084890216864014,2.4999041076416018,2.4999041816864014L2.4999041076416018,15.625072181686402C2.4999041076416018,15.968826181686401,2.7811577076416016,16.2500801816864,3.1249123076416017,16.2500801816864L18.750112207641603,16.2500801816864C19.4415282076416,16.2500801816864,20.000128207641602,16.8086801816864,20.000128207641602,17.500096181686402C20.000128207641602,18.191512181686402,19.4415282076416,18.7501111816864,18.750112207641603,18.7501111816864L3.1249123076416017,18.7501111816864C1.3983276076416016,18.7501111816864,-0.0001277923583984375,17.3516561816864,-0.0001277923583984375,15.625072181686402L-0.0001277923583984375,2.4999041816864014C-0.0001277923583984375,1.8084890216864014,0.5584731076416015,1.2498881816864014,1.2498882076416016,1.2498881816864014ZM4.999936107641601,3.7499200816864016C4.999936107641601,3.0585051816864013,5.558537007641601,2.4999041816864014,6.2499523076416015,2.4999041816864014L13.750047207641602,2.4999041816864014C14.441463207641602,2.4999041816864014,15.000064207641602,3.0585051816864013,15.000064207641602,3.7499200816864016C15.000064207641602,4.4413351816864015,14.441463207641602,4.999936081686402,13.750047207641602,4.999936081686402L6.2499523076416015,4.999936081686402C5.558537007641601,4.999936081686402,4.999936107641601,4.4413351816864015,4.999936107641601,3.7499200816864016ZM6.2499523076416015,6.874960181686402L11.250016207641602,6.874960181686402C11.941432207641602,6.874960181686402,12.5000322076416,7.433561081686402,12.5000322076416,8.124975881686401C12.5000322076416,8.816391181686402,11.941432207641602,9.374992181686402,11.250016207641602,9.374992181686402L6.2499523076416015,9.374992181686402C5.558537007641601,9.374992181686402,4.999936107641601,8.816391181686402,4.999936107641601,8.124975881686401C4.999936107641601,7.433561081686402,5.558537007641601,6.874960181686402,6.2499523076416015,6.874960181686402ZM6.2499523076416015,11.250016181686401L16.250080207641602,11.250016181686401C16.941496207641602,11.250016181686401,17.5000952076416,11.808616181686402,17.5000952076416,12.500032181686402C17.5000952076416,13.191448181686402,16.941496207641602,13.7500481816864,16.250080207641602,13.7500481816864L6.2499523076416015,13.7500481816864C5.558537007641601,13.7500481816864,4.999936107641601,13.191448181686402,4.999936107641601,12.500032181686402C4.999936107641601,11.808616181686402,5.558537007641601,11.250016181686401,6.2499523076416015,11.250016181686401Z" fill="#F97316" fill-opacity="1" style="mix-blend-mode:passthrough"/></svg>