<svg xmlns="http://www.w3.org/2000/svg" xmlns:xlink="http://www.w3.org/1999/xlink" fill="none" version="1.1" width="20" height="20" viewBox="0 0 20 20"><path d="M7.667007438330078,0.20713203C8.00895933833008,-0.079666212,8.512694338330078,-0.068635538,8.839938138330078,0.24022411C9.292197238330079,0.66674453,9.696656238330078,1.1373876,10.086406738330078,1.6153847C10.582788438330079,2.2220733,11.178445838330077,3.0236375,11.752041838330078,3.9759543C11.943241038330077,3.725925,12.119732038330078,3.505311,12.274162038330077,3.3177893C12.314609038330078,3.2699897,12.355055038330079,3.2185128,12.395500038330079,3.1670363C12.685975038330078,2.8067,13.046311038330078,2.3544416,13.527985038330078,2.3544416C14.020689038330078,2.3544416,14.366317038330077,2.7919927,14.660469038330078,3.1670363C14.708268038330079,3.2295434,14.756069038330079,3.2883742,14.803868038330078,3.3435278C15.182589038330079,3.799463,15.686324038330078,4.4576283,16.190060038330078,5.2702236C17.190177038330077,6.8843822,18.23441703833008,9.1824446,18.23441703833008,11.763629C18.23441703833008,16.311954,14.546486038330078,19.999886,9.998160338330079,19.999886C5.449834838330078,19.999886,1.7655830383300781,16.31563,1.7655830383300781,11.767305C1.7655830383300781,8.4176493,3.276788838330078,5.5165753,4.725487438330078,3.4942806C5.457190538330078,2.4757791,6.1852164383300785,1.6595074,6.733075138330078,1.1006187C7.034580738330078,0.79175913,7.339763638330078,0.48657644,7.670684338330078,0.21080893L7.667007438330078,0.20713203ZM10.064346338330077,16.473738C10.994602238330078,16.473738,11.818227038330079,16.216354,12.594053038330077,15.701588C14.142028038330078,14.62058,14.557518038330079,12.458562,13.627262038330079,10.759834C13.461801038330078,10.428914,13.038959038330079,10.406852,12.799960038330077,10.686296L11.873381038330079,11.763628C11.630704838330079,12.043073,11.193154338330078,12.035718,10.965186138330077,11.745243C10.329082538330079,10.932649,9.159829138330078,9.4508581,8.564170838330078,8.6934166C8.365618238330079,8.4397106,8.005281938330079,8.3992643,7.7736373383300785,8.6235552C7.100764238330078,9.2780447,5.880033938330078,10.712034,5.880033938330078,12.458562C5.880033938330078,14.980915,7.740545238330078,16.473738,10.060668938330078,16.473738L10.064346338330077,16.473738Z" fill="#F97316" fill-opacity="1" style="mix-blend-mode:passthrough"/></svg>