<svg xmlns="http://www.w3.org/2000/svg" xmlns:xlink="http://www.w3.org/1999/xlink" fill="none" version="1.1" width="20" height="20" viewBox="0 0 20 20"><path d="M3,5.5C3,4.671875,3.671875,4,4.5,4C5.328125,4,6,4.671875,6,5.5L6,9L14,9L14,5.5C14,4.671875,14.671875,4,15.5,4C16.328125,4,17,4.671875,17,5.5L17,6L17.5,6C18.328125,6,19,6.671875,19,7.5L19,9C19.553125,9,20,9.4468751,20,10C20,10.553125399999999,19.553125,11,19,11L19,12.5C19,13.328125,18.328125,14,17.5,14L17,14L17,14.5C17,15.328125,16.328125,16,15.5,16C14.671875,16,14,15.328125,14,14.5L14,11L6,11L6,14.5C6,15.328125,5.328125,16,4.5,16C3.671875,16,3,15.328125,3,14.5L3,14L2.5,14C1.671875,14,1,13.328125,1,12.5L1,11C0.44687498,11,0,10.553125399999999,0,10C0,9.446874600000001,0.44687501,9,1,9L1,7.5C1,6.671875,1.671875,6,2.5,6L3,6L3,5.5Z" fill="#F97316" fill-opacity="1" style="mix-blend-mode:passthrough"/></svg>