<svg xmlns="http://www.w3.org/2000/svg" xmlns:xlink="http://www.w3.org/1999/xlink" fill="none" version="1.1" width="20" height="20" viewBox="0 0 20 20"><path d="M4.9999681,17.777727919250488C2.2395689,17.777727919250488,0,15.538158919250488,0,12.777760919250488C0,10.576385519250488,1.423602,8.708341619250488,3.3992839,8.038207019250489C3.3541453,7.770847819250489,3.333312,7.5000162192504884,3.333312,7.2222400192504885C3.333312,4.461840819250488,5.5728812,2.2222719192504883,8.3332806,2.2222719192504883C10.256879,2.2222719192504883,11.927007,3.3090704192504883,12.763807,4.899338019250488C13.256861,4.611145519250488,13.833244,4.4444799192504885,14.444352,4.4444799192504885C16.284618,4.4444799192504885,17.777664,5.937526019250488,17.777664,7.777792019250488C17.777664,8.322927519250488,17.645721,8.840285319250487,17.413084,9.295143119250488C18.940851,10.00000001925049,19.999872,11.541656519250488,19.999872,13.333311919250487C19.999872,15.788157919250489,18.010302,17.777727919250488,15.555456,17.777727919250488L4.9999681,17.777727919250488ZM10.59021,7.743070119250488C10.263824,7.416683219250488,9.7360487,7.416683219250488,9.4131346,7.743070119250488L6.9131503,10.243054419250488C6.5867639,10.569440819250488,6.5867639,11.097215619250488,6.9131503,11.420129819250489C7.2395372,11.743043919250487,7.767312,11.746516219250488,8.0902262,11.420129819250489L9.1666079,10.343747119250489L9.1666079,13.888863919250488C9.1666079,14.350665919250488,9.5381336,14.722191919250488,9.9999361,14.722191919250488C10.461739,14.722191919250488,10.833264,14.350665919250488,10.833264,13.888863919250488L10.833264,10.343747119250489L11.909646,11.420129819250489C12.236032,11.746516219250488,12.763807,11.746516219250488,13.086721,11.420129819250489C13.409636,11.093743319250489,13.413108,10.565968519250488,13.086721,10.243054419250488L10.586738,7.743070119250488L10.59021,7.743070119250488Z" fill="#06B6D4" fill-opacity="1" style="mix-blend-mode:passthrough"/></svg>