<svg xmlns="http://www.w3.org/2000/svg" xmlns:xlink="http://www.w3.org/1999/xlink" fill="none" version="1.1" width="18" height="18" viewBox="0 0 18 18"><path d="M8.17377,0.1828110054450591C8.6975946,-0.05976541255494091,9.3022776,-0.05976541255494091,9.8261023,0.1828110054450591L17.511204,3.733566885445059C17.81003,3.870675485445059,17.999872,4.169501185445059,17.999872,4.499967885445059C17.999872,4.830434185445059,17.81003,5.129260385445059,17.511204,5.266368785445059L9.8261023,8.817124685445059C9.3022776,9.059701285445058,8.6975946,9.059701285445058,8.17377,8.817124685445059L0.48866838,5.266368785445059C0.1898424,5.1257451854450595,0,4.826918985445059,0,4.499967885445059C0,4.173016885445059,0.1898424,3.870675485445059,0.48866838,3.733566885445059L8.17377,0.1828110054450591ZM1.6910036,7.678070385445059L7.4671345,10.346409685445058C8.4409552,10.796406685445058,9.5624323,10.796406685445058,10.536254,10.346409685445058L16.312384,7.678070385445059L17.511204,8.233535185445058C17.81003,8.370642985445059,17.999872,8.66946918544506,17.999872,8.999936485445058C17.999872,9.33040368544506,17.81003,9.629227985445059,17.511204,9.76633678544506L9.8261023,13.31709268544506C9.3022776,13.55966868544506,8.6975946,13.55966868544506,8.17377,13.31709268544506L0.48866838,9.76633678544506C0.1898424,9.625712785445058,0,9.326886485445058,0,8.999936485445058C0,8.67298538544506,0.1898424,8.370643985445058,0.48866838,8.233535185445058L1.6874881,7.678070385445059L1.6910036,7.678070385445059ZM0.48866838,12.73350368544506L1.6874881,12.17803868544506L7.4636188,14.84637968544506C8.4374399,15.296375685445058,9.5589161,15.296375685445058,10.532738,14.84637968544506L16.30887,12.17803868544506L17.507689,12.73350368544506C17.806515,12.87061168544506,17.996357,13.16943768544506,17.996357,13.499903685445059C17.996357,13.83037068544506,17.806515,14.12919668544506,17.507689,14.266304685445059L9.822587,17.81705968544506C9.2987633,18.05963668544506,8.6940794,18.05963668544506,8.1702557,17.81705968544506L0.48866838,14.266304685445059C0.1898424,14.12568068544506,0,13.826853685445059,0,13.499903685445059C0,13.172953685445059,0.1898424,12.87061168544506,0.48866838,12.73350368544506Z" fill="#4B5563" fill-opacity="1" style="mix-blend-mode:passthrough"/></svg>