<svg xmlns="http://www.w3.org/2000/svg" xmlns:xlink="http://www.w3.org/1999/xlink" fill="none" version="1.1" width="20" height="20" viewBox="0 0 20 20"><path d="M7.765882959326172,0.071462348C8.117404959326173,-0.073052257,8.519702459326172,0.0050637438,8.789202659326172,0.27456394L10.976450559326173,2.461812C11.343595559326172,2.8289573,11.343595559326172,3.4226387,10.976450559326173,3.7858782L8.789202659326172,5.9731259C8.519702459326172,6.2426257,8.117404959326173,6.3207417,7.765882959326172,6.1762276C7.414360559326171,6.031713,7.187824259326172,5.6919084,7.187824259326172,5.313046L7.187824259326172,4.3756537L6.2504320593261715,4.3756537C5.559105359326172,4.3756537,5.000576059326172,4.9341836,5.000576059326172,5.6255097L5.000576059326172,14.011262C6.105917459326172,14.491675,6.875360059326172,15.593111,6.875360059326172,16.874214C6.875360059326172,18.600578,5.477083659326172,19.998854,3.750719759326172,19.998854C2.024356259326172,19.998854,0.6260795593261719,18.600578,0.6260795593261719,16.874214C0.6260795593261719,15.593111,1.395522239326172,14.491675,2.5008637593261716,14.011262L2.5008637593261716,5.6255097C2.5008637593261716,3.5554359,4.180357959326171,1.875942,6.2504320593261715,1.875942L7.187824259326172,1.875942L7.187824259326172,0.93855C7.187824259326172,0.55968738,7.414360559326171,0.21597695,7.765882959326172,0.071462348ZM15.311888559326173,3.125798C15.311888559326173,3.6435053,15.731573559326172,4.06319,16.249280559326174,4.06319C16.766988559326172,4.06319,17.186672559326173,3.6435053,17.186672559326173,3.125798C17.186672559326173,2.6080906,16.766988559326172,2.188406,16.249280559326174,2.188406C15.731573559326172,2.188406,15.311888559326173,2.6080906,15.311888559326173,3.125798ZM14.999424559326172,5.9887495C13.894083559326171,5.5083361,13.124640559326172,4.4069004,13.124640559326172,3.125798C13.124640559326172,1.3994343,14.522916559326172,0.0011579476,16.249280559326174,0.0011579476C17.97564555932617,0.0011579476,19.373920559326173,1.3994343,19.373920559326173,3.125798C19.373920559326173,4.4069004,18.60447855932617,5.5083361,17.499137559326172,5.9887495L17.499137559326172,14.374501C17.499137559326172,16.444576,15.819642559326171,18.124069,13.749568559326171,18.124069L12.812176559326172,18.124069L12.812176559326172,19.06146C12.812176559326172,19.440325,12.585640559326173,19.784035,12.234118559326172,19.928549C11.882596559326172,20.073065,11.480299559326172,19.994949,11.210798559326172,19.725447L9.023550059326173,17.538198C8.656405459326171,17.171055,8.656405459326171,16.577372,9.023550059326173,16.214134L11.210798559326172,14.026885C11.480297559326171,13.757385,11.882596559326172,13.67927,12.234118559326172,13.823783C12.585640559326173,13.968297,12.812176559326172,14.308103,12.812176559326172,14.686965L12.812176559326172,15.624357L13.749568559326171,15.624357C14.440895559326172,15.624357,14.999424559326172,15.065828,14.999424559326172,14.374501L14.999424559326172,5.9887495ZM2.813327759326172,16.874214C2.813327759326172,17.39192,3.2330124593261718,17.811605,3.750719759326172,17.811605C4.2684273593261715,17.811605,4.688111759326172,17.39192,4.688111759326172,16.874214C4.688111759326172,16.356506,4.2684273593261715,15.936821,3.750719759326172,15.936821C3.2330124593261718,15.936821,2.813327759326172,16.356506,2.813327759326172,16.874214Z" fill="#8B5CF6" fill-opacity="1" style="mix-blend-mode:passthrough"/></svg>