<svg xmlns="http://www.w3.org/2000/svg" xmlns:xlink="http://www.w3.org/1999/xlink" fill="none" version="1.1" width="20" height="20" viewBox="0 0 20 20.000244140625"><path d="M15.625071837036133,7.5000843559082035C17.695409837036134,7.5000843559082035,19.375119837036134,5.820375455908203,19.375119837036134,3.7500364559082033C19.375119837036134,1.679697555908203,17.695409837036134,-0.000011444091796875,15.625071837036133,-0.000011444091796875C13.554731837036133,-0.000011444091796875,11.875023837036133,1.679697555908203,11.875023837036133,3.7500364559082033C11.875023837036133,3.960976855908203,11.894554837036132,4.171916955908203,11.925804837036132,4.375044355908203L6.859334937036133,7.191486855908203C6.199170137036133,6.6055421559082035,5.328065437036133,6.250068655908203,4.374928037036133,6.250068655908203C2.3045891370361327,6.250068655908203,0.6248801350631629,7.929777655908203,0.6248801350631629,10.000116555908203C0.6248801350631629,12.070455555908204,2.3045891370361327,13.750163555908204,4.374928037036133,13.750163555908204C5.328065437036133,13.750163555908204,6.195263837036133,13.394690555908204,6.859334937036133,12.808745555908203L11.925804837036132,15.625187555908203C11.890648837036133,15.828316555908204,11.875023837036133,16.035348555908204,11.875023837036133,16.250196555908204C11.875023837036133,18.320535555908204,13.554731837036133,20.000244555908203,15.625071837036133,20.000244555908203C17.695409837036134,20.000244555908203,19.375119837036134,18.320535555908204,19.375119837036134,16.250196555908204C19.375119837036134,14.179857555908203,17.695409837036134,12.500148555908202,15.625071837036133,12.500148555908202C14.671933837036132,12.500148555908202,13.804734837036133,12.855622555908203,13.140663837036133,13.441566555908203L8.074193437036133,10.625123555908203C8.109350237036132,10.421996555908203,8.124975637036133,10.214962555908203,8.124975637036133,10.000116555908203C8.124975637036133,9.785269755908203,8.105443937036132,9.578235655908204,8.074193437036133,9.375108755908203L13.140663837036133,6.558665755908203C13.800828837036132,7.144610855908203,14.671933837036132,7.5000843559082035,15.625071837036133,7.5000843559082035Z" fill="#EC4899" fill-opacity="1" style="mix-blend-mode:passthrough"/></svg>