<svg xmlns="http://www.w3.org/2000/svg" xmlns:xlink="http://www.w3.org/1999/xlink" fill="none" version="1.1" width="32" height="32" viewBox="0 0 32 32"><path d="M0,3.0024957849731444C0,1.3465637849731444,1.343492,0.0030717849731445312,2.999424,0.0030717849731445312L8.9982719,0.0030717849731445312C10.654204,0.0030717849731445312,11.997696,1.3465637849731444,11.997696,3.0024957849731444L11.997696,25.998079784973143C11.997696,29.309944784973144,9.3107119,31.996927784973145,5.998848,31.996927784973145C2.6869841,31.996927784973145,0,29.309944784973144,0,25.998079784973143L0,3.0024957849731444ZM14.99712,25.598156784973146L14.99712,8.632664684973145L18.002794,5.626992184973145C19.17132,4.458466484973145,21.070955,4.458466484973145,22.245728,5.626992184973145L26.488663,9.869927384973144C27.65719,11.038452784973144,27.65719,12.938088784973145,26.488663,14.112863784973145L14.99712,25.598156784973146ZM12.841284,31.996927784973145L24.83898,19.999232784973145L29.000681,19.999232784973145C30.656614,19.999232784973145,32.000103,21.342724784973143,32.000103,22.998655784973145L32.000103,28.997503784973144C32.000103,30.653435784973144,30.656612,31.996927784973145,29.000679,31.996927784973145L12.847531,31.996927784973145L12.841284,31.996927784973145ZM4.9990401,4.002303884973145C4.4491453,4.002303884973145,3.9992321,4.452217084973144,3.9992321,5.002111884973145L3.9992321,7.001728084973145C3.9992321,7.551622384973145,4.4491453,8.001535884973144,4.9990401,8.001535884973144L6.9986563,8.001535884973144C7.5485506,8.001535884973144,7.9984641,7.551622384973145,7.9984641,7.001728084973145L7.9984641,5.002111884973145C7.9984641,4.452217084973144,7.5485506,4.002303884973145,6.9986563,4.002303884973145L4.9990401,4.002303884973145ZM3.9992321,13.000575784973144L3.9992321,15.000191784973145C3.9992321,15.550086784973145,4.4491453,15.999999784973145,4.9990401,15.999999784973145L6.9986563,15.999999784973145C7.5485506,15.999999784973145,7.9984641,15.550086784973145,7.9984641,15.000191784973145L7.9984641,13.000575784973144C7.9984641,12.450681784973144,7.5485506,12.000767784973144,6.9986563,12.000767784973144L4.9990401,12.000767784973144C4.4491453,12.000767784973144,3.9992321,12.450681784973144,3.9992321,13.000575784973144ZM5.998848,27.497791784973145C6.8271165,27.497791784973145,7.49856,26.826348784973145,7.49856,25.998079784973143C7.49856,25.169811784973145,6.8271165,24.498367784973144,5.998848,24.498367784973144C5.1705799,24.498367784973144,4.499136,25.169811784973145,4.499136,25.998079784973143C4.499136,26.826348784973145,5.1705799,27.497791784973145,5.998848,27.497791784973145Z" fill="#059669" fill-opacity="1" style="mix-blend-mode:passthrough"/></svg>