<svg xmlns="http://www.w3.org/2000/svg" xmlns:xlink="http://www.w3.org/1999/xlink" fill="none" version="1.1" width="28" height="28" viewBox="0 0 28 28"><path d="M20.145349982055663,1.0011009543798828L17.403977982055665,3.742472364379883L24.260142982055665,10.598637864379883L27.001515982055665,7.857266464379883C28.199840982055665,6.658942264379883,28.199840982055665,4.721925264379883,27.001515982055665,3.5236012643798826L24.479014982055663,1.0011009543798828C23.280690982055663,-0.1972231856201172,21.343675982055665,-0.1972231856201172,20.145349982055663,1.0011009543798828ZM15.264502982055664,5.318350764379883L15.237143982055665,5.323822464379883L7.3522805820556645,7.687640664379883C6.263392482055664,8.015948264379883,5.398848582055664,8.847661964379883,5.037709282055664,9.931077964379883L0.18969571605566404,24.393045864379882C0.03101351905566406,24.869092864379883,0.08573152205566406,25.38891186437988,0.32649073205566403,25.81571186437988L8.829667082055664,17.312535864379882C8.769476882055663,17.093663864379884,8.742117882055664,16.869319864379882,8.742117882055664,16.634032864379883C8.742117882055664,15.184006864379883,9.918555282055664,14.007568864379882,11.368581982055664,14.007568864379882C12.818608982055665,14.007568864379882,13.995044982055663,15.184006864379883,13.995044982055663,16.634032864379883C13.995044982055663,18.084060864379882,12.818607982055664,19.260497864379882,11.368580982055665,19.260497864379882C11.133293982055664,19.260497864379882,10.903478982055663,19.227666864379884,10.690078982055663,19.172948864379883L2.186902782055664,27.670653864379883C2.613702982055664,27.911412864379884,3.128052282055664,27.96613086437988,3.609570982055664,27.807448864379882L18.071536982055665,22.959434864379883C19.149480982055664,22.598294864379884,19.986665982055666,21.733750864379882,20.314973982055665,20.64486286437988L22.678792982055665,12.759998864379883L22.684264982055662,12.732639864379882L15.269975982055664,5.318351764379883L15.264502982055664,5.318350764379883Z" fill="#10B981" fill-opacity="1" style="mix-blend-mode:passthrough"/></svg>