<svg xmlns="http://www.w3.org/2000/svg" xmlns:xlink="http://www.w3.org/1999/xlink" fill="none" version="1.1" width="18" height="18" viewBox="0 0 18 18"><path d="M0,1.6890078502197265C0,0.7575593602197266,0.75570351,0.0018558502197265625,1.687152,0.0018558502197265625L5.0614562,0.0018558502197265625C5.9929047,0.0018558502197265625,6.7486081,0.7575593602197266,6.7486081,1.6890078502197265L6.7486081,14.623839850219726C6.7486081,16.486735850219727,5.2372012,17.998143850219726,3.3743041,17.998143850219726C1.511407,17.998143850219726,0,16.486735850219727,0,14.623839850219726L0,1.6890078502197265ZM8.4357605,14.398886850219727L8.4357605,4.855933150219727L10.126428,3.1652662502197266C10.783714,2.5079796502197267,11.852243,2.5079796502197267,12.513044,3.1652662502197266L14.899661,5.551883250219727C15.556948,6.209169350219726,15.556948,7.277698950219727,14.899661,7.938500850219727L8.4357605,14.398886850219727ZM7.2231197,17.998143850219726L13.971727,11.249536850219727L16.312651,11.249536850219727C17.244101,11.249536850219727,17.999802,12.005239850219727,17.999802,12.936688850219726L17.999802,16.310990850219728C17.999802,17.242440850219726,17.244099,17.998143850219726,16.312651,17.998143850219726L7.2266335,17.998143850219726L7.2231197,17.998143850219726ZM2.8119202,2.2513918502197265C2.5026088,2.2513918502197265,2.249536,2.5044646502197265,2.249536,2.8137760502197264L2.249536,3.9385437502197265C2.249536,4.247855150219727,2.5026088,4.500927950219727,2.8119202,4.500927950219727L3.9366879,4.500927950219727C4.2459993,4.500927950219727,4.4990721,4.247855150219727,4.4990721,3.9385437502197265L4.4990721,2.8137760502197264C4.4990721,2.5044646502197265,4.2459993,2.2513918502197265,3.9366879,2.2513918502197265L2.8119202,2.2513918502197265ZM2.249536,7.312848050219727L2.249536,8.437616350219727C2.249536,8.746927250219727,2.5026088,8.999999950219726,2.8119202,8.999999950219726L3.9366879,8.999999950219726C4.2459993,8.999999950219726,4.4990721,8.746927250219727,4.4990721,8.437616350219727L4.4990721,7.312848050219727C4.4990721,7.003536750219727,4.2459993,6.750463950219727,3.9366879,6.750463950219727L2.8119202,6.750463950219727C2.5026088,6.750463950219727,2.249536,7.003536750219727,2.249536,7.312848050219727ZM3.3743041,15.467415850219727C3.8401983,15.467415850219727,4.2178802,15.089733850219726,4.2178802,14.623839850219726C4.2178802,14.157946850219727,3.8401983,13.780263850219727,3.3743041,13.780263850219727C2.9084098,13.780263850219727,2.5307281,14.157946850219727,2.5307281,14.623839850219726C2.5307281,15.089733850219726,2.9084098,15.467415850219727,3.3743041,15.467415850219727Z" fill="#059669" fill-opacity="1" style="mix-blend-mode:passthrough"/></svg>