<svg xmlns="http://www.w3.org/2000/svg" xmlns:xlink="http://www.w3.org/1999/xlink" fill="none" version="1.1" width="28" height="28" viewBox="0 0 28 28"><defs><mask id="master_svg0_151_3380" style="mask-type:luminance" maskUnits="userSpaceOnUse" x="0" y="0" width="28.00146484375" height="28"><rect x="0" y="0" width="27.999998092651367" height="28" rx="0" fill="#000000" fill-opacity="1"/></mask></defs><g mask="url(#master_svg0_151_3380)"><path d="M26.003352796325686,23.243186859375L23.538093596325684,22.700595859375C23.115585296325683,22.607541859375,22.753917696325683,22.335055859375,22.546970396325683,21.953662859375L15.454102516325683,8.883181559375C15.260059356325684,8.525626159375,15.260096550325684,8.093653659375,15.454174996325683,7.736114959375L16.625669496325685,5.578098769375C17.247880896325682,4.431974889375,18.887224196325683,4.431974889375,19.509326896325682,5.578098769375L27.796958796325683,20.844436859375C28.47058479632568,22.085206859375,27.378408796325683,23.545804859375,26.003352796325686,23.243186859375Z" fill-rule="evenodd" fill="#FFFFFF" fill-opacity="1" style="opacity:0.5;"/><path d="M1.9980507,23.243392343444825C0.62305945,23.546187343444824,-0.4690896,22.085444343444824,0.20448095,20.844657343444823L8.4920063,5.578315733444824C9.1141987,4.432191373444824,10.753531,4.432191373444824,11.375721,5.578315733444824L19.663181,20.844657343444823C20.336802,22.085444343444824,19.24461,23.546187343444824,17.869678,23.243392343444825L12.61972,22.087798343444824C10.850185,21.698283343444825,9.0175657,21.698283343444825,7.2480187,22.087798343444824L1.9980507,23.243392343444825Z" fill-rule="evenodd" fill="#FFFFFF" fill-opacity="1"/></g></svg>