<svg xmlns="http://www.w3.org/2000/svg" xmlns:xlink="http://www.w3.org/1999/xlink" fill="none" version="1.1" width="18" height="18" viewBox="0 0 18 18"><path d="M8.466466,0.41781891998291015L8.9421835,1.6006813199829102L10.125045,2.0763976199829104C10.221474,2.1149695199829104,10.28576,2.2113983199829104,10.28576,2.31425591998291C10.28576,2.41711351998291,10.221474,2.51354241998291,10.125045,2.55211421998291L8.9421835,3.02783031998291L8.466466,4.21069291998291C8.4278946,4.30712171998291,8.3314648,4.37140801998291,8.2286081,4.37140801998291C8.1257515,4.37140801998291,8.0293217,4.30712171998291,7.9907503,4.21069291998291L7.5150337,3.02783031998291L6.332171,2.55211421998291C6.2357421,2.51354241998291,6.1714563,2.41711351998291,6.1714563,2.31425591998291C6.1714563,2.2113983199829104,6.2357421,2.11496941998291,6.332171,2.0763976199829104L7.5150337,1.6006813199829102L7.9907503,0.41781891998291015C8.0293217,0.32138992098291014,8.1257505,0.25710391998291016,8.2286081,0.25710391998291016C8.3314657,0.25710391998291016,8.4278955,0.32138992098291014,8.466466,0.41781891998291015ZM3.5582302,2.62604281998291L4.2493048,4.23640751998291L5.8596687,4.92748211998291C6.0493121,5.00783971998291,6.1714554,5.19426921998291,6.1714554,5.39998391998291C6.1714554,5.60569901998291,6.0493121,5.79212851998291,5.8596687,5.87248611998291L4.2493043,6.56356051998291L3.5582297,8.17392441998291C3.4778721,8.36356831998291,3.2914426,8.485711119982911,3.0857275,8.485711119982911C2.8800125,8.485711119982911,2.693583,8.36356831998291,2.6132255,8.17392441998291L1.9221514,6.56356051998291L0.3117871,5.87248611998291C0.1221434,5.79212851998291,0,5.60569901998291,0,5.39998391998291C0,5.19426921998291,0.1221434,5.00783971998291,0.3117871,4.92748211998291L1.9221514,4.23640751998291L2.6132259,2.62604281998291C2.6935835,2.43639941998291,2.8800128,2.31425591998291,3.0857282,2.31425591998291C3.2914433,2.31425591998291,3.4778726,2.43639941998291,3.5582302,2.62604281998291ZM14.914352,11.05715191998291C15.120068,11.05715191998291,15.306498,11.179295919982911,15.386855,11.36893891998291L16.077929,12.979303919982911L17.688293,13.67037891998291C17.877937,13.75073591998291,18.00008,13.93716491998291,18.00008,14.14288091998291C18.00008,14.348597919982911,17.877937,14.53502691998291,17.688293,14.61538291998291L16.077929,15.30645891998291L15.386854,16.91682291998291C15.306497,17.10646691998291,15.120068,17.22860991998291,14.914351,17.22860991998291C14.708635,17.22860991998291,14.522206,17.10646691998291,14.441849,16.91682291998291L13.750774,15.30645891998291L12.140409,14.61538291998291C11.950767,14.53502691998291,11.828622,14.348597919982911,11.828622,14.14288091998291C11.828622,13.93716491998291,11.950766,13.75073591998291,12.140409,13.67037891998291L13.750774,12.979303919982911L14.441849,11.36893891998291C14.522206,11.17929691998291,14.708635,11.05715191998291,14.914352,11.05715191998291ZM14.78578,1.28567991998291C15.139353,1.28567991998291,15.480069,1.42710921998291,15.733998,1.67782461998291L17.093647,3.03747341998291C17.344362,3.2914033199829102,17.485792,3.63211891998291,17.485792,3.9856920199829102C17.485792,4.33926481998291,17.344362,4.67998071998291,17.093647,4.93391031998291L14.258635,7.76892281998291L11.002548,4.51283691998291L13.837562,1.67782451998291C14.091492,1.42710921998291,14.432207,1.28567991998291,14.78578,1.28567991998291ZM1.4207207,14.09466591998291L9.9129009,5.60248521998291L13.168987,8.85857101998291L4.6768064,17.35075091998291C4.4228768,17.60146591998291,4.0821609,17.74289591998291,3.7285881,17.74289591998291C3.375015,17.74289591998291,3.0342994,17.60146591998291,2.7803695,17.35075091998291L1.4207207,15.99110191998291C1.1700053,15.73717291998291,1.028576,15.39645691998291,1.028576,15.042883919982911C1.028576,14.68931091998291,1.1700053,14.34859591998291,1.4207207,14.09466591998291Z" fill="#2563EB" fill-opacity="1" style="mix-blend-mode:passthrough"/></svg>