<svg xmlns="http://www.w3.org/2000/svg" xmlns:xlink="http://www.w3.org/1999/xlink" fill="none" version="1.1" width="18" height="18" viewBox="0 0 18 18"><path d="M12.950598099365234,0.643495854909668L11.188280099365235,2.405813194909668L15.595833099365235,6.813365894909668L17.358150099365233,5.051048794909668C18.128506099365236,4.280693994909668,18.128506099365236,3.035463794909668,17.358150099365233,2.265109794909668L15.736537099365234,0.643495854909668C14.966183099365235,-0.12685850509033203,13.720953099365234,-0.12685850509033203,12.950598099365234,0.643495854909668ZM9.812897699365234,3.418881894909668L9.795309999365234,3.422399494909668L4.726448499365234,4.942002794909668C4.026446599365235,5.153058994909668,3.470665899365234,5.687733694909668,3.2385041993652344,6.384218694909668L0.12191137636523437,15.681234094909668C0.019900981365234376,15.987266094909668,0.055076981865234374,16.321439094909667,0.20985137936523438,16.595811094909667L5.676200899365234,11.129460094909668C5.6375073993652345,10.988756094909668,5.619919299365234,10.844535094909668,5.619919299365234,10.693278094909669C5.619919299365234,9.761114094909669,6.3762030993652346,9.004830394909668,7.308367299365234,9.004830394909668C8.240530999365234,9.004830394909668,8.996814699365235,9.761114094909669,8.996814699365235,10.693278094909669C8.996814699365235,11.625442094909667,8.240530999365234,12.381726094909668,7.308366799365235,12.381726094909668C7.157109699365234,12.381726094909668,7.009370799365234,12.360620094909669,6.872184299365235,12.325444094909669L1.4058352993652343,17.788278094909668C1.6802080993652344,17.943051094909666,2.0108624993652344,17.978228094909667,2.320411399365234,17.876218094909667L11.617426099365234,14.759623094909667C12.310394099365235,14.527462094909668,12.848586099365235,13.971681094909668,13.059642099365234,13.271680094909668L14.579245099365234,8.202817894909668L14.582764099365235,8.185230294909667L9.816415799365235,3.418882594909668L9.812897699365234,3.418881894909668Z" fill="#7C3AED" fill-opacity="1" style="mix-blend-mode:passthrough"/></svg>