<svg xmlns="http://www.w3.org/2000/svg" xmlns:xlink="http://www.w3.org/1999/xlink" fill="none" version="1.1" width="12" height="12" viewBox="0 0 12 12.000244140625"><path d="M5.999478814990234,-0.000011444091796875C6.414331414990234,-0.000011444091796875,6.749494514990235,0.33515193590820314,6.749494514990235,0.7500045259082031L6.749494514990235,4.701651555908203L10.124567014990234,2.753953655908203C10.483167614990235,2.5476992559082032,10.942552114990235,2.669576855908203,11.148807114990234,3.0281784559082032C11.355062114990234,3.386779755908203,11.233185114990235,3.846164455908203,10.874582114990234,4.052418755908203L7.499510814990234,6.000116355908203L10.874582114990234,7.947813955908203C11.233184114990234,8.154067955908204,11.357406114990235,8.613452955908203,11.148807114990234,8.972055455908203C10.940209114990234,9.330656955908204,10.483168614990234,9.454877855908203,10.124567014990234,9.246279755908203L6.749494514990235,7.298581155908203L6.749494514990235,11.250227555908204C6.749494514990235,11.665080555908203,6.414331414990234,12.000244555908203,5.999478814990234,12.000244555908203C5.584626214990235,12.000244555908203,5.249462614990234,11.665080555908203,5.249462614990234,11.250227555908204L5.249462614990234,7.298581155908203L1.8743911149902344,9.246278755908204C1.5157897449902342,9.452533755908203,1.0564048849902343,9.330656055908204,0.8501505249902344,8.972054455908204C0.6438961449902344,8.613452955908203,0.7657737429902344,8.156412155908203,1.1243751349902344,7.947813955908203L4.4994469149902345,6.000116355908203L1.1243751349902344,4.052418755908203C0.7657737429902344,3.843820355908203,0.6438961449902344,3.3867795559082032,0.8501505449902343,3.025834355908203C1.0564049449902344,2.664889355908203,1.5157897449902342,2.545355355908203,1.8743911149902344,2.7516097559082033L5.249462614990234,4.701651555908203L5.249462614990234,0.7500045259082031C5.249462614990234,0.33515193590820314,5.584626214990235,-0.000011444091796875,5.999478814990234,-0.000011444091796875Z" fill="#D1D5DB" fill-opacity="1" style="mix-blend-mode:passthrough"/></svg>