<svg xmlns="http://www.w3.org/2000/svg" xmlns:xlink="http://www.w3.org/1999/xlink" fill="none" version="1.1" width="18" height="18" viewBox="0 0 18 18"><path d="M4.5,16C2.015625,16,0,13.984375,0,11.5C0,9.5187502,1.28125,7.8375001,3.059375,7.234375C3.01875,6.9937501,3,6.75,3,6.5C3,4.015625,5.015625,2,7.5,2C9.2312498,2,10.734375,2.97812498,11.4875,4.409375C11.931251,4.1499999,12.45,4,13,4C14.65625,4,16,5.34375,16,7C16,7.4906249,15.88125,7.9562502,15.671875,8.3656249C17.046875,9,18,10.3874998,18,12C18,14.209375,16.209375,16,14,16L4.5,16ZM9.53125,6.96875C9.2375002,6.6750002,8.7624998,6.6750002,8.4718752,6.96875L6.2218752,9.21875C5.9281254,9.5124998,5.9281254,9.9875002,6.2218752,10.2781248C6.515625,10.5687494,6.9906254,10.5718746,7.28125,10.2781248L8.25,9.3093748L8.25,12.5C8.25,12.915625,8.5843754,13.25,9,13.25C9.4156246,13.25,9.75,12.915625,9.75,12.5L9.75,9.3093748L10.71875,10.2781248C11.0125,10.5718746,11.4875,10.5718746,11.778125,10.2781248C12.068749,9.984375,12.071875,9.509374600000001,11.778125,9.21875L9.5281248,6.96875L9.53125,6.96875Z" fill="#DC2626" fill-opacity="1" style="mix-blend-mode:passthrough"/></svg>