<svg xmlns="http://www.w3.org/2000/svg" xmlns:xlink="http://www.w3.org/1999/xlink" fill="none" version="1.1" width="18" height="18" viewBox="0 0 18 18"><path d="M4.4781251,4C4.0406251,4,3.6500001,4.2874999,3.5218751,4.70625L2.2,9L7,9C7.5531249,9,8,9.446874600000001,8,10L10,10C10,9.446874600000001,10.446875,9,11,9L15.8,9L14.478126,4.7062501999999995C14.35,4.2874999,13.9625,4,13.521875,4L12.5,4C11.946875,4,11.5,3.5531249000000003,11.5,3C11.5,2.4468751,11.946875,2,12.5,2L13.521875,2C14.837501,2,16.003126,2.859375,16.390625,4.1187501L17.809376,8.7281251C17.9375,9.140625,18,9.568750399999999,18,10L18,13C18,14.65625,16.65625,16,15,16L13,16C11.34375,16,10,14.65625,10,13L10,12L8,12L8,13C8,14.65625,6.65625,16,5,16L3,16C1.34375,16,0,14.65625,0,13L0,10C0,9.568750399999999,0.065624997,9.140625,0.190625,8.7281251L1.609375,4.1187501C1.996875,2.859375,3.159375,2,4.4781251,2L5.5,2C6.0531249,2,6.5,2.44687498,6.5,3C6.5,3.5531249000000003,6.0531249,4,5.5,4L4.4781251,4ZM2,11L2,13C2,13.553125,2.4468751,14,3,14L5,14C5.5531249,14,6,13.553125,6,13L6,11L2,11ZM15,14C15.553125,14,16,13.553125,16,13L16,11L12,11L12,13C12,13.553125,12.446875,14,13,14L15,14Z" fill="#D97706" fill-opacity="1" style="mix-blend-mode:passthrough"/></svg>