<svg xmlns="http://www.w3.org/2000/svg" xmlns:xlink="http://www.w3.org/1999/xlink" fill="none" version="1.1" width="28" height="28" viewBox="0 0 28 28"><path d="M5.7675023,3.5708692641503905C5.1600275,2.9633942841503904,4.1734881,2.9633942841503904,3.5660131,3.5708692641503905L0.4557412,6.681141104150391C0.0086396206,7.128242504150391,-0.12257497,7.7940354041503905,0.120415,8.377211604150391C0.36340499,8.96038720415039,0.93200147,9.33459190415039,1.5589156,9.33459190415039L3.1140516,9.33459190415039L3.1140516,20.22054300415039C3.1140516,22.79623800415039,5.2037654,24.88595200415039,7.7794595,24.88595200415039L14.000003,24.88595200415039C14.860188,24.88595200415039,15.555139,24.19100000415039,15.555139,23.33081600415039C15.555139,22.47063100415039,14.860188,21.77568100415039,14.000003,21.77568100415039L7.7794595,21.77568100415039C6.9192753,21.77568100415039,6.2243237,21.080729004150392,6.2243237,20.22054300415039L6.2243237,9.33459190415039L7.7794595,9.33459190415039C8.406373,9.33459190415039,8.9749708,8.95552730415039,9.2179604,8.372351204150391C9.4609509,7.789175504150391,9.3248758,7.123383004150391,8.8826351,6.67628120415039L5.7723627,3.5660091641503904L5.7675023,3.5708692641503905ZM22.232504,24.429131004150392C22.839979,25.03660600415039,23.826519,25.03660600415039,24.433994,24.429131004150392L27.544262,21.31885900415039C27.991365,20.87175600415039,28.12258,20.20596500415039,27.879589,19.62278900415039C27.6366,19.03961300415039,27.068007,18.66540700415039,26.44109,18.66540700415039L24.885954,18.66540700415039L24.885954,7.77945610415039C24.885954,5.203762104150391,22.79624,3.1140480041503906,20.220547,3.1140480041503906L14.000003,3.1140480041503906C13.139817,3.1140480041503906,12.444866,3.8089993641503908,12.444866,4.669184004150391C12.444866,5.529368404150391,13.139817,6.2243199041503905,14.000003,6.2243199041503905L20.220547,6.2243199041503905C21.080732,6.2243199041503905,21.775682,6.919271504150391,21.775682,7.77945610415039L21.775682,18.66540700415039L20.220547,18.66540700415039C19.593634,18.66540700415039,19.025038,19.044472004150393,18.782047,19.62764700415039C18.539057,20.21082300415039,18.675131,20.87661700415039,19.117371,21.323717004150392L22.227644,24.43398900415039L22.232504,24.429131004150392Z" fill="#3B82F6" fill-opacity="1" style="mix-blend-mode:passthrough"/></svg>