<svg xmlns="http://www.w3.org/2000/svg" xmlns:xlink="http://www.w3.org/1999/xlink" fill="none" version="1.1" width="28" height="28" viewBox="0 0 28 28"><path d="M6.9659567,6.222239682788086C6.2854023,6.222239682788086,5.6777649,6.669460782788086,5.4784598,7.320848482788086L3.4222145,14.000000482788085L10.888865,14.000000482788085C11.749279,14.000000482788085,12.444416,14.695137482788086,12.444416,15.555552482788086L15.55552,15.555552482788086C15.55552,14.695137482788086,16.250656,14.000000482788085,17.111073,14.000000482788085L24.577723,14.000000482788085L22.521477,7.320848982788086C22.322172,6.669460782788086,21.719395,6.222239682788086,21.033981,6.222239682788086L19.444401,6.222239682788086C18.583984,6.222239682788086,17.888847,5.527102182788086,17.888847,4.666687582788086C17.888847,3.806272982788086,18.583984,3.111135482788086,19.444401,3.111135482788086L21.033981,3.111135482788086C23.080503,3.111135482788086,24.893696,4.447938082788086,25.496469,6.406961682788086L27.703411,13.577084482788086C27.902714,14.218750482788085,27.999935,14.884720482788087,27.999935,15.555552482788086L27.999935,20.222208482788087C27.999935,22.798591482788087,25.909662,24.888864482788087,23.333281,24.888864482788087L20.222176,24.888864482788087C17.645794,24.888864482788087,15.55552,22.798591482788087,15.55552,20.222208482788087L15.55552,18.666656482788085L12.444416,18.666656482788085L12.444416,20.222208482788087C12.444416,22.798591482788087,10.354143,24.888864482788087,7.77776,24.888864482788087L4.666656,24.888864482788087C2.0902729,24.888864482788087,0,22.798591482788087,0,20.222208482788087L0,15.555552482788086C0,14.884720482788087,0.10208309,14.218750482788085,0.29652709,13.577084482788086L2.5034666,6.406961682788086C3.1062429,4.447938082788086,4.9145722,3.111135482788086,6.9659567,3.111135482788086L8.5555363,3.111135482788086C9.4159508,3.111135482788086,10.111088,3.8062728027880857,10.111088,4.666687582788086C10.111088,5.527102182788086,9.4159508,6.222239682788086,8.5555363,6.222239682788086L6.9659567,6.222239682788086ZM3.111104,17.111104482788086L3.111104,20.222208482788087C3.111104,21.082624482788084,3.8062415,21.777761482788087,4.666656,21.777761482788087L7.77776,21.777761482788087C8.638175,21.777761482788087,9.333312,21.082624482788084,9.333312,20.222208482788087L9.333312,17.111104482788086L3.111104,17.111104482788086ZM23.333281,21.777761482788087C24.193695,21.777761482788087,24.888832,21.082624482788084,24.888832,20.222208482788087L24.888832,17.111104482788086L18.666624,17.111104482788086L18.666624,20.222208482788087C18.666624,21.082624482788084,19.361761,21.777761482788087,20.222176,21.777761482788087L23.333281,21.777761482788087Z" fill="#F59E0B" fill-opacity="1" style="mix-blend-mode:passthrough"/></svg>