<svg xmlns="http://www.w3.org/2000/svg" xmlns:xlink="http://www.w3.org/1999/xlink" fill="none" version="1.1" width="32" height="32" viewBox="0 0 32 32"><path d="M15.051466,0.7428196629223633L15.897183,2.845681882922363L18.000044,3.691398382922363C18.171474,3.759970182922363,18.285759,3.9313988829223634,18.285759,4.114256582922364C18.285759,4.297114182922363,18.171474,4.468543082922364,18.000044,4.537115082922363L15.897183,5.382831082922364L15.051466,7.485693482922363C14.982893,7.657122582922363,14.811464,7.771408582922363,14.628608,7.771408582922363C14.445751,7.771408582922363,14.274322,7.657122582922363,14.20575,7.485693482922363L13.360033,5.382831082922364L11.257171,4.537115082922363C11.085742,4.468543082922364,10.971456,4.297114182922363,10.971456,4.114256582922364C10.971456,3.9313988829223634,11.085742,3.7599699829223634,11.257171,3.691398382922363L13.360033,2.845681882922363L14.20575,0.7428196629223633C14.274322,0.5713906829223633,14.44575,0.4571046829223633,14.628608,0.4571046829223633C14.811466,0.4571046829223633,14.982895,0.5713906829223633,15.051466,0.7428196629223633ZM6.3257298,4.668543382922364L7.5543041,7.531408282922364L10.417168,8.759983082922364C10.754312,8.902839682922364,10.971455,9.234270082922363,10.971455,9.599984182922363C10.971455,9.965699182922362,10.754312,10.297128682922363,10.417168,10.439986182922363L7.5543036,11.668560682922363L6.3257289,14.531424682922363C6.1828713,14.868568682922364,5.8514419,15.085711682922364,5.4857268,15.085711682922364C5.1200123,15.085711682922364,4.7885828,14.868568682922364,4.6457253,14.531424682922363L3.4171512,11.668560682922363L0.55428708,10.439986182922363C0.21714339,10.297128682922363,0,9.965699182922362,0,9.599984182922363C0,9.234270082922363,0.21714339,8.902839682922364,0.55428708,8.759983082922364L3.4171512,7.531408282922364L4.6457262,4.668543382922364C4.7885833,4.331400182922364,5.1200128,4.114256582922364,5.4857278,4.114256582922364C5.8514433,4.114256582922364,6.1828723,4.331400182922364,6.3257298,4.668543382922364ZM26.514351,19.657152682922362C26.880066,19.657152682922362,27.211496,19.874295682922362,27.354355,20.211439682922364L28.58293,23.074305682922365L31.445791,24.302878682922362C31.782936,24.445736682922362,32.00008,24.777165682922362,32.00008,25.142882682922362C32.00008,25.508599682922362,31.782936,25.840027682922365,31.445791,25.982884682922364L28.582928,27.211458682922363L27.354353,30.074324682922363C27.211494,30.411469682922363,26.880066,30.62861168292236,26.514349,30.62861168292236C26.148634,30.62861168292236,25.817205,30.411469682922363,25.674347,30.074324682922363L24.445772,27.211458682922363L21.582909,25.982884682922364C21.245764,25.840027682922365,21.02862,25.508599682922362,21.02862,25.142882682922362C21.02862,24.777165682922362,21.245764,24.445736682922362,21.582909,24.302878682922362L24.445772,23.074305682922365L25.674347,20.211439682922364C25.817205,19.874296682922363,26.148634,19.657152682922362,26.514351,19.657152682922362ZM26.28578,2.2856806829223633C26.914352,2.2856806829223633,27.520069,2.5371098829223633,27.971498,2.9828252829223634L30.388647,5.399973882922363C30.83436,5.8514036829223635,31.085791,6.457119482922363,31.085791,7.085692382922363C31.085791,7.714265382922363,30.83436,8.319981582922363,30.388647,8.771410982922363L25.348633,13.811423682922364L19.560047,8.022837682922363L24.600061,2.9828250829223633C25.051491,2.5371098829223633,25.657207,2.2856806829223633,26.28578,2.2856806829223633ZM2.5257206,25.057165682922363L17.6229,9.959985782922363L23.411488,15.748571682922364L8.3143063,30.845751682922362C7.8628769,31.291464682922363,7.2571607,31.542895682922364,6.6285877,31.542895682922364C6.0000148,31.542895682922364,5.394299,31.291464682922363,4.9428692,30.845751682922362L2.5257206,28.428602682922364C2.0800052,27.977173682922363,1.828576,27.371456682922364,1.828576,26.742884682922362C1.828576,26.114311682922363,2.0800052,25.508595682922362,2.5257206,25.057165682922363Z" fill="#2563EB" fill-opacity="1" style="mix-blend-mode:passthrough"/></svg>