<svg xmlns="http://www.w3.org/2000/svg" xmlns:xlink="http://www.w3.org/1999/xlink" fill="none" version="1.1" width="32" height="32" viewBox="0 0 32 32"><ellipse cx="16" cy="16" rx="16" ry="16" fill="#FF1616" fill-opacity="1"/><path d="M18.370601147235107,22.09325647354126Q18.370601147235107,22.21146797354126,18.35918474723511,22.32911017354126Q18.347767847235108,22.44675257354126,18.325043647235105,22.56269237354126Q18.302320047235106,22.67863277354126,18.268508447235106,22.79175397354126Q18.234696347235108,22.90487527354126,18.19012164723511,23.01408817354126Q18.14554734723511,23.12330147354126,18.090640547235108,23.22755477354126Q18.03573274723511,23.33180757354126,17.97102074723511,23.43009687354126Q17.906309147235106,23.52838637354126,17.832416047235107,23.61976527354126Q17.758522947235107,23.71114397354126,17.676160347235108,23.79473157354126Q17.593797947235107,23.878320173541262,17.503759147235108,23.95331287354126Q17.413720147235107,24.02830557354126,17.316871847235106,24.093979873541258Q17.220024147235108,24.15965507354126,17.11729974723511,24.21537927354126Q17.01457504723511,24.27110337354126,16.906963147235107,24.31634087354126Q16.799351447235107,24.36157897354126,16.687888847235108,24.39589407354126Q16.57642624723511,24.43020917354126,16.46218614723511,24.45327087354126Q16.347946147235106,24.47633317354126,16.232028947235108,24.48792027354126Q16.11611174723511,24.49950647354126,15.999633347235108,24.49950647354126Q15.883155347235107,24.49950647354126,15.767237947235108,24.48791977354126Q15.651320447235108,24.47633317354126,15.537080247235107,24.45327087354126Q15.422840347235107,24.43020917354126,15.311377647235108,24.39589407354126Q15.199915047235107,24.36157897354126,15.092303147235107,24.31634087354126Q14.984691347235108,24.27110337354126,14.881966847235107,24.21537927354126Q14.779242147235108,24.15965507354126,14.682394047235107,24.093979873541258Q14.585546077235108,24.02830557354126,14.495507237235108,23.95331287354126Q14.405468347235107,23.878320173541262,14.323105807235107,23.79473207354126Q14.240743337235108,23.71114397354126,14.166850327235107,23.61976547354126Q14.092957377235107,23.52838657354126,14.028245537235108,23.43009707354126Q13.963533757235107,23.33180807354126,13.908626317235107,23.22755477354126Q13.853718877235107,23.12330147354126,13.809144597235107,23.01408817354126Q13.764570337235108,22.90487527354126,13.730758517235108,22.79175397354126Q13.696946680235108,22.67863277354126,13.674222920235108,22.56269237354126Q13.651499159235108,22.44675257354126,13.640082303235108,22.32911017354126Q13.628665447235107,22.21146797354126,13.628665447235107,22.09325647354126Q13.628665447235107,21.97504517354126,13.640082303235108,21.85740277354126Q13.651499159235108,21.73976067354126,13.674222920235108,21.62382027354126Q13.696946680235108,21.50788037354126,13.730758517235108,21.39475897354126Q13.764570337235108,21.28163767354126,13.809144597235107,21.17242427354126Q13.853718877235107,21.06321117354126,13.908626317235107,20.95895787354126Q13.963533757235107,20.85470477354126,14.028245537235108,20.75641547354126Q14.092957377235107,20.658126293541258,14.166850387235108,20.56674760354126Q14.240743337235108,20.47536891354126,14.323105807235107,20.39178073354126Q14.405468347235107,20.30819261354126,14.495507237235108,20.23320007354126Q14.585546077235108,20.15820747354126,14.682394047235107,20.09253266354126Q14.779242147235108,20.02685791354126,14.881966747235108,19.97113341354126Q14.984691347235108,19.91540891354126,15.092303047235108,19.87017132354126Q15.199914947235108,19.82493376354126,15.311377547235107,19.79061878354126Q15.422840347235107,19.75630380254126,15.537080247235107,19.73324188554126Q15.651320447235108,19.71017997554126,15.767237947235108,19.69859322454126Q15.883155347235107,19.68700647354126,15.999633347235108,19.68700647354126Q16.11611174723511,19.68700647354126,16.232028947235108,19.69859322454126Q16.347946147235106,19.71017997554126,16.46218584723511,19.73324188554126Q16.576426047235106,19.75630380254126,16.687888647235106,19.79061878354126Q16.79935124723511,19.82493376354126,16.906962847235107,19.87017132354126Q17.01457504723511,19.91540891354126,17.117299547235106,19.97113341354126Q17.220024147235108,20.02685791354126,17.316871847235106,20.09253269354126Q17.413720147235107,20.15820747354126,17.503759147235108,20.23320007354126Q17.593797947235107,20.30819261354126,17.676160347235108,20.39178073354126Q17.758522947235107,20.47536891354126,17.832416047235107,20.56674760354126Q17.906309147235106,20.658126293541258,17.97102074723511,20.75641547354126Q18.03573274723511,20.85470477354126,18.090640047235105,20.95895787354126Q18.14554734723511,21.06321117354126,18.19012164723511,21.17242427354126Q18.234696347235108,21.28163767354126,18.268508447235106,21.39475897354126Q18.302320047235106,21.50788037354126,18.325043647235105,21.62382027354126Q18.347767847235108,21.73976067354126,18.35918474723511,21.85740277354126Q18.370601147235107,21.97504517354126,18.370601147235107,22.09325647354126Z" fill="#FFFFFF" fill-opacity="1"/><path d="M19.876149464385986,14.337632121307372C18.754941464385986,13.781485411307372,17.564681564385985,13.499518871307373,16.338305464385986,13.499518871307373C15.111929864385987,13.499518871307373,13.921647564385985,13.781485411307372,12.800483264385987,14.337632121307372C11.718155364385986,14.874453471307373,10.746371964385986,15.642719771307373,9.912083894385987,16.62103777130737C9.448113984385987,17.165134671307374,9.448113984385987,18.047336571307373,9.912083894385987,18.591407771307374C10.376053814385987,19.13555617130737,11.128336764385987,19.13555617130737,11.592306864385986,18.591407771307374C12.209119364385986,17.868097771307372,12.927006764385986,17.300361371307375,13.726094264385987,16.904050871307373C14.552828264385987,16.493980371307373,15.431677864385986,16.286073171307372,16.338305464385986,16.286073171307372C17.244933164385987,16.286073171307372,18.123783564385988,16.493980371307373,18.950517164385985,16.904050871307373C19.749582464385988,17.300361371307375,20.467513464385988,17.868097771307372,21.084348464385986,18.591433571307373C21.316344464385985,18.863494871307374,21.620397464385988,18.99951267130737,21.924427464385985,18.99951267130737C22.228478464385987,18.999487371307374,22.532553464385984,18.863443871307375,22.764527464385985,18.591407771307374C23.228498464385986,18.047285571307373,23.228475464385987,17.16510917130737,22.764505464385987,16.62101197130737C21.930239464385984,15.642694271307374,20.958456464385986,14.874428071307372,19.876171464385987,14.337632121307372L19.876149464385986,14.337632121307372Z" fill-rule="evenodd" fill="#FFFFFF" fill-opacity="1"/><path d="M26.147292481536866,12.15671061539917C24.829730481536867,10.85359811539917,23.295087481536864,9.83036411539917,21.585998481536866,9.11540341539917C19.815918481536865,8.37496751539917,17.936349481536865,7.99953031539917,15.999537481536866,7.99953031539917C14.062679781536865,7.99953031539917,12.183133581536865,8.37496751539917,10.413075881536866,9.11540341539917C8.703987081536866,9.83038581539917,7.169343681536866,10.85359811539917,5.851759911536865,12.15668871539917C5.382143331536866,12.62114711539917,5.382143331536866,13.37422231539917,5.851759911536865,13.83868121539917C6.0865792615368655,14.07092141539917,6.394354041536865,14.18703031539917,6.702084781536865,14.18703031539917C7.009837481536865,14.18703031539917,7.3175904815368655,14.07092141539917,7.552409681536865,13.83868121539917C8.649871081536865,12.75323011539917,9.927572681536866,11.90119601539917,11.349973681536866,11.30618001539917C12.821951381536866,10.69041781539917,14.386318681536865,10.378221715399171,15.999537481536866,10.378221715399171C17.612754481536864,10.378221715399171,19.177078481536867,10.69041781539917,20.649100481536863,11.30618001539917C22.071523481536865,11.901217915399169,23.349181481536863,12.75325201539917,24.446664481536864,13.83865931539917C24.916303481536865,14.30314011539917,25.677697481536864,14.30314011539917,26.147336481536865,13.83865931539917C26.616952481536867,13.37424421539917,26.616952481536867,12.62119101539917,26.147336481536865,12.15671061539917L26.147292481536866,12.15671061539917Z" fill-rule="evenodd" fill="#FFFFFF" fill-opacity="1"/></svg>