<svg xmlns="http://www.w3.org/2000/svg" xmlns:xlink="http://www.w3.org/1999/xlink" fill="none" version="1.1" width="24" height="24" viewBox="0 0 24 24.000579833984375"><path d="M22.504463584716795,9.000178325634765L22.874769584716798,9.000178325634765C23.498191584716796,9.000178325634765,23.999744584716797,8.498626725634766,23.999744584716797,7.875202225634766L23.999744584716797,1.1253460256347656C23.999744584716797,0.6706682456347656,23.727876584716796,0.2581770456347656,23.306009584716797,0.08474319463476562C22.884143584716796,-0.08869064636523437,22.401340584716795,0.009744825734765625,22.077909584716796,0.32848805563476563L19.654523584716795,2.7565613256347654C17.578006584716796,1.0362855256347656,14.906187584716797,0.000370025634765625,11.999999584716797,0.000370025634765625C5.953253784716797,0.000370025634765625,0.9517977847167969,4.472149825634766,0.12212798471679688,10.289213025634766C0.004942984816796875,11.109508025634765,0.5721184047167969,11.868867025634765,1.3924134847167968,11.986052025634766C2.212708484716797,12.103238025634766,2.9720673847167967,11.531374025634765,3.089252484716797,10.715766025634766C3.712676284716797,6.351797125634766,7.467284184716797,3.000306125634766,11.999999584716797,3.000306125634766C14.081205584716797,3.000306125634766,15.993665584716798,3.7034161256347655,17.517070584716798,4.889328525634766L15.328054584716797,7.078344325634766C15.004623584716796,7.401774425634765,14.910875584716797,7.884576825634766,15.084308584716798,8.306443225634766C15.257741584716797,8.728308725634765,15.670233584716797,9.000178325634765,16.124912584716796,9.000178325634765L22.504463584716795,9.000178325634765ZM23.882558584716797,13.711016025634766C23.999744584716797,12.890720025634765,23.427881584716797,12.131361025634765,22.612274584716797,12.014176025634766C21.796667584716797,11.896991025634765,21.032619584716798,12.468855025634765,20.915433584716798,13.284462025634765C20.292011584716796,17.643743025634766,16.537403584716795,20.995235025634766,12.004686584716797,20.995235025634766C9.923480984716797,20.995235025634766,8.011021584716797,20.292126025634765,6.487616584716797,19.106213025634766L8.671945584716797,16.921885025634765C8.995376584716796,16.598453025634765,9.089124684716797,16.115652025634766,8.915690384716797,15.693786025634765C8.742257084716798,15.271919025634766,8.329765284716796,15.000051025634766,7.875087784716797,15.000051025634766L1.1252315847167969,15.000051025634766C0.5018073947167969,15.000051025634766,0.000255584716796875,15.501603025634765,0.000255584716796875,16.125027025634765L0.000255584716796875,22.874884025634767C0.000255584716796875,23.329561025634767,0.27212479471679685,23.742052025634766,0.6939908247167969,23.915485025634766C1.1158567847167968,24.088921025634765,1.5986588847167968,23.990484025634764,1.922089684716797,23.671741025634766L4.350162984716797,21.243668025634765C6.421993684716797,22.963943025634766,9.093811984716798,23.999859025634766,11.999999584716797,23.999859025634766C18.046745584716795,23.999859025634766,23.048202584716798,19.528080025634765,23.877872584716798,13.711016025634766L23.882558584716797,13.711016025634766Z" fill="#FF6100" fill-opacity="1" style="mix-blend-mode:passthrough"/></svg>