<svg xmlns="http://www.w3.org/2000/svg" xmlns:xlink="http://www.w3.org/1999/xlink" fill="none" version="1.1" width="534" height="132" viewBox="0 0 534 132"><path d="M0,46.5L107,46.5L107,48.5L0,48.5L0,46.5ZM427,83.5L525,83.5L525,85.5L427,85.5L427,83.5ZM534,84.5L523.9541,90.300003L523.9541,78.699997L534,84.5Z" fill="#FF6700" fill-opacity="1"/><g><path d="M169.419998,15.6199999C170.48,17.04,171.560001,18.98,172,20.280001L173.439999,19.619999999999997C172.98,18.360001,171.880001,16.4800005,170.779999,15.0799999L169.419998,15.6199999ZM183.020004,14.899999600000001C182.440002,16.4400005,181.32,18.560000000000002,180.459999,19.900001L181.760002,20.400001C182.66000400000001,19.119999999999997,183.779999,17.1400003,184.639999,15.4400005L183.020004,14.899999600000001ZM169.299999,30.24L169.299999,31.74L182.800003,31.74L182.800003,32.620001L184.379997,32.620001L184.379997,21.280001L177.799999,21.280001L177.799999,14.2000008L176.16,14.2000008L176.16,21.280001L169.700001,21.280001L169.700001,22.78L182.800003,22.78L182.800003,25.68L170.360001,25.68L170.360001,27.120001L182.800003,27.120001L182.800003,30.24L169.299999,30.24ZM189.300003,15.2800007C190.300003,16.3400002,191.54000100000002,17.780000700000002,192.099998,18.7L193.239998,17.7400007C192.66000400000001,16.8400002,191.400002,15.4400005,190.400002,14.4400005L189.300003,15.2800007ZM187.91999800000002,20.42L187.91999800000002,21.880000000000003L191.099998,21.880000000000003L191.099998,29.299999C191.099998,30.280001,190.480003,30.98,190.120003,31.280001C190.360001,31.52,190.779999,32.059999000000005,190.95999899999998,32.379999C191.239998,32,191.739998,31.6,194.879997,29.32C194.739998,29.02,194.54000100000002,28.440001,194.440002,28.040001L192.559998,29.34L192.559998,20.42L187.91999800000002,20.42ZM198.779999,14.4799995C199.18,15.2000008,199.58000199999998,16.1000004,199.800003,16.8200006L194.199997,16.8200006L194.199997,18.22L198.519997,18.22C197.739998,19.34,196.45999899999998,21.08,196.019997,21.5C195.66000400000001,21.860001,195.04000100000002,22.02,194.620003,22.119999999999997C194.760002,22.46,195.04000100000002,23.200001,195.120003,23.58C195.519997,23.42,196.139999,23.32,200.220001,23.04C198.599998,24.68,196.5,26.119999,194.260002,27.08C194.519997,27.360001,194.940002,27.92,195.120003,28.26C198.940002,26.52,202.199997,23.58,204.059998,20.360001L202.599998,19.860001C202.279999,20.48,201.879997,21.08,201.41999800000002,21.68L197.58000199999998,21.900001C198.400002,20.820000999999998,199.479996,19.34,200.239998,18.22L205.860001,18.22L205.860001,16.8200006L201.440002,16.8200006C201.260002,16.0799999,200.779999,14.9400005,200.239998,14.100000399999999L198.779999,14.4799995ZM204.220001,23.380000000000003C202.260002,26.780001,198.16000400000001,29.799999,193.440002,31.4C193.720001,31.719999,194.139999,32.299999,194.33999599999999,32.68C196.800003,31.780001,199.059998,30.540001,201,29.059999C202.379997,30.18,203.940002,31.52,204.760002,32.379999L205.91999800000002,31.4C205.04000100000002,30.540001,203.45999899999998,29.24,202.08000199999998,28.18C203.54000100000002,26.92,204.800003,25.5,205.760002,23.98L204.220001,23.380000000000003ZM214.599998,15.46L214.599998,16.8800001L224.68,16.8800001L224.68,15.46L214.599998,15.46ZM208.360001,16.2400007C209.54000100000002,17.0600004,211.120003,18.22,211.900002,18.92L212.940002,17.8400002C212.120003,17.1400003,210.5,16.04,209.360001,15.2800007L208.360001,16.2400007ZM214.5,28.620001C215.099998,28.360001,215.979996,28.280001,223.5,27.620001L224.28,29.139999L225.62,28.440001C224.84,26.92,223.24,24.299999,222,22.360001L220.76,22.940001000000002C221.4,23.96,222.12,25.18,222.78,26.32L216.18,26.82C217.24,25.280001,218.3,23.32,219.12,21.440001000000002L226.1,21.440001000000002L226.1,20.02L213.279999,20.02L213.279999,21.440001000000002L217.32,21.440001000000002C216.559998,23.46,215.440002,25.4,215.08000199999998,25.940001C214.66000400000001,26.58,214.33999599999999,27.040001,213.980003,27.1C214.16000400000001,27.52,214.41999800000002,28.299999,214.5,28.620001ZM212.04000100000002,21.2L207.83999599999999,21.2L207.83999599999999,22.6L210.58000199999998,22.6L210.58000199999998,28.98C209.720001,29.360001,208.720001,30.24,207.739998,31.299999L208.800003,32.68C209.779999,31.360001,210.779999,30.16,211.440002,30.16C211.900002,30.16,212.599998,30.82,213.400002,31.32C214.82,32.18,216.479996,32.42,218.94,32.42C221.1,32.42,224.51999999999998,32.32,225.88,32.219999C225.9,31.780001,226.14,31,226.34,30.58C224.28,30.799999,221.26,30.959999,218.98000000000002,30.959999C216.760002,30.959999,215.059998,30.82,213.720001,29.98C212.940002,29.5,212.45999899999998,29.1,212.04000100000002,28.9L212.04000100000002,21.2ZM231.42000000000002,22.259999999999998L236.18,22.259999999999998L236.18,24.42L231.42000000000002,24.42L231.42000000000002,22.259999999999998ZM237.72,22.259999999999998L242.7,22.259999999999998L242.7,24.42L237.72,24.42L237.72,22.259999999999998ZM231.42000000000002,18.940001000000002L236.18,18.940001000000002L236.18,21.060000000000002L231.42000000000002,21.060000000000002L231.42000000000002,18.940001000000002ZM237.72,18.940001000000002L242.7,18.940001000000002L242.7,21.060000000000002L237.72,21.060000000000002L237.72,18.940001000000002ZM241.18,14.2800007C240.72,15.3000002,239.9,16.700000799999998,239.18,17.6599998L234.32,17.6599998L235.14,17.2600002C234.74,16.4200001,233.8,15.1800003,232.98000000000002,14.2800007L231.72,14.880001100000001C232.44,15.720000299999999,233.22,16.8600006,233.66,17.6599998L229.95999999999998,17.6599998L229.95999999999998,25.700001L236.18,25.700001L236.18,27.6L228.07999999999998,27.6L228.07999999999998,29L236.18,29L236.18,32.58L237.72,32.58L237.72,29L245.98,29L245.98,27.6L237.72,27.6L237.72,25.700001L244.22,25.700001L244.22,17.6599998L240.86,17.6599998C241.5,16.8200006,242.2,15.7800007,242.8,14.8199997L241.18,14.2800007ZM252.2,16.3600006L261.72,16.3600006L261.72,19.08L252.2,19.08L252.2,16.3600006ZM250.7,15.0200005L250.7,20.400001L263.3,20.400001L263.3,15.0200005L250.7,15.0200005ZM248.25999,22.2L248.25999,23.58L252.38,23.58C251.98,24.82,251.48,26.200001,251.06,27.18L261.53999,27.18C261.15999999999997,29.5,260.75999,30.620001,260.25999,31.02C260.02,31.18,259.78,31.200001,259.3,31.200001C258.74001,31.200001,257.28,31.18,255.88,31.040001C256.15999999999997,31.459999,256.36,32.040001000000004,256.39999,32.480000000000004C257.78,32.559999000000005,259.10001,32.58,259.78,32.540001000000004C260.56,32.519999999999996,261.03999,32.4,261.52,32C262.25999,31.360001,262.75999,29.860001,263.24001,26.5C263.28,26.280001,263.32001,25.82,263.32001,25.82L253.3,25.82L254.03999,23.58L265.65999999999997,23.58L265.65999999999997,22.2L248.25999,22.2ZM269.28,15.54L269.28,17.020000500000002L275.91999999999996,17.020000500000002C275.86,18.440001000000002,275.8,19.96,275.56,21.46L268.03999,21.46L268.03999,22.92L275.28,22.92C274.46001,26.360001,272.52,29.58,267.78,31.379999C268.15999999999997,31.68,268.60001,32.219999,268.8,32.6C273.96001,30.540001,275.96001,26.84,276.8,22.92L277.22,22.92L277.22,29.799999C277.22,31.620001,277.78,32.139999,279.86,32.139999C280.28,32.139999,283.14,32.139999,283.60001,32.139999C285.52,32.139999,286,31.299999,286.2,28.1C285.75999,28,285.10001,27.74,284.74001,27.459999C284.64,30.200001,284.48,30.66,283.5,30.66C282.88,30.66,280.48,30.66,280,30.66C278.98,30.66,278.78,30.52,278.78,29.799999L278.78,22.92L286.02,22.92L286.02,21.46L277.06,21.46C277.28,19.96,277.38,18.46,277.41999999999996,17.020000500000002L284.88,17.020000500000002L284.88,15.54L269.28,15.54ZM290.17999,20.2L290.17999,26.42L296.17999,26.42L296.17999,27.799999L289.53999,27.799999L289.53999,29L296.17999,29L296.17999,30.74L288.03999,30.74L288.03999,31.959999L305.98,31.959999L305.98,30.74L297.67999,30.74L297.67999,29L304.72,29L304.72,27.799999L297.67999,27.799999L297.67999,26.42L303.95999,26.42L303.95999,20.2L297.67999,20.2L297.67999,18.98L305.88,18.98L305.88,17.7400007L297.67999,17.7400007L297.67999,16.200000799999998C300.02,16.020000500000002,302.22,15.7800007,303.94,15.4800005L303.14,14.3199997C299.98,14.880001100000001,294.32001,15.2600002,289.65999999999997,15.3800001C289.8,15.6800003,289.96001,16.220000300000002,289.98,16.5600004C291.94,16.520000500000002,294.08000000000004,16.4400005,296.17999,16.3200006L296.17999,17.7400007L288.15999999999997,17.7400007L288.15999999999997,18.98L296.17999,18.98L296.17999,20.2L290.17999,20.2ZM291.64,23.8L296.17999,23.8L296.17999,25.32L291.64,25.32L291.64,23.8ZM297.67999,23.8L302.44,23.8L302.44,25.32L297.67999,25.32L297.67999,23.8ZM291.64,21.280001L296.17999,21.280001L296.17999,22.78L291.64,22.78L291.64,21.280001ZM297.67999,21.280001L302.44,21.280001L302.44,22.78L297.67999,22.78L297.67999,21.280001ZM312,17.700000799999998L321.94,17.700000799999998L321.94,18.8L312,18.8L312,17.700000799999998ZM312,15.7400007L321.94,15.7400007L321.94,16.8200006L312,16.8200006L312,15.7400007ZM310.53999,14.8400002L310.53999,19.7L323.44,19.7L323.44,14.8400002L310.53999,14.8400002ZM308.03999,20.560000000000002L308.03999,21.7L325.98,21.7L325.98,20.560000000000002L308.03999,20.560000000000002ZM311.60001,25.540001L316.24001,25.540001L316.24001,26.700001L311.60001,26.700001L311.60001,25.540001ZM317.7,25.540001L322.53999,25.540001L322.53999,26.700001L317.7,26.700001L317.7,25.540001ZM311.60001,23.54L316.24001,23.54L316.24001,24.66L311.60001,24.66L311.60001,23.54ZM317.7,23.54L322.53999,23.54L322.53999,24.66L317.7,24.66L317.7,23.54ZM307.94,30.940001L307.94,32.1L326.10001,32.1L326.10001,30.940001L317.7,30.940001L317.7,29.780001L324.45999,29.780001L324.45999,28.719999L317.7,28.719999L317.7,27.620001L324.02,27.620001L324.02,22.6L310.17999,22.6L310.17999,27.620001L316.24001,27.620001L316.24001,28.719999L309.62,28.719999L309.62,29.780001L316.24001,29.780001L316.24001,30.940001L307.94,30.940001ZM336.48,21.96C337.53999,23.5,338.89999,25.619999,339.53999,26.84L340.86,26.08C340.17999,24.860001,338.8,22.820000999999998,337.72,21.3L336.48,21.96ZM333.48,22.96L333.48,27.52L330.06,27.52L330.06,22.96L333.48,22.96ZM333.48,21.619999999999997L330.06,21.619999999999997L330.06,17.2400007L333.48,17.2400007L333.48,21.619999999999997ZM328.62,15.8800001L328.62,30.5L330.06,30.5L330.06,28.880001L334.88,28.880001L334.88,15.8800001L328.62,15.8800001ZM342.28,14.3000011L342.28,18.200001L335.8,18.200001L335.8,19.68L342.28,19.68L342.28,30.34C342.28,30.74,342.12,30.879999,341.72,30.879999C341.28,30.92,339.8,30.92,338.24001,30.860001C338.46001,31.299999,338.7,31.98,338.8,32.4C340.8,32.4,342.08000000000004,32.379999,342.8,32.120001C343.52,31.879999,343.8,31.440001,343.8,30.34L343.8,19.68L346.24001,19.68L346.24001,18.200001L343.8,18.200001L343.8,14.3000011L342.28,14.3000011ZM350.14,33.139999C352.24001,32.4,353.60001,30.76,353.60001,28.6C353.60001,27.200001,353,26.299999,351.89999,26.299999C351.08000000000004,26.299999,350.38,26.799999,350.38,27.74C350.38,28.68,351.06,29.16,351.88,29.16L352.22,29.120001C352.12,30.5,351.24001,31.440001,349.7,32.08L350.14,33.139999ZM121.7799997,51.779999L132.48,51.779999L132.48,54.720001L121.7799997,54.720001L121.7799997,51.779999ZM121.7799997,50.360001L121.7799997,47.380001L132.48,47.380001L132.48,50.360001L121.7799997,50.360001ZM121.7799997,56.119999L132.48,56.119999L132.48,59.080002L121.7799997,59.080002L121.7799997,56.119999ZM126.0999994,43.16C125.9399996,43.959999,125.6199999,45.060001,125.3199997,45.940002L120.26,45.940002L120.26,61.619999L121.7799997,61.619999L121.7799997,60.5L132.48,60.5L132.48,61.52L134.059999,61.52L134.059999,45.940002L126.8400002,45.940002C127.179999,45.18,127.52,44.260002,127.84,43.400002L126.0999994,43.16ZM138.780001,44.84L138.780001,46.18L146.52,46.18L146.52,44.84L138.780001,44.84ZM150.059998,43.540001C150.059998,44.959999,150.059998,46.400002,150,47.82L147.139999,47.82L147.139999,49.260002L149.939999,49.260002C149.700001,53.82,148.9,58,146.16,60.5C146.559999,60.720001,147.07999999999998,61.220001,147.34,61.580002C150.279999,58.779999,151.139999,54.220001,151.419998,49.260002L154.400002,49.260002C154.18,56.360001,153.919998,59.02,153.379997,59.619999C153.18,59.860001,152.959999,59.919998,152.599998,59.919998C152.18,59.919998,151.119999,59.919998,150,59.799999C150.259998,60.240002,150.419998,60.860001,150.459999,61.279999C151.52,61.360001,152.619999,61.360001,153.239998,61.299999C153.879997,61.240002,154.279999,61.060001,154.68,60.540001C155.379997,59.66,155.619999,56.82,155.900002,48.580002C155.900002,48.360001,155.900002,47.82,155.900002,47.82L151.48,47.82C151.52,46.400002,151.540001,44.959999,151.540001,43.540001L150.059998,43.540001ZM138.780001,59.119999L138.799999,59.099998L138.799999,59.139999C139.26,58.860001,139.98,58.639999,145.540001,57.380001L145.92000000000002,58.720001L147.24,58.279999C146.860001,56.880001,145.959999,54.5,145.200001,52.700001L143.959999,53.040001C144.360001,53.98,144.76,55.080002,145.119999,56.119999L140.360001,57.119999C141.139999,55.32,141.9,53.080002,142.4,50.98L146.880001,50.98L146.880001,49.599998L138.07999999999998,49.599998L138.07999999999998,50.98L140.860001,50.98C140.34,53.32,139.5,55.68,139.219999,56.34C138.879999,57.099998,138.620001,57.639999,138.299999,57.740002C138.48,58.099998,138.700001,58.82,138.780001,59.119999ZM165.419998,55.619999C166.459999,56.700001,167.580002,58.220001,168.040001,59.240002L169.34,58.48C168.84,57.459999,167.700001,56,166.639999,54.959999L165.419998,55.619999ZM172.099998,50.5L172.099998,52.98L164,52.98L164,54.380001L172.099998,54.380001L172.099998,59.799999C172.099998,60.080002,172,60.16,171.68,60.18C171.34,60.200001,170.200001,60.200001,169,60.16C169.200001,60.580002,169.419998,61.18,169.48,61.580002C171.059998,61.580002,172.119999,61.560001,172.739998,61.34C173.400002,61.099998,173.580002,60.68,173.580002,59.82L173.580002,54.380001L176,54.380001L176,52.98L173.580002,52.98L173.580002,50.5L172.099998,50.5ZM157.880001,46.720001C158.900002,47.740002,160.060001,49.16,160.560001,50.119999L161.599998,49.239998L161.599998,52.700001C160.18,54,158.740002,55.240002,157.779999,56.02L158.599998,57.279999C159.52,56.459999,160.560001,55.48,161.599998,54.48L161.599998,61.580002L163.060001,61.580002L163.060001,43.200001L161.599998,43.200001L161.599998,49.040001C161.040001,48.119999,159.900002,46.84,158.919998,45.900002L157.880001,46.720001ZM167.099998,47.799999C167.779999,48.360001,168.5,49.139999,168.939999,49.760002C167.459999,50.48,165.799999,51,164.18,51.32C164.459999,51.619999,164.759998,52.16,164.919998,52.52C169.32,51.52,173.739998,49.32,175.639999,45.260002L174.66,44.740002L174.400002,44.799999L170.080002,44.799999C170.439999,44.419998,170.779999,44.040001,171.059998,43.639999L169.540001,43.200001C168.439999,44.799999,166.32,46.440002,164.02,47.400002C164.32,47.639999,164.799999,48.099998,165,48.380001C166.32,47.760002,167.599998,46.959999,168.720001,46.040001L173.540001,46.040001C172.720001,47.260002,171.540001,48.279999,170.16,49.099998C169.700001,48.459999,168.900002,47.700001,168.200001,47.139999L167.099998,47.799999ZM179.759998,44.68C180.779999,46.260002,181.779999,48.360001,182.120003,49.68L183.58000199999998,49.119999C183.199997,47.760002,182.139999,45.720001,181.120003,44.18L179.759998,44.68ZM192.900002,43.959999C192.33999599999999,45.540001,191.239998,47.760002,190.379997,49.119999L191.66000400000001,49.619999C192.54000100000002,48.32,193.61999500000002,46.260002,194.45999899999998,44.52L192.900002,43.959999ZM186.18,43.200001L186.18,50.84L178.099998,50.84L178.099998,52.260002L183.440002,52.260002C183.120003,56.060001,182.360001,58.900002,177.68,60.32C178.02,60.619999,178.459999,61.220001,178.619999,61.599998C183.66000400000001,59.939999,184.66000400000001,56.66,185.019997,52.260002L188.739998,52.260002L188.739998,59.360001C188.739998,61.080002,189.220001,61.560001,191.019997,61.560001C191.379997,61.560001,193.520004,61.560001,193.91999800000002,61.560001C195.61999500000002,61.560001,196.020004,60.700001,196.199997,57.419998C195.779999,57.299999,195.139999,57.040001,194.800003,56.779999C194.720001,59.66,194.599998,60.139999,193.800003,60.139999C193.32,60.139999,191.559998,60.139999,191.18,60.139999C190.400002,60.139999,190.239998,60.02,190.239998,59.360001L190.239998,52.260002L195.95999899999998,52.260002L195.95999899999998,50.84L187.699997,50.84L187.699997,43.200001L186.18,43.200001ZM206.32,44.720001L206.32,46.139999L215.04000100000002,46.139999L215.04000100000002,44.720001L206.32,44.720001ZM212.58000199999998,53.5C213.520004,55.5,214.45999899999998,58.099998,214.760002,59.68L216.139999,59.18C215.800003,57.599998,214.83999599999999,55.060001,213.860001,53.099998L212.58000199999998,53.5ZM206.82,53.16C206.300003,55.279999,205.400002,57.419998,204.279999,58.860001C204.620003,59.02,205.220001,59.439999,205.5,59.639999C206.58000199999998,58.119999,207.58000199999998,55.779999,208.199997,53.459999L206.82,53.16ZM205.440002,49.5L205.440002,50.919998L209.720001,50.919998L209.720001,59.639999C209.720001,59.900002,209.639999,59.98,209.33999599999999,60C209.08000199999998,60,208.139999,60.02,207.099998,59.98C207.300003,60.439999,207.519997,61.080002,207.58000199999998,61.52C208.979996,61.52,209.900002,61.48,210.479996,61.240002C211.059998,60.98,211.239998,60.52,211.239998,59.66L211.239998,50.919998L216.11999500000002,50.919998L216.11999500000002,49.5L205.440002,49.5ZM201.04000100000002,43.200001L201.04000100000002,47.440002L197.980003,47.440002L197.980003,48.84L200.720001,48.84C200.059998,51.32,198.760002,54.200001,197.480003,55.700001C197.760002,56.080002,198.16000400000001,56.700001,198.32,57.099998C199.32,55.82,200.300003,53.720001,201.04000100000002,51.560001L201.04000100000002,61.580002L202.54000100000002,61.580002L202.54000100000002,51.119999C203.220001,52.099998,204.019997,53.34,204.360001,53.98L205.239998,52.799999C204.83999599999999,52.240002,203.120003,50.040001,202.54000100000002,49.380001L202.54000100000002,48.84L205.16000400000001,48.84L205.16000400000001,47.440002L202.54000100000002,47.440002L202.54000100000002,43.200001L201.04000100000002,43.200001ZM221.48000000000002,52.439999C221.06,56.060001,219.95999999999998,58.919998,217.72,60.66C218.07999999999998,60.880001,218.7,61.380001,218.94,61.66C220.28,60.5,221.24,58.98,221.94,57.119999C223.78,60.580002,226.78,61.279999,230.95999999999998,61.279999L235.64,61.279999C235.7,60.84,235.98000000000002,60.119999,236.2,59.759998C235.22,59.779999,231.78,59.779999,231.04000000000002,59.779999C229.86,59.779999,228.76,59.720001,227.76,59.540001L227.76,55.5L233.72,55.5L233.72,54.099998L227.76,54.099998L227.76,50.82L232.9,50.82L232.9,49.360001L221.22,49.360001L221.22,50.82L226.2,50.82L226.2,59.119999C224.56,58.5,223.3,57.32,222.51999999999998,55.220001C222.72,54.400002,222.88,53.52,223,52.599998L221.48000000000002,52.439999ZM225.51999999999998,43.48C225.86,44.080002,226.22,44.84,226.44,45.459999L218.64,45.459999L218.64,49.82L220.12,49.82L220.12,46.880001L233.82,46.880001L233.82,49.82L235.36,49.82L235.36,45.459999L228.16,45.459999C227.95999999999998,44.799999,227.44,43.800003,227,43.059998L225.51999999999998,43.48ZM244.38,46.84L244.38,48.299999L255.28,48.299999L255.28,46.84L244.38,46.84ZM245.7,49.82C246.3,52.599998,246.89999,56.299999,247.06,58.400002L248.53999,57.959999C248.34,55.919998,247.72,52.32,247.06,49.5L245.7,49.82ZM248.39999,43.440002C248.78,44.440002,249.17999,45.760002,249.34,46.619999L250.84,46.18C250.64,45.32,250.2,44.060001,249.82001,43.059998L248.39999,43.440002ZM243.51999999999998,59.32L243.51999999999998,60.759998L256.10001,60.759998L256.10001,59.32L251.96001,59.32C252.7,56.639999,253.52,52.700001,254.06,49.619999L252.48,49.360001C252.12,52.360001,251.32001,56.619999,250.56,59.32L243.51999999999998,59.32ZM242.72,43.279999C241.6,46.32,239.72,49.32,237.76,51.260002C238.01999999999998,51.599998,238.45999999999998,52.380001,238.62,52.740002C239.3,52.040001,239.95999999999998,51.220001,240.6,50.32L240.6,61.560001L242.1,61.560001L242.1,47.98C242.88,46.619999,243.57999999999998,45.16,244.14,43.700001L242.72,43.279999ZM269.82001,44.919998L269.82001,57.040001L271.22,57.040001L271.22,44.919998L269.82001,44.919998ZM273.78,43.52L273.78,59.259998C273.78,59.599998,273.67999,59.700001,273.34000000000003,59.700001C273,59.720001,271.89999,59.720001,270.72,59.68C270.96001,60.080002,271.2,60.759998,271.28,61.18C272.74001,61.18,273.8,61.139999,274.41999999999996,60.880001C275.02,60.639999,275.24001,60.200001,275.24001,59.259998L275.24001,43.52L273.78,43.52ZM258.24001,59.16L258.58000000000004,60.599998C261.22,60.080002,265.02,59.360001,268.58000000000004,58.66L268.5,57.34L264.3,58.119999L264.3,54.98L268.3,54.98L268.3,53.639999L264.3,53.639999L264.3,51.5L262.88,51.5L262.88,53.639999L258.94,53.639999L258.94,54.98L262.88,54.98L262.88,58.360001L258.24001,59.16ZM259.38,51.220001C259.86,51,260.60001,50.919998,266.86,50.32C267.14,50.779999,267.38,51.200001,267.56,51.560001L268.7,50.799999C268.12,49.66,266.8,47.84,265.67999,46.5L264.58000000000004,47.139999C265.08000000000004,47.740002,265.60001,48.459999,266.08000000000004,49.139999L260.96001,49.580002C261.78,48.5,262.60001,47.16,263.28,45.84L268.7,45.84L268.7,44.52L258.41999999999996,44.52L258.41999999999996,45.84L261.60001,45.84C260.96001,47.260002,260.14,48.540001,259.84000000000003,48.919998C259.5,49.400002,259.2,49.739998,258.88,49.799999C259.06,50.200001,259.28,50.900002,259.38,51.220001ZM280.17999,49.200001L280.17999,55.419998L286.17999,55.419998L286.17999,56.799999L279.53999,56.799999L279.53999,58L286.17999,58L286.17999,59.740002L278.03999,59.740002L278.03999,60.959999L295.98,60.959999L295.98,59.740002L287.67999,59.740002L287.67999,58L294.72,58L294.72,56.799999L287.67999,56.799999L287.67999,55.419998L293.95999,55.419998L293.95999,49.200001L287.67999,49.200001L287.67999,47.98L295.88,47.98L295.88,46.740002L287.67999,46.740002L287.67999,45.200001C290.02,45.02,292.22,44.779999,293.94,44.48L293.14,43.32C289.98,43.880001,284.32001,44.260002,279.65999999999997,44.380001C279.8,44.68,279.96001,45.220001,279.98,45.560001C281.94,45.52,284.08000000000004,45.440002,286.17999,45.32L286.17999,46.740002L278.15999999999997,46.740002L278.15999999999997,47.98L286.17999,47.98L286.17999,49.200001L280.17999,49.200001ZM281.64,52.799999L286.17999,52.799999L286.17999,54.32L281.64,54.32L281.64,52.799999ZM287.67999,52.799999L292.44,52.799999L292.44,54.32L287.67999,54.32L287.67999,52.799999ZM281.64,50.279999L286.17999,50.279999L286.17999,51.779999L281.64,51.779999L281.64,50.279999ZM287.67999,50.279999L292.44,50.279999L292.44,51.779999L287.67999,51.779999L287.67999,50.279999ZM302,46.700001L311.94,46.700001L311.94,47.799999L302,47.799999L302,46.700001ZM302,44.740002L311.94,44.740002L311.94,45.82L302,45.82L302,44.740002ZM300.53999,43.84L300.53999,48.700001L313.44,48.700001L313.44,43.84L300.53999,43.84ZM298.03999,49.560001L298.03999,50.700001L315.98,50.700001L315.98,49.560001L298.03999,49.560001ZM301.60001,54.540001L306.24001,54.540001L306.24001,55.700001L301.60001,55.700001L301.60001,54.540001ZM307.7,54.540001L312.53999,54.540001L312.53999,55.700001L307.7,55.700001L307.7,54.540001ZM301.60001,52.540001L306.24001,52.540001L306.24001,53.66L301.60001,53.66L301.60001,52.540001ZM307.7,52.540001L312.53999,52.540001L312.53999,53.66L307.7,53.66L307.7,52.540001ZM297.94,59.939999L297.94,61.099998L316.10001,61.099998L316.10001,59.939999L307.7,59.939999L307.7,58.779999L314.45999,58.779999L314.45999,57.720001L307.7,57.720001L307.7,56.619999L314.02,56.619999L314.02,51.599998L300.17999,51.599998L300.17999,56.619999L306.24001,56.619999L306.24001,57.720001L299.62,57.720001L299.62,58.779999L306.24001,58.779999L306.24001,59.939999L297.94,59.939999ZM331.67999,51.060001L331.67999,58.299999L332.86,58.299999L332.86,51.060001L331.67999,51.060001ZM334.22,50.32L334.22,59.900002C334.22,60.119999,334.14,60.18,333.91999999999996,60.200001C333.65999999999997,60.200001,332.86,60.200001,331.94,60.18C332.14,60.540001,332.3,61.080002,332.34000000000003,61.419998C333.52,61.419998,334.32001,61.400002,334.8,61.200001C335.3,60.98,335.44,60.619999,335.44,59.900002L335.44,50.32L334.22,50.32ZM318.41999999999996,53.400002C318.58000000000004,53.240002,319.15999999999997,53.119999,319.8,53.119999L321.38,53.119999L321.38,55.880001C320.03999,56.200001,318.8,56.48,317.84000000000003,56.66L318.17999,58.080002L321.38,57.259998L321.38,61.580002L322.7,61.580002L322.7,56.919998L324.36,56.48L324.24001,55.220001L322.7,55.580002L322.7,53.119999L324.3,53.119999L324.3,51.739998L322.7,51.739998L322.7,48.700001L321.38,48.700001L321.38,51.739998L319.64,51.739998C320.15999999999997,50.34,320.65999999999997,48.68,321.06,46.959999L324.34000000000003,46.959999L324.34000000000003,45.599998L321.34000000000003,45.599998C321.5,44.880001,321.62,44.16,321.72,43.459999L320.32001,43.220001C320.24001,44,320.14,44.82,320,45.599998L317.94,45.599998L317.94,46.959999L319.74001,46.959999C319.38,48.619999,319,49.98,318.82001,50.5C318.53999,51.400002,318.3,52.040001,317.96001,52.139999C318.12,52.48,318.34000000000003,53.119999,318.41999999999996,53.400002ZM330.17999,43.139999C328.86,45.240002,326.38,47.220001,323.96001,48.34C324.32001,48.639999,324.72,49.099998,324.94,49.459999C325.48,49.18,326.02,48.860001,326.53999,48.52L326.53999,49.360001L333.94,49.360001L333.94,48.380001C334.44,48.68,334.98,48.98,335.52,49.260002C335.7,48.860001,336.12,48.380001,336.48,48.080002C334.38,47.18,332.48,46.040001,330.96001,44.34L331.39999,43.68L330.17999,43.139999ZM327.12,48.119999C328.24001,47.299999,329.3,46.34,330.17999,45.32C331.2,46.440002,332.3,47.34,333.52,48.119999L327.12,48.119999ZM329.28,51.880001L329.28,53.459999L326.53999,53.459999L326.53999,51.880001L329.28,51.880001ZM325.3,50.68L325.3,61.52L326.53999,61.52L326.53999,57.400002L329.28,57.400002L329.28,60.02C329.28,60.200001,329.24001,60.240002,329.08000000000004,60.259998C328.88,60.259998,328.36,60.259998,327.74001,60.240002C327.91999999999996,60.599998,328.08000000000004,61.139999,328.12,61.48C328.98,61.48,329.60001,61.48,330.02,61.259998C330.44,61.040001,330.53999,60.66,330.53999,60.02L330.53999,50.68L325.3,50.68ZM326.53999,54.619999L329.28,54.619999L329.28,56.259998L326.53999,56.259998L326.53999,54.619999ZM342.89999,44.900002C344.22,45.82,345.24001,46.940002,346.12,48.18C344.82001,53.880001,342.32001,57.939999,337.82001,60.259998C338.22,60.540001,338.91999999999996,61.16,339.2,61.459999C343.25999,59.099998,345.82001,55.419998,347.34000000000003,50.18C349.53999,54.220001,350.96001,58.84,355.53999,61.400002C355.62,60.919998,356.02,60.119999,356.28,59.700001C349.62,55.720001,350.22,48.200001,343.82001,43.620003L342.89999,44.900002ZM375.92001,44.380001L364.91999999999996,44.380001L364.91999999999996,60.619999L376.23999,60.619999L376.23999,59.259998L366.36,59.259998L366.36,45.760002L375.92001,45.760002L375.92001,44.380001ZM367.06,56L367.06,57.32L375.62,57.32L375.62,56L371.88,56L371.88,52.880001L375.04001,52.880001L375.04001,51.599998L371.88,51.599998L371.88,48.799999L375.45999,48.799999L375.45999,47.5L367.24001,47.5L367.24001,48.799999L370.48,48.799999L370.48,51.599998L367.58000000000004,51.599998L367.58000000000004,52.880001L370.48,52.880001L370.48,56L367.06,56ZM360.8,43.16L360.8,47.34L357.86,47.34L357.86,48.760002L360.67999,48.760002C360.06,51.400002,358.8,54.419998,357.53999,55.959999C357.78,56.34,358.14,56.98,358.28,57.400002C359.2,56.139999,360.12,54.080002,360.8,51.940002L360.8,61.540001L362.17999,61.540001L362.17999,51.080002C362.84000000000003,52,363.62,53.16,363.96001,53.760002L364.75999,52.459999C364.38,52,362.8,50.099998,362.17999,49.459999L362.17999,48.760002L364.39999,48.760002L364.39999,47.34L362.17999,47.34L362.17999,43.16L360.8,43.16ZM378.98001,46.619999L378.98001,61.639999L380.45999,61.639999L380.45999,48.099998L386.23999,48.099998C386.14001,50.739998,385.39999,54.040001,380.98001,56.419998C381.34,56.68,381.84,57.240002,382.06,57.560001C384.76001,55.98,386.20001,54.080002,386.95999,52.16C388.79999,53.860001,390.82001,55.939999,391.84,57.299999L393.07999,56.32C391.84,54.82,389.39999,52.48,387.42001,50.720001C387.62,49.82,387.72,48.940002,387.76001,48.099998L393.57999,48.099998L393.57999,59.599998C393.57999,59.959999,393.48001,60.080002,393.07999,60.099998C392.67999,60.099998,391.32001,60.119999,389.89999,60.060001C390.12,60.48,390.35999,61.16,390.42001,61.580002C392.22,61.580002,393.45999,61.580002,394.16,61.34C394.84,61.080002,395.06,60.599998,395.06,59.619999L395.06,46.619999L387.78,46.619999L387.78,43.200001L386.26001,43.200001L386.26001,46.619999L378.98001,46.619999ZM400.14001,62.139999C402.23999,61.400002,403.60001,59.759998,403.60001,57.599998C403.60001,56.200001,403,55.299999,401.89999,55.299999C401.07999,55.299999,400.38,55.799999,400.38,56.740002C400.38,57.68,401.06,58.16,401.88,58.16L402.22,58.119999C402.12,59.5,401.23999,60.439999,399.70001,61.080002L400.14001,62.139999ZM199.83999599999999,77.779999L199.83999599999999,82.120003L194.260002,82.120003L194.260002,81.620003L194.260002,77.779999L199.83999599999999,77.779999ZM201.08000199999998,72.139999C200.66000400000001,73.400002,199.900002,75.099998,199.220001,76.32L188.779999,76.32L188.779999,77.779999L192.699997,77.779999L192.699997,81.599998L192.699997,82.120003L188.04000100000002,82.120003L188.04000100000002,83.559998L192.58000199999998,83.559998C192.300003,85.760002,191.279999,87.919998,188.08000199999998,89.540001C188.41999800000002,89.800003,188.940002,90.379997,189.16000400000001,90.739998C192.82,88.860001,193.900002,86.239998,194.18,83.559998L199.83999599999999,83.559998L199.83999599999999,90.599998L201.400002,90.599998L201.400002,83.559998L205.979996,83.559998L205.979996,82.120003L201.400002,82.120003L201.400002,77.779999L205.360001,77.779999L205.360001,76.32L200.860001,76.32C201.5,75.220001,202.18,73.860001,202.779999,72.639999L201.08000199999998,72.139999ZM191.360001,72.739998C192.199997,73.839996,193.099998,75.339996,193.41999800000002,76.32L194.900002,75.660004C194.519997,74.68,193.599998,73.239998,192.739998,72.18L191.360001,72.739998ZM211.239998,73.360001L211.239998,88.260002L208.08000199999998,88.260002L208.08000199999998,89.720001L225.94,89.720001L225.94,88.260002L223,88.260002L223,73.360001L211.239998,73.360001ZM212.720001,88.260002L212.720001,84.720001L221.45999999999998,84.720001L221.45999999999998,88.260002L212.720001,88.260002ZM212.720001,79.699997L221.45999999999998,79.699997L221.45999999999998,83.279999L212.720001,83.279999L212.720001,79.699997ZM212.720001,78.279999L212.720001,74.82L221.45999999999998,74.82L221.45999999999998,78.279999L212.720001,78.279999ZM236.12,72.900002C236.84,73.879997,237.66,75.239998,238.01999999999998,76.099998L239.28,75.459999C238.9,74.599998,238.07999999999998,73.32,237.32,72.360001L236.12,72.900002ZM228.45999999999998,77.540001C228.45999999999998,79.440002,228.36,81.879997,228.24,83.400002L232.34,83.400002C232.12,87.080002,231.92000000000002,88.540001,231.56,88.900002C231.36,89.099998,231.18,89.120003,230.86,89.120003C230.48000000000002,89.120003,229.51999999999998,89.120003,228.51999999999998,89.019997C228.78,89.419998,228.95999999999998,90.040001,229,90.480003C229.95999999999998,90.519997,230.92000000000002,90.540001,231.44,90.5C232.04000000000002,90.440002,232.4,90.300003,232.74,89.900002C233.28,89.260002,233.54000000000002,87.480003,233.78,82.739998C233.8,82.519997,233.8,82.080002,233.8,82.080002L229.64,82.080002L229.74,78.919998L233.76,78.919998L233.76,73.139999L228.16,73.139999L228.16,74.5L232.32,74.5L232.32,77.540001L228.45999999999998,77.540001ZM236.62,80.739998L239.45999999999998,80.739998L239.45999999999998,82.639999L236.62,82.639999L236.62,80.739998ZM241,80.739998L243.9,80.739998L243.9,82.639999L241,82.639999L241,80.739998ZM236.62,77.68L239.45999999999998,77.68L239.45999999999998,79.559998L236.62,79.559998L236.62,77.68ZM241,77.68L243.9,77.68L243.9,79.559998L241,79.559998L241,77.68ZM234.07999999999998,85.519997L234.07999999999998,86.879997L239.45999999999998,86.879997L239.45999999999998,90.599998L241,90.599998L241,86.879997L246.2,86.879997L246.2,85.519997L241,85.519997L241,83.860001L245.36,83.860001L245.36,76.459999L242.4,76.459999C243.12,75.379997,243.94,73.980003,244.57999999999998,72.720001L243.07999999999998,72.260002C242.57999999999998,73.520004,241.64,75.300003,240.86,76.459999L235.24,76.459999L235.24,83.860001L239.45999999999998,83.860001L239.45999999999998,85.519997L234.07999999999998,85.519997ZM249.08,82.18L249.08,89.419998L263.28,89.419998L263.28,90.559998L264.89999,90.559998L264.89999,82.18L263.28,82.18L263.28,87.919998L257.78,87.919998L257.78,80.919998L264.10001,80.919998L264.10001,74L262.48,74L262.48,79.459999L257.78,79.459999L257.78,72.220001L256.14,72.220001L256.14,79.459999L251.56,79.459999L251.56,74.020004L250,74.020004L250,80.919998L256.14,80.919998L256.14,87.919998L250.74001,87.919998L250.74001,82.18L249.08,82.18ZM275.86,72.580002C275.5,73.360001,274.86,74.540001,274.36,75.239998L275.34000000000003,75.720001C275.86,75.059998,276.53999,74.059998,277.12,73.139999L275.86,72.580002ZM268.75999,73.139999C269.28,73.980003,269.82001,75.080002,270,75.779999L271.14,75.279999C270.96001,74.559998,270.41999999999996,73.480003,269.86,72.699997L268.75999,73.139999ZM275.2,83.800003C274.74001,84.839996,274.10001,85.720001,273.34000000000003,86.480003C272.58000000000004,86.099998,271.8,85.720001,271.06,85.400002C271.34000000000003,84.919998,271.65999999999997,84.379997,271.94,83.800003L275.2,83.800003ZM269.2,85.940002C270.17999,86.32,271.28,86.82,272.28,87.339996C271,88.260002,269.46001,88.900002,267.82001,89.279999C268.08000000000004,89.559998,268.39999,90.080002,268.53999,90.440002C270.38,89.940002,272.08000000000004,89.160004,273.52,88C274.17999,88.400002,274.78,88.779999,275.24001,89.120003L276.2,88.139999C275.74001,87.82,275.15999999999997,87.459999,274.5,87.099998C275.56,85.959999,276.39999,84.559998,276.89999,82.82L276.08000000000004,82.480003L275.84000000000003,82.540001L272.56,82.540001L273,81.5L271.65999999999997,81.260002C271.52,81.660004,271.32001,82.099998,271.12,82.540001L268.39999,82.540001L268.39999,83.800003L270.5,83.800003C270.08000000000004,84.599998,269.62,85.339996,269.2,85.940002ZM272.14,72.18L272.14,75.919998L268,75.919998L268,77.160004L271.67999,77.160004C270.72,78.459999,269.17999,79.699997,267.78,80.300003C268.08000000000004,80.580002,268.41999999999996,81.099998,268.60001,81.440002C269.82001,80.779999,271.14,79.660004,272.14,78.480003L272.14,80.919998L273.53999,80.919998L273.53999,78.199997C274.5,78.900002,275.72,79.839996,276.22,80.300003L277.06,79.220001C276.58000000000004,78.879997,274.82001,77.760002,273.84000000000003,77.160004L277.62,77.160004L277.62,75.919998L273.53999,75.919998L273.53999,72.18L272.14,72.18ZM279.58000000000004,72.360001C279.08000000000004,75.879997,278.17999,79.239998,276.62,81.339996C276.94,81.540001,277.52,82.019997,277.75999,82.260002C278.28,81.519997,278.72,80.639999,279.12,79.660004C279.56,81.620003,280.14,83.440002,280.88,85.019997C279.75999,86.919998,278.2,88.379997,276.02,89.440002C276.3,89.739998,276.72,90.339996,276.86,90.660004C278.89999,89.559998,280.44,88.18,281.62,86.419998C282.62,88.120003,283.86,89.480003,285.41999999999996,90.419998C285.65999999999997,90.040001,286.10001,89.519997,286.44,89.239998C284.75999,88.339996,283.44,86.879997,282.41999999999996,85.040001C283.48,82.980003,284.15999999999997,80.480003,284.60001,77.480003L285.95999,77.480003L285.95999,76.080002L280.25999,76.080002C280.53999,74.959999,280.78,73.779999,280.96001,72.580002L279.58000000000004,72.360001ZM283.17999,77.480003C282.86,79.779999,282.38,81.779999,281.65999999999997,83.480003C280.89999,81.68,280.34000000000003,79.639999,279.96001,77.480003L283.17999,77.480003ZM296.2,81.739998L296.2,83L288.38,83L288.38,84.440002L296.2,84.440002L296.2,88.720001C296.2,89,296.10001,89.099998,295.74001,89.120003C295.38,89.120003,294.08000000000004,89.120003,292.74001,89.080002C293,89.480003,293.28,90.160004,293.38,90.580002C295.08000000000004,90.580002,296.14,90.559998,296.84000000000003,90.339996C297.56,90.080002,297.78,89.639999,297.78,88.760002L297.78,84.440002L305.60001,84.440002L305.60001,83L297.78,83L297.78,82.260002C299.53999,81.32,301.34000000000003,79.959999,302.58000000000004,78.68L301.56,77.900002L301.22,77.980003L291.65999999999997,77.980003L291.65999999999997,79.400002L299.7,79.400002C298.67999,80.279999,297.38,81.160004,296.2,81.739998ZM295.48,72.520004C295.86,73.040001,296.24001,73.699997,296.5,74.279999L288.60001,74.279999L288.60001,78.419998L290.08000000000004,78.419998L290.08000000000004,75.720001L303.86,75.720001L303.86,78.419998L305.39999,78.419998L305.39999,74.279999L298.25999,74.279999C297.98,73.620003,297.46001,72.720001,296.94,72.059998L295.48,72.520004ZM308.02,82.080002L308.02,83.440002L310.3,83.440002L310.3,87.339996C310.3,88.279999,309.64,88.980003,309.3,89.239998C309.56,89.5,309.96001,90.040001,310.12,90.360001C310.39999,89.980003,310.88,89.620003,314,87.440002C313.84000000000003,87.199997,313.64,86.68,313.53999,86.300003L311.58000000000004,87.620003L311.58000000000004,83.440002L313.8,83.440002L313.8,82.080002L311.58000000000004,82.080002L311.58000000000004,79.360001L313.60001,79.360001L313.60001,78.040001L308.84000000000003,78.040001C309.32001,77.379997,309.75999,76.639999,310.15999999999997,75.82L313.67999,75.82L313.67999,74.440002L310.75999,74.440002C311.02,73.800003,311.25999,73.139999,311.44,72.479996L310.12,72.139999C309.58000000000004,74.160004,308.64,76.099998,307.52,77.400002C307.8,77.68,308.24001,78.32,308.39999,78.599998L308.78,78.120003L308.78,79.360001L310.3,79.360001L310.3,82.080002L308.02,82.080002ZM318.56,73.779999L318.56,74.879997L320.94,74.879997L320.94,76.480003L318.06,76.480003L318.06,77.639999L320.94,77.639999L320.94,79.260002L318.56,79.260002L318.56,80.379997L320.94,80.379997L320.94,81.900002L318.5,81.900002L318.5,83.080002L320.94,83.080002L320.94,84.720001L318,84.720001L318,85.900002L320.94,85.900002L320.94,88.360001L322.14,88.360001L322.14,85.900002L325.84000000000003,85.900002L325.84000000000003,84.720001L322.14,84.720001L322.14,83.080002L325.39999,83.080002L325.39999,81.900002L322.14,81.900002L322.14,80.379997L325.08000000000004,80.379997L325.08000000000004,77.639999L326.3,77.639999L326.3,76.480003L325.08000000000004,76.480003L325.08000000000004,73.779999L322.14,73.779999L322.14,72.260002L320.94,72.260002L320.94,73.779999L318.56,73.779999ZM322.14,77.639999L323.95999,77.639999L323.95999,79.260002L322.14,79.260002L322.14,77.639999ZM322.14,76.480003L322.14,74.879997L323.95999,74.879997L323.95999,76.480003L322.14,76.480003ZM314.34000000000003,80.839996C314.34000000000003,80.739998,314.48,80.620003,314.64,80.5L316.75999,80.5C316.60001,82.120003,316.34000000000003,83.540001,315.98,84.760002C315.67999,84.059998,315.39999,83.260002,315.17999,82.32L314.15999999999997,82.739998C314.52,84.139999,314.96001,85.300003,315.46001,86.239998C314.8,87.800003,313.89999,88.919998,312.78,89.639999C313.03999,89.919998,313.36,90.379997,313.53999,90.699997C314.65999999999997,89.919998,315.56,88.879997,316.25999,87.480003C318.03999,89.779999,320.46001,90.32,323.22,90.32L325.84000000000003,90.32C325.91999999999996,89.959999,326.10001,89.360001,326.3,89.019997C325.64,89.040001,323.78,89.040001,323.3,89.040001C320.78,89.040001,318.44,88.540001,316.8,86.220001C317.44,84.419998,317.86,82.160004,318.03999,79.300003L317.3,79.199997L317.08000000000004,79.220001L315.82001,79.220001C316.65999999999997,77.68,317.5,75.699997,318.17999,73.720001L317.34000000000003,73.160004L316.94,73.360001L314.06,73.360001L314.06,74.760002L316.46001,74.760002C315.88,76.480003,315.12,78.080002,314.84000000000003,78.559998C314.52,79.18,314.06,79.720001,313.72,79.800003C313.91999999999996,80.059998,314.22,80.580002,314.34000000000003,80.839996ZM334.8,80.480003C335.91999999999996,81.059998,337.32001,81.959999,338,82.599998L338.75999,81.639999C338.08000000000004,81,336.65999999999997,80.160004,335.56,79.620003L334.8,80.480003ZM336.28,72C336.14,72.479996,335.88,73.139999,335.62,73.699997L331.24001,73.699997L331.24001,77.220001L331.22,78L328.02,78L328.02,79.32L331.02,79.32C330.72,80.540001,330.02,81.779999,328.48,82.760002C328.8,82.959999,329.36,83.519997,329.58000000000004,83.82C331.41999999999996,82.620003,332.22,80.959999,332.53999,79.32L341.82001,79.32L341.82001,81.660004C341.82001,81.879997,341.74001,81.959999,341.46001,81.959999C341.2,81.980003,340.28,81.980003,339.32001,81.959999C339.53999,82.32,339.74001,82.860001,339.8,83.239998C341.15999999999997,83.239998,342.03999,83.239998,342.58000000000004,83.019997C343.14,82.800003,343.32001,82.400002,343.32001,81.68L343.32001,79.32L346.12,79.32L346.12,78L343.32001,78L343.32001,73.699997L337.24001,73.699997L337.89999,72.32L336.28,72ZM334.94,76.059998C336,76.580002,337.28,77.400002,337.89999,78L332.72,78L332.74001,77.239998L332.74001,74.940002L341.82001,74.940002L341.82001,78L337.94,78L338.7,77.080002C338.03999,76.459999,336.74001,75.68,335.67999,75.199997L334.94,76.059998ZM330.15999999999997,83.779999L330.15999999999997,88.699997L327.89999,88.699997L327.89999,90.040001L346.10001,90.040001L346.10001,88.699997L343.86,88.699997L343.86,83.779999L330.15999999999997,83.779999ZM331.56,88.699997L331.56,85L334.24001,85L334.24001,88.699997L331.56,88.699997ZM335.62,88.699997L335.62,85L338.3,85L338.3,88.699997L335.62,88.699997ZM339.7,88.699997L339.7,85L342.39999,85L342.39999,88.699997L339.7,88.699997ZM189.83999599999999,106.779999L189.83999599999999,111.12L184.260002,111.12L184.260002,110.62L184.260002,106.779999L189.83999599999999,106.779999ZM191.08000199999998,101.139999C190.66000400000001,102.400002,189.900002,104.099998,189.220001,105.32L178.779999,105.32L178.779999,106.779999L182.699997,106.779999L182.699997,110.6L182.699997,111.12L178.040001,111.12L178.040001,112.56L182.58000199999998,112.56C182.300003,114.76,181.279999,116.92,178.080002,118.54C178.419998,118.8,178.939999,119.38,179.16,119.74C182.82,117.86,183.900002,115.24,184.18,112.56L189.83999599999999,112.56L189.83999599999999,119.6L191.400002,119.6L191.400002,112.56L195.979996,112.56L195.979996,111.12L191.400002,111.12L191.400002,106.779999L195.360001,106.779999L195.360001,105.32L190.860001,105.32C191.5,104.220001,192.18,102.860001,192.779999,101.639999L191.08000199999998,101.139999ZM181.360001,101.739998C182.199997,102.839996,183.099998,104.339996,183.41999800000002,105.32L184.900002,104.660004C184.519997,103.68,183.599998,102.239998,182.739998,101.18L181.360001,101.739998ZM201.239998,102.360001L201.239998,117.26L198.08000199999998,117.26L198.08000199999998,118.72L215.940002,118.72L215.940002,117.26L213,117.26L213,102.360001L201.239998,102.360001ZM202.720001,117.26L202.720001,113.72L211.45999899999998,113.72L211.45999899999998,117.26L202.720001,117.26ZM202.720001,108.7L211.45999899999998,108.7L211.45999899999998,112.28L202.720001,112.28L202.720001,108.7ZM202.720001,107.279999L202.720001,103.82L211.45999899999998,103.82L211.45999899999998,107.279999L202.720001,107.279999ZM226.56,105.660004L233.24,105.660004L233.24,107.239998L226.56,107.239998L226.56,105.660004ZM226.56,103L233.24,103L233.24,104.580002L226.56,104.580002L226.56,103ZM225.18,101.860001L225.18,108.4L234.68,108.4L234.68,101.860001L225.18,101.860001ZM225.57999999999998,112.06C225.26,115.02,224.36,117.28,222.57999999999998,118.7C222.9,118.9,223.48000000000002,119.36,223.7,119.6C224.76,118.66,225.56,117.44,226.12,115.92C227.42000000000002,118.74,229.54000000000002,119.3,232.45999999999998,119.3L235.95999999999998,119.3C236.01999999999998,118.9,236.22,118.28,236.42000000000002,117.94C235.72,117.96,233.01999999999998,117.96,232.51999999999998,117.96C231.84,117.96,231.2,117.94,230.6,117.84L230.6,114.7L234.8,114.7L234.8,113.46L230.6,113.46L230.6,111.1L235.78,111.1L235.78,109.84L224.28,109.84L224.28,111.1L229.18,111.1L229.18,117.46C228.04000000000002,116.96,227.16,116.06,226.57999999999998,114.38C226.74,113.7,226.86,112.98,226.95999999999998,112.22L225.57999999999998,112.06ZM220.28,101.220001L220.28,105.239998L217.8,105.239998L217.8,106.639999L220.28,106.639999L220.28,111.04C219.26,111.36,218.32,111.62,217.57999999999998,111.82L217.95999999999998,113.3L220.28,112.54L220.28,117.72C220.28,118,220.18,118.08,219.94,118.08C219.7,118.1,218.92000000000002,118.1,218.06,118.08C218.24,118.48,218.44,119.1,218.48000000000002,119.46C219.74,119.48,220.51999999999998,119.42,221,119.18C221.5,118.96,221.68,118.54,221.68,117.72L221.68,112.08L223.9,111.34L223.7,109.98L221.68,110.6L221.68,106.639999L223.9,106.639999L223.9,105.239998L221.68,105.239998L221.68,101.220001L220.28,101.220001ZM241.68,110.98C240.82,113.24,239.34,115.46,237.7,116.88C238.07999999999998,117.08,238.76,117.52,239.07999999999998,117.78C240.66,116.24,242.24,113.86,243.22,111.4L241.68,110.98ZM250.67999,111.6C252.12,113.52,253.64,116.12,254.17999,117.8L255.67999,117.12C255.08,115.42,253.52,112.9,252.06,111.02L250.67999,111.6ZM239.98000000000002,102.68L239.98000000000002,104.160004L254.06,104.160004L254.06,102.68L239.98000000000002,102.68ZM238.2,107.540001L238.2,109.02L246.22,109.02L246.22,117.62C246.22,117.94,246.10001,118.02,245.74001,118.04C245.36,118.06,244.04000000000002,118.06,242.68,118C242.92000000000002,118.46,243.16,119.12,243.22,119.58C245,119.58,246.17999,119.56,246.88,119.32C247.60001,119.06,247.84,118.62,247.84,117.64L247.84,109.02L255.82001,109.02L255.82001,107.540001L238.2,107.540001ZM259.14,102.559998C260.17999,103.5,261.5,104.82,262.12,105.660004L263.14,104.599998C262.52,103.779999,261.15999999999997,102.540001,260.10001,101.639999L259.14,102.559998ZM257.84000000000003,107.480003L257.84000000000003,108.92L260.84000000000003,108.92L260.84000000000003,116.24C260.84000000000003,117.12,260.24001,117.72,259.88,117.96C260.14,118.26,260.53999,118.88,260.67999,119.24C260.96001,118.82,261.48,118.4,264.86,115.8C264.7,115.5,264.46001,114.92,264.36,114.52L262.28,116.08L262.28,107.480003L257.84000000000003,107.480003ZM266.88,113.76L273.15999999999997,113.76L273.15999999999997,115.4L266.88,115.4L266.88,113.76ZM266.88,112.7L266.88,111.16L273.15999999999997,111.16L273.15999999999997,112.7L266.88,112.7ZM269.28,101.199997L269.28,102.760002L264.64,102.760002L264.64,103.919998L269.28,103.919998L269.28,105.199997L265.14,105.199997L265.14,106.300003L269.28,106.300003L269.28,107.68L264.03999,107.68L264.03999,108.84L276.2,108.84L276.2,107.68L270.75999,107.68L270.75999,106.300003L274.98,106.300003L274.98,105.199997L270.75999,105.199997L270.75999,103.919998L275.58000000000004,103.919998L275.58000000000004,102.760002L270.75999,102.760002L270.75999,101.199997L269.28,101.199997ZM265.48,110L265.48,119.58L266.88,119.58L266.88,116.5L273.15999999999997,116.5L273.15999999999997,117.9C273.15999999999997,118.14,273.06,118.22,272.8,118.24C272.52,118.26,271.56,118.26,270.53999,118.22C270.74001,118.58,270.91999999999996,119.14,270.98,119.52C272.39999,119.52,273.32001,119.52,273.86,119.28C274.44,119.06,274.60001,118.66,274.60001,117.92L274.60001,110L265.48,110ZM279.67999,111.66C280.98,112.38,282.56,113.52,283.32001,114.28L284.38,113.24C283.58000000000004,112.48,281.96001,111.42,280.7,110.74L279.67999,111.66ZM279.67999,102.32L279.67999,103.699997L291.8,103.699997L291.72,105.540001L280.28,105.540001L280.28,106.919998L291.64,106.919998L291.52,108.76L278.34000000000003,108.76L278.34000000000003,110.1L286.22,110.1L286.22,113.76C283.32001,114.96,280.3,116.18,278.36,116.92L279.15999999999997,118.26C281.12,117.42,283.74001,116.3,286.22,115.2L286.22,117.96C286.22,118.24,286.12,118.32,285.8,118.34C285.48,118.36,284.36,118.36,283.17999,118.32C283.38,118.7,283.62,119.26,283.7,119.64C285.25999,119.64,286.28,119.64,286.89999,119.42C287.53999,119.2,287.74001,118.84,287.74001,117.98L287.74001,113.28C289.46001,115.88,291.96001,117.82,295.08000000000004,118.8C295.28,118.4,295.74001,117.82,296.06,117.5C293.89999,116.92,292.02,115.86,290.5,114.46C291.78,113.68,293.28,112.56,294.48,111.54L293.2,110.6C292.3,111.5,290.82001,112.68,289.58000000000004,113.52C288.84000000000003,112.68,288.22,111.72,287.74001,110.7L287.74001,110.1L295.8,110.1L295.8,108.76L293.08000000000004,108.76C293.25999,106.699997,293.39999,104.239998,293.44,102.32L292.25999,102.239998L292,102.32L279.67999,102.32ZM302.89999,102.900002C304.22,103.82,305.24001,104.940002,306.12,106.18C304.82001,111.88,302.32001,115.94,297.82001,118.26C298.22,118.54,298.91999999999996,119.16,299.2,119.46C303.25999,117.1,305.82001,113.42,307.34000000000003,108.18C309.53999,112.22,310.96001,116.84,315.53999,119.4C315.62,118.92,316.02,118.12,316.28,117.7C309.62,113.72,310.22,106.199997,303.82001,101.620003L302.89999,102.900002ZM320.17999,107.199997L320.17999,113.42L326.17999,113.42L326.17999,114.8L319.53999,114.8L319.53999,116L326.17999,116L326.17999,117.74L318.03999,117.74L318.03999,118.96L335.98,118.96L335.98,117.74L327.67999,117.74L327.67999,116L334.72,116L334.72,114.8L327.67999,114.8L327.67999,113.42L333.95999,113.42L333.95999,107.199997L327.67999,107.199997L327.67999,105.980003L335.88,105.980003L335.88,104.739998L327.67999,104.739998L327.67999,103.199997C330.02,103.020004,332.22,102.779999,333.94,102.480003L333.14,101.32C329.98,101.880005,324.32001,102.260002,319.65999999999997,102.379997C319.8,102.68,319.96001,103.220001,319.98,103.559998C321.94,103.520004,324.08000000000004,103.440002,326.17999,103.32L326.17999,104.739998L318.15999999999997,104.739998L318.15999999999997,105.980003L326.17999,105.980003L326.17999,107.199997L320.17999,107.199997ZM321.64,110.8L326.17999,110.8L326.17999,112.32L321.64,112.32L321.64,110.8ZM327.67999,110.8L332.44,110.8L332.44,112.32L327.67999,112.32L327.67999,110.8ZM321.64,108.28L326.17999,108.28L326.17999,109.78L321.64,109.78L321.64,108.28ZM327.67999,108.28L332.44,108.28L332.44,109.78L327.67999,109.78L327.67999,108.28ZM342,104.699997L351.94,104.699997L351.94,105.800003L342,105.800003L342,104.699997ZM342,102.739998L351.94,102.739998L351.94,103.82L342,103.82L342,102.739998ZM340.53999,101.839996L340.53999,106.699997L353.44,106.699997L353.44,101.839996L340.53999,101.839996ZM338.03999,107.559998L338.03999,108.7L355.98,108.7L355.98,107.559998L338.03999,107.559998ZM341.60001,112.54L346.24001,112.54L346.24001,113.7L341.60001,113.7L341.60001,112.54ZM347.7,112.54L352.53999,112.54L352.53999,113.7L347.7,113.7L347.7,112.54ZM341.60001,110.54L346.24001,110.54L346.24001,111.66L341.60001,111.66L341.60001,110.54ZM347.7,110.54L352.53999,110.54L352.53999,111.66L347.7,111.66L347.7,110.54ZM337.94,117.94L337.94,119.1L356.10001,119.1L356.10001,117.94L347.7,117.94L347.7,116.78L354.45999,116.78L354.45999,115.72L347.7,115.72L347.7,114.62L354.02,114.62L354.02,109.6L340.17999,109.6L340.17999,114.62L346.24001,114.62L346.24001,115.72L339.62,115.72L339.62,116.78L346.24001,116.78L346.24001,117.94L337.94,117.94Z" fill="#FFFFFF" fill-opacity="1"/></g></svg>