<svg xmlns="http://www.w3.org/2000/svg" xmlns:xlink="http://www.w3.org/1999/xlink" fill="none" version="1.1" width="609" height="135.5" viewBox="0 0 609 142.29998779296875"><path d="M0,0L303.625,0Q305.5,0,305.5,1.875L305.5,2.75L303.5,2.75L303.5,1.875Q303.5,2,303.625,2L0,2L0,0ZM305.5,134.75L305.5,135.625Q305.5,135.5,305.375,135.5L600,135.5L600,137.5L305.375,137.5Q303.5,137.5,303.5,135.625L303.5,134.75L305.5,134.75ZM609,136.5L598.9541,142.3L598.9541,130.7L609,136.5Z" fill="#FF6700" fill-opacity="1"/><g><path d="M195.68,24.190001000000002C198.059998,25.79,201.059998,28.15,202.48,29.690001L203.699997,28.530001C202.199997,26.99,199.16,24.75,196.799999,23.23L195.68,24.190001000000002ZM185.879999,18.3500004L185.879999,19.8900003L194.779999,19.8900003C192.799999,23.310000000000002,189.360001,26.690001000000002,185.379999,28.65C185.700001,28.99,186.16,29.59,186.4,29.969999C189.18,28.51,191.66,26.450001,193.68,24.130000000000003L193.68,35.309999000000005L195.299999,35.309999000000005L195.299999,22.070000999999998C195.82,21.369999999999997,196.279999,20.6300001,196.700001,19.8900003L203.119999,19.8900003L203.119999,18.3500004L185.879999,18.3500004ZM208.720001,24.990000000000002L208.720001,35.370001L210.239998,35.370001L210.239998,34.690000999999995L219.919998,34.690000999999995L219.919998,35.33L221.400002,35.33L221.400002,30.389999L210.239998,30.389999L210.239998,29.01L220.34,29.01L220.34,24.990000000000002L208.720001,24.990000000000002ZM219.919998,33.510000000000005L210.239998,33.510000000000005L210.239998,31.57L219.919998,31.57L219.919998,33.510000000000005ZM213.299999,21.29C213.52,21.690001000000002,213.739998,22.150001,213.919998,22.570000999999998L206.52,22.570000999999998L206.52,25.870001000000002L207.98,25.870001000000002L207.98,23.75L221.279999,23.75L221.279999,25.870001000000002L222.799999,25.870001000000002L222.799999,22.570000999999998L215.459999,22.570000999999998C215.279999,22.070000999999998,214.939999,21.47,214.639999,21.009999999999998L213.299999,21.29ZM210.239998,26.15L218.880001,26.15L218.880001,27.870001L210.239998,27.870001L210.239998,26.15ZM207.84,16.8700008C207.34,18.6100006,206.459999,20.3100004,205.360001,21.43C205.740002,21.610001,206.360001,21.95,206.66,22.150001C207.240002,21.490001,207.779999,20.6300001,208.279999,19.6900005L209.66,19.6900005C210.099998,20.4300003,210.540001,21.33,210.720001,21.91L212,21.47C211.84,20.990001,211.5,20.3100004,211.119999,19.6900005L214.18,19.6900005L214.18,18.5900002L208.779999,18.5900002C208.98,18.1100006,209.16,17.6300011,209.299999,17.1499996L207.84,16.8700008ZM216.299999,16.9099998C215.939999,18.3699999,215.239998,19.770000500000002,214.34,20.7300005C214.700001,20.91,215.32,21.23,215.580002,21.43C216,20.950001,216.400002,20.3699999,216.739998,19.71L218.16,19.71C218.759998,20.450000799999998,219.34,21.39,219.599998,21.97L220.82,21.43C220.599998,20.950001,220.18,20.3100004,219.720001,19.71L223.299999,19.71L223.299999,18.5900002L217.259998,18.5900002C217.459999,18.1300001,217.619999,17.6499996,217.759998,17.1700001L216.299999,16.9099998ZM227.560001,18.3500004L227.560001,25.610001C227.560001,28.43,227.360001,31.969999,225.139999,34.469999C225.48,34.65,226.080002,35.15,226.299999,35.450001C227.84,33.75,228.519997,31.450001,228.82,29.209999L233.83999599999999,29.209999L233.83999599999999,35.17L235.360001,35.17L235.360001,29.209999L240.760002,29.209999L240.760002,33.309999000000005C240.760002,33.67,240.61999500000002,33.790001000000004,240.220001,33.809999000000005C239.83999599999999,33.83,238.479996,33.85,237.08000199999998,33.790001000000004C237.279999,34.190000999999995,237.519997,34.85,237.599998,35.230000000000004C239.479996,35.25,240.639999,35.230000000000004,241.32,34.989999999999995C242,34.75,242.239998,34.290001000000004,242.239998,33.309999000000005L242.239998,18.3500004L227.560001,18.3500004ZM229.04000100000002,19.79L233.83999599999999,19.79L233.83999599999999,23.009999999999998L229.04000100000002,23.009999999999998L229.04000100000002,19.79ZM240.760002,19.79L240.760002,23.009999999999998L235.360001,23.009999999999998L235.360001,19.79L240.760002,19.79ZM229.04000100000002,24.43L233.83999599999999,24.43L233.83999599999999,27.790001L228.95999899999998,27.790001C229.019997,27.030001,229.04000100000002,26.29,229.04000100000002,25.610001L229.04000100000002,24.43ZM240.760002,24.43L240.760002,27.790001L235.360001,27.790001L235.360001,24.43L240.760002,24.43ZM249.440002,21.45L259.879997,21.45L259.879997,25.47L249.41999800000002,25.47L249.440002,24.41L249.440002,21.45ZM253.32,17.229999499999998C253.720001,18.1100006,254.16000400000001,19.2300005,254.400002,20.0500002L247.879997,20.0500002L247.879997,24.41C247.879997,27.43,247.620003,31.59,245.18,34.57C245.54000100000002,34.730000000000004,246.199997,35.190000999999995,246.480003,35.469999C248.440002,33.07,249.139999,29.75,249.360001,26.870001L259.879997,26.870001L259.879997,28.190001L261.400002,28.190001L261.400002,20.0500002L255.059998,20.0500002L255.979996,19.770000500000002C255.739998,18.9900007,255.239998,17.770000500000002,254.760002,16.8500004L253.32,17.229999499999998ZM272.32,16.950000799999998C272.08,17.8100004,271.8,18.6900005,271.44,19.5500002L265.76,19.5500002L265.76,20.950001L270.82,20.950001C269.54,23.59,267.7,26.030001,265.3,27.67C265.58,27.950001,266.06,28.49,266.26,28.83C267.52,27.93,268.64,26.85,269.6,25.630000000000003L269.6,35.33L271.08,35.33L271.08,31.370001L279.46,31.370001L279.46,33.450001C279.46,33.75,279.36,33.870001,279.02,33.870001C278.64,33.889999,277.42,33.91,276.1,33.85C276.3,34.269999999999996,276.52,34.889999,276.6,35.290001000000004C278.32,35.290001000000004,279.42,35.290001000000004,280.08,35.07C280.74,34.809999000000005,280.94,34.35,280.94,33.469999L280.94,23.27L271.22,23.27C271.68,22.509999999999998,272.08,21.75,272.44,20.950001L283.28,20.950001L283.28,19.5500002L273.04,19.5500002C273.34000000000003,18.8100004,273.6,18.0500002,273.84000000000003,17.3099995L272.32,16.950000799999998ZM271.08,27.970001L279.46,27.970001L279.46,30.07L271.08,30.07L271.08,27.970001ZM271.08,26.690001000000002L271.08,24.630000000000003L279.46,24.630000000000003L279.46,26.690001000000002L271.08,26.690001000000002ZM286.18,18.29C287.4,18.970000300000002,289,19.9900007,289.8,20.6100006L290.68,19.3900003C289.84000000000003,18.79,288.22,17.8500004,287.02,17.229999499999998L286.18,18.29ZM285.2,23.71C286.44,24.33,288.08,25.29,288.9,25.89L289.74,24.650001C288.88,24.05,287.24,23.17,286,22.610001L285.2,23.71ZM285.82,34.09L287.08,35.049999C288.18,33.209998999999996,289.52,30.690001,290.5,28.57L289.4,27.630001C288.3,29.91,286.84000000000003,32.530001,285.82,34.09ZM293.39999,17.6700001L293.39999,19.9300003C293.39999,21.45,292.98,23.150001,290.28,24.39C290.58,24.610001,291.1,25.190001000000002,291.3,25.509999999999998C294.24001,24.09,294.86,21.89,294.86,19.970000300000002L294.86,19.0700006L298.78,19.0700006L298.78,22.030001C298.78,23.71,299.12,24.310000000000002,300.58000000000004,24.310000000000002C300.86,24.310000000000002,302.10001,24.310000000000002,302.44,24.310000000000002C302.88,24.310000000000002,303.36,24.29,303.62,24.190001000000002C303.58000000000004,23.810000000000002,303.52,23.17,303.48,22.75C303.2,22.810000000000002,302.72,22.85,302.41999999999996,22.85C302.10001,22.85,300.95999,22.85,300.67999,22.85C300.34000000000003,22.85,300.28,22.650001,300.28,22.070000999999998L300.28,17.6700001L293.39999,17.6700001ZM300.15999999999997,27.190001C299.39999,28.73,298.25999,29.99,296.88,31.01C295.52,29.950001,294.44,28.67,293.7,27.190001L300.15999999999997,27.190001ZM291.32,25.79L291.32,27.190001L292.60001,27.190001L292.2,27.33C293.02,29.110001,294.15999999999997,30.630001,295.60001,31.870001C293.86,32.889999,291.86,33.57,289.82,33.969999C290.1,34.309999000000005,290.44,34.93,290.6,35.33C292.82001,34.809999000000005,294.98,34.010000000000005,296.84000000000003,32.83C298.52,34.010000000000005,300.53999,34.85,302.84000000000003,35.35C303.03999,34.93,303.48,34.309999000000005,303.82001,33.969999C301.67999,33.57,299.75999,32.870001,298.15999999999997,31.889999C299.96001,30.450001,301.39999,28.57,302.25999,26.15L301.25999,25.73L300.98,25.79L291.32,25.79ZM312.32001,16.950000799999998C312.08000000000004,17.8100004,311.8,18.6900005,311.44,19.5500002L305.75999,19.5500002L305.75999,20.950001L310.82001,20.950001C309.53999,23.59,307.7,26.030001,305.3,27.67C305.58000000000004,27.950001,306.06,28.49,306.25999,28.83C307.52,27.93,308.64,26.85,309.60001,25.630000000000003L309.60001,35.33L311.08000000000004,35.33L311.08000000000004,31.370001L319.46001,31.370001L319.46001,33.450001C319.46001,33.75,319.36,33.870001,319.02,33.870001C318.64,33.889999,317.41999999999996,33.91,316.10001,33.85C316.3,34.269999999999996,316.52,34.889999,316.60001,35.290001000000004C318.32001,35.290001000000004,319.41999999999996,35.290001000000004,320.08000000000004,35.07C320.74001,34.809999000000005,320.94,34.35,320.94,33.469999L320.94,23.27L311.22,23.27C311.67999,22.509999999999998,312.08000000000004,21.75,312.44,20.950001L323.28,20.950001L323.28,19.5500002L313.03999,19.5500002C313.34000000000003,18.8100004,313.60001,18.0500002,313.84000000000003,17.3099995L312.32001,16.950000799999998ZM311.08000000000004,27.970001L319.46001,27.970001L319.46001,30.07L311.08000000000004,30.07L311.08000000000004,27.970001ZM311.08000000000004,26.690001000000002L311.08000000000004,24.630000000000003L319.46001,24.630000000000003L319.46001,26.690001000000002L311.08000000000004,26.690001000000002ZM327.17999,27.41C328.48,28.130001,330.06,29.27,330.82001,30.030001L331.88,28.99C331.08000000000004,28.23,329.46001,27.17,328.2,26.490000000000002L327.17999,27.41ZM327.17999,18.0700006L327.17999,19.450000799999998L339.3,19.450000799999998L339.22,21.29L327.78,21.29L327.78,22.67L339.14,22.67L339.02,24.509999999999998L325.84000000000003,24.509999999999998L325.84000000000003,25.85L333.72,25.85L333.72,29.51C330.82001,30.709999,327.8,31.93,325.86,32.67L326.65999999999997,34.010000000000005C328.62,33.17,331.24001,32.049999,333.72,30.950001L333.72,33.709998999999996C333.72,33.989999999999995,333.62,34.07,333.3,34.09C332.98,34.110001,331.86,34.110001,330.67999,34.07C330.88,34.450001,331.12,35.010000000000005,331.2,35.389999C332.75999,35.389999,333.78,35.389999,334.39999,35.17C335.03999,34.950001,335.24001,34.59,335.24001,33.730000000000004L335.24001,29.030001C336.96001,31.630001,339.46001,33.57,342.58000000000004,34.549999C342.78,34.15,343.24001,33.57,343.56,33.25C341.39999,32.67,339.52,31.610001,338,30.209999C339.28,29.43,340.78,28.309999,341.98,27.290001L340.7,26.35C339.8,27.25,338.32001,28.43,337.08000000000004,29.27C336.34000000000003,28.43,335.72,27.470001,335.24001,26.450001L335.24001,25.85L343.3,25.85L343.3,24.509999999999998L340.58000000000004,24.509999999999998C340.75999,22.45,340.89999,19.9900007,340.94,18.0700006L339.75999,17.9900007L339.5,18.0700006L327.17999,18.0700006ZM350.39999,18.6500006C351.72,19.5700006,352.74001,20.6900005,353.62,21.93C352.32001,27.630001,349.82001,31.690001,345.32001,34.010000000000005C345.72,34.290001000000004,346.41999999999996,34.91,346.7,35.209998999999996C350.75999,32.85,353.32001,29.17,354.84000000000003,23.93C357.03999,27.970001,358.46001,32.59,363.03999,35.15C363.12,34.67,363.52,33.870001,363.78,33.450001C357.12,29.470001,357.72,21.95,351.32001,17.3700008L350.39999,18.6500006ZM367.67999,22.95L367.67999,29.17L373.67999,29.17L373.67999,30.549999L367.03999,30.549999L367.03999,31.75L373.67999,31.75L373.67999,33.489999999999995L365.53999,33.489999999999995L365.53999,34.709998999999996L383.48,34.709998999999996L383.48,33.489999999999995L375.17999,33.489999999999995L375.17999,31.75L382.22,31.75L382.22,30.549999L375.17999,30.549999L375.17999,29.17L381.45999,29.17L381.45999,22.95L375.17999,22.95L375.17999,21.73L383.38,21.73L383.38,20.4900007L375.17999,20.4900007L375.17999,18.950000799999998C377.52,18.770000500000002,379.72,18.530000700000002,381.44,18.2300005L380.64,17.0699997C377.48,17.6300011,371.82001,18.0100002,367.15999999999997,18.1300001C367.3,18.4300003,367.46001,18.970000300000002,367.48,19.3100004C369.44,19.270000500000002,371.58000000000004,19.1900005,373.67999,19.0700006L373.67999,20.4900007L365.65999999999997,20.4900007L365.65999999999997,21.73L373.67999,21.73L373.67999,22.95L367.67999,22.95ZM369.14,26.55L373.67999,26.55L373.67999,28.07L369.14,28.07L369.14,26.55ZM375.17999,26.55L379.94,26.55L379.94,28.07L375.17999,28.07L375.17999,26.55ZM369.14,24.030001L373.67999,24.030001L373.67999,25.53L369.14,25.53L369.14,24.030001ZM375.17999,24.030001L379.94,24.030001L379.94,25.53L375.17999,25.53L375.17999,24.030001ZM389.5,20.450000799999998L399.44,20.450000799999998L399.44,21.55L389.5,21.55L389.5,20.450000799999998ZM389.5,18.4900007L399.44,18.4900007L399.44,19.5700006L389.5,19.5700006L389.5,18.4900007ZM388.03999,17.5900002L388.03999,22.45L400.94,22.45L400.94,17.5900002L388.03999,17.5900002ZM385.53999,23.310000000000002L385.53999,24.45L403.48,24.45L403.48,23.310000000000002L385.53999,23.310000000000002ZM389.10001,28.290001L393.74001,28.290001L393.74001,29.450001L389.10001,29.450001L389.10001,28.290001ZM395.2,28.290001L400.03999,28.290001L400.03999,29.450001L395.2,29.450001L395.2,28.290001ZM389.10001,26.29L393.74001,26.29L393.74001,27.41L389.10001,27.41L389.10001,26.29ZM395.2,26.29L400.03999,26.29L400.03999,27.41L395.2,27.41L395.2,26.29ZM385.44,33.690000999999995L385.44,34.85L403.60001,34.85L403.60001,33.690000999999995L395.2,33.690000999999995L395.2,32.530001L401.95999,32.530001L401.95999,31.469999L395.2,31.469999L395.2,30.370001L401.52,30.370001L401.52,25.35L387.67999,25.35L387.67999,30.370001L393.74001,30.370001L393.74001,31.469999L387.12,31.469999L387.12,32.530001L393.74001,32.530001L393.74001,33.690000999999995L385.44,33.690000999999995ZM407.64,35.889999C409.74001,35.15,411.10001,33.510000000000005,411.10001,31.35C411.10001,29.950001,410.5,29.049999,409.39999,29.049999C408.58000000000004,29.049999,407.88,29.549999,407.88,30.49C407.88,31.43,408.56,31.91,409.38,31.91L409.72,31.870001C409.62,33.25,408.74001,34.190000999999995,407.2,34.83L407.64,35.889999ZM206.360001,59.110001C208.380001,60.669998,210.860001,62.91,212.02,64.349998L213.379997,63.450001C212.139999,61.990002,209.639999,59.830002,207.639999,58.330002L206.360001,59.110001ZM201.18,58.389999C200,60.110001,197.639999,62.130001,195.48,63.349998C195.82,63.610001,196.379999,64.09,196.66,64.41C198.880001,63.07,201.259998,60.970001,202.760002,58.990002L201.18,58.389999ZM199.200001,48.889999L209.799999,48.889999L209.799999,55.09L199.200001,55.09L199.200001,48.889999ZM197.66,47.43L197.66,56.529999L211.379997,56.529999L211.379997,47.43L197.66,47.43ZM227.939999,58.110001C227.279999,59.27,226.360001,60.169998,225.139999,60.889999C223.68,60.529999,222.18,60.209999,220.700001,59.93C221.119999,59.389999,221.599998,58.77,222.060001,58.110001L227.939999,58.110001ZM216.880001,49.849998L216.880001,55.029999L222.220001,55.029999C221.939999,55.59,221.599998,56.189999,221.220001,56.790001L215.580002,56.790001L215.580002,58.110001L220.32,58.110001C219.619999,59.09,218.880001,60.009998,218.220001,60.73C219.919998,61.049999,221.580002,61.389999,223.16,61.77C221.200001,62.450001,218.720001,62.830002,215.68,63.009998C215.939999,63.349998,216.18,63.889999,216.299999,64.310001C220.080002,63.990002,223.059998,63.41,225.32,62.310001C227.860001,62.990002,230.059998,63.689999,231.699997,64.349998L232.979996,63.189999C231.379997,62.59,229.279999,61.950001,226.959999,61.330002C228.099998,60.490002,228.979996,59.43,229.599998,58.110001L233.440002,58.110001L233.440002,56.790001L222.939999,56.790001C223.260002,56.27,223.559998,55.75,223.82,55.25L222.900002,55.029999L232.260002,55.029999L232.260002,49.849998L227.439999,49.849998L227.439999,48.150002L233.099998,48.150002L233.099998,46.810001L215.880001,46.810001L215.880001,48.150002L221.34,48.150002L221.34,49.849998L216.880001,49.849998ZM222.760002,48.150002L226.02,48.150002L226.02,49.849998L222.760002,49.849998L222.760002,48.150002ZM218.299999,51.09L221.34,51.09L221.34,53.810001L218.299999,53.810001L218.299999,51.09ZM222.760002,51.09L226.02,51.09L226.02,53.810001L222.760002,53.810001L222.760002,51.09ZM227.439999,51.09L230.779999,51.09L230.779999,53.810001L227.439999,53.810001L227.439999,51.09ZM235.33999599999999,61.610001L235.620003,63.009998C237.41999800000002,62.57,239.83999599999999,61.970001,242.139999,61.389999L242.019997,60.130001C239.519997,60.709999,237,61.290001,235.33999599999999,61.610001ZM251.83999599999999,47.349998C251.520004,48.490002,250.879997,50.130001,250.379997,51.150002L251.32,51.490002C251.860001,50.510002,252.520004,48.990002,253.059998,47.709999L251.83999599999999,47.349998ZM245.099998,47.650002C245.559998,48.869999,246.099998,50.450001,246.32,51.490002L247.400002,51.150002C247.16000400000001,50.150002,246.599998,48.59,246.120003,47.369999L245.099998,47.650002ZM242.800003,46.75L242.800003,63.290001L253.559998,63.290001L253.559998,61.950001L244.18,61.950001L244.18,46.75L242.800003,46.75ZM235.699997,54.290001C236,54.150002,236.45999899999998,54.029999,238.900002,53.709999C238.019997,55.010002,237.220001,56.049999,236.860001,56.450001C236.260002,57.169998,235.800003,57.689999,235.379997,57.77C235.519997,58.130001,235.760002,58.810001,235.83999599999999,59.110001C236.239998,58.869999,236.91999800000002,58.669998,241.900002,57.669998C241.879997,57.369999,241.860001,56.790001,241.900002,56.41L237.900002,57.130001C239.440002,55.330002,240.91999800000002,53.130001,242.18,50.91L240.95999899999998,50.190002C240.599998,50.93,240.16000400000001,51.690002,239.739998,52.389999L237.18,52.669998C238.32,50.93,239.440002,48.690002,240.260002,46.57L238.83999599999999,45.93C238.120003,48.349998,236.760002,50.970001,236.300003,51.630001C235.900002,52.330002,235.559998,52.790001,235.220001,52.889999C235.400002,53.27,235.620003,53.989998,235.699997,54.290001ZM248.379997,46.110001L248.379997,52.330002L244.739998,52.330002L244.739998,53.630001L247.95999899999998,53.630001C247.16000400000001,55.450001,245.91999800000002,57.369999,244.760002,58.450001C244.979996,58.790001,245.300003,59.330002,245.41999800000002,59.689999C246.5,58.650002,247.58000199999998,56.889999,248.379997,55.09L248.379997,61.189999L249.66000400000001,61.189999L249.66000400000001,55.09C250.61999500000002,56.369999,251.900002,58.169998,252.379997,59.049999L253.32,58.010002C252.800003,57.310001,250.599998,54.59,249.720001,53.630001L253.400002,53.630001L253.400002,52.330002L249.66000400000001,52.330002L249.66000400000001,46.110001L248.379997,46.110001ZM263.979996,53.709999C264.86,54.23,265.92,54.990002,266.44,55.57L267.15999999999997,54.73C266.64,54.169998,265.56,53.43,264.68,52.970001L263.979996,53.709999ZM262.519997,55.529999C263.459999,56.049999,264.56,56.889999,265.08,57.470001L265.82,56.610001C265.26,56.029999,264.160004,55.25,263.239998,54.75L262.519997,55.529999ZM268.28,60.650002C269.86,61.73,271.76,63.330002,272.65999999999997,64.389999L273.64,63.450001C272.7,62.41,270.76,60.869999,269.2,59.830002L268.28,60.650002ZM255.360001,61.59L255.699997,62.990002C257.400002,62.349998,259.620003,61.490002,261.720001,60.689999L261.480003,59.450001C259.199997,60.27,256.900002,61.110001,255.360001,61.59ZM262.519997,50.889999L262.519997,52.190002L271.52,52.190002C271.24,53.049999,270.92,53.93,270.64,54.549999L271.84000000000003,54.869999C272.3,53.91,272.82,52.41,273.24,51.07L272.28,50.830002L272.04,50.889999L268.36,50.889999L268.36,49.09L272.2,49.09L272.2,47.810001L268.36,47.810001L268.36,45.950001L266.88,45.950001L266.88,47.810001L263.260002,47.810001L263.260002,49.09L266.88,49.09L266.88,50.889999L262.519997,50.889999ZM267.46,52.970001L267.46,55.349998C267.46,56.09,267.42,56.91,267.22,57.73L262.099998,57.73L262.099998,59.049999L266.76,59.049999C266.02,60.57,264.58,62.07,261.720001,63.27C262,63.549999,262.419998,64.049999,262.599998,64.389999C266.02,62.91,267.6,60.990002,268.3,59.049999L273.28,59.049999L273.28,57.73L268.65999999999997,57.73C268.82,56.93,268.86,56.130001,268.86,55.389999L268.86,52.970001L267.46,52.970001ZM255.720001,54.290001C256,54.150002,256.459999,54.029999,258.800003,53.73C257.959999,55.029999,257.199997,56.07,256.860001,56.470001C256.260002,57.23,255.82,57.75,255.41999800000002,57.830002C255.559998,58.169998,255.779999,58.830002,255.860001,59.110001C256.239998,58.830002,256.900002,58.610001,261.580002,57.330002C261.540001,57.049999,261.5,56.470001,261.5,56.07L258.019997,56.93C259.419998,55.150002,260.800003,53.010002,261.940002,50.869999L260.760002,50.190002C260.419998,50.950001,260,51.709999,259.580002,52.43L257.199997,52.669998C258.379997,50.93,259.559998,48.73,260.419998,46.59L259.120003,45.989998C258.300003,48.41,256.860001,51.029999,256.400002,51.709999C255.95999899999998,52.389999,255.620003,52.869999,255.260002,52.950001C255.41999800000002,53.330002,255.639999,54.010002,255.720001,54.290001ZM289.94,55.169998C289.6,57.07,288.96,58.549999,288,59.73C286.92,59.150002,285.84000000000003,58.57,284.82,58.07C285.26,57.209999,285.74,56.209999,286.18,55.169998L289.94,55.169998ZM282.84000000000003,58.549999C284.14,59.189999,285.56,59.970001,286.96,60.77C285.64,61.849998,283.9,62.57,281.65999999999997,63.07C281.92,63.389999,282.28,64.029999,282.4,64.369999C284.88,63.73,286.8,62.830002,288.26,61.529999C289.96,62.549999,291.5,63.57,292.5,64.389999L293.58000000000004,63.23C292.52,62.43,290.98,61.450001,289.28,60.470001C290.38,59.110001,291.12,57.369999,291.56,55.169998L293.67999,55.169998L293.67999,53.810001L286.74,53.810001C287.12,52.810001,287.48,51.810001,287.76,50.869999L286.24,50.650002C285.96,51.630001,285.56,52.73,285.12,53.810001L281.6,53.810001L281.6,55.169998L284.54,55.169998C283.98,56.450001,283.38,57.630001,282.84000000000003,58.549999ZM282.15999999999997,48.510002L282.15999999999997,52.41L283.58,52.41L283.58,49.849998L291.96,49.849998L291.96,52.389999L293.39999,52.389999L293.39999,48.510002L288.72,48.510002C288.52,47.709999,288.18,46.690002,287.86,45.849998L286.36,46.130001C286.62,46.849998,286.9,47.75,287.1,48.510002L282.15999999999997,48.510002ZM278.04,45.950001L278.04,49.970001L275.34000000000003,49.970001L275.34000000000003,51.389999L278.04,51.389999L278.04,56.369999L275.1,57.209999L275.46,58.669998L278.04,57.869999L278.04,62.610001C278.04,62.91,277.92,62.990002,277.65999999999997,62.990002C277.4,63.009998,276.58,63.009998,275.65999999999997,62.990002C275.86,63.389999,276.08,63.990002,276.12,64.349998C277.44,64.349998,278.26,64.310001,278.78,64.09C279.3,63.849998,279.48,63.450001,279.48,62.610001L279.48,57.41L282.04,56.57L281.84000000000003,55.23L279.48,55.950001L279.48,51.389999L281.64,51.389999L281.64,49.970001L279.48,49.970001L279.48,45.950001L278.04,45.950001ZM295.60001,47.43L295.60001,48.93L303.32001,48.93L303.32001,64.33000200000001L304.89999,64.33000200000001L304.89999,53.73C307.2,54.970001,309.88,56.630001,311.28,57.75L312.34000000000003,56.389999C310.74001,55.169998,307.56,53.369999,305.17999,52.209999L304.89999,52.529999L304.89999,48.93L313.41999999999996,48.93L313.41999999999996,47.43L295.60001,47.43ZM318.46001,46.010002L318.46001,49.869999L315.52,49.869999L315.52,51.27L318.46001,51.27L318.46001,55.73L315.25999,56.450001L315.7,57.91L318.46001,57.209999L318.46001,62.509998C318.46001,62.790001,318.36,62.869999,318.08000000000004,62.889999C317.82001,62.889999,316.94,62.889999,316,62.869999C316.2,63.25,316.41999999999996,63.869999,316.46001,64.25C317.84000000000003,64.25,318.67999,64.22999999999999,319.2,63.970001C319.72,63.75,319.94,63.349998,319.94,62.490002L319.94,56.830002L322.72,56.09L322.53999,54.709999L319.94,55.369999L319.94,51.27L322.56,51.27L322.56,49.869999L319.94,49.869999L319.94,46.010002L318.46001,46.010002ZM322.89999,47.830002L322.89999,49.23L331.14,49.23L331.14,54.190002L323.38,54.190002L323.38,55.689999L331.14,55.689999L331.14,61.41L322.75999,61.41L322.75999,62.830002L331.14,62.830002L331.14,64.29000099999999L332.58000000000004,64.29000099999999L332.58000000000004,47.830002L322.89999,47.830002ZM349.46001,45.950001L349.46001,48.830002L345.88,48.830002L345.88,45.950001L344.44,45.950001L344.44,48.830002L341.65999999999997,48.830002L341.65999999999997,50.190002L344.44,50.190002L344.44,52.810001L345.88,52.810001L345.88,50.190002L349.46001,50.190002L349.46001,52.810001L350.89999,52.810001L350.89999,50.190002L353.53999,50.190002L353.53999,48.830002L350.89999,48.830002L350.89999,45.950001L349.46001,45.950001ZM343.91999999999996,59.130001L346.94,59.130001L346.94,61.950001L343.91999999999996,61.950001L343.91999999999996,59.130001ZM343.91999999999996,57.810001L343.91999999999996,55.049999L346.94,55.049999L346.94,57.810001L343.91999999999996,57.810001ZM351.38,59.130001L351.38,61.950001L348.3,61.950001L348.3,59.130001L351.38,59.130001ZM351.38,57.810001L348.3,57.810001L348.3,55.049999L351.38,55.049999L351.38,57.810001ZM342.53999,53.709999L342.53999,64.310001L343.91999999999996,64.310001L343.91999999999996,63.290001L351.38,63.290001L351.38,64.20999900000001L352.82001,64.20999900000001L352.82001,53.709999L342.53999,53.709999ZM337.75999,45.970001L337.75999,49.990002L335.34000000000003,49.990002L335.34000000000003,51.389999L337.75999,51.389999L337.75999,55.790001C336.74001,56.110001,335.8,56.369999,335.06,56.57L335.44,58.049999L337.75999,57.290001L337.75999,62.470001C337.75999,62.75,337.65999999999997,62.830002,337.41999999999996,62.830002C337.17999,62.849998,336.39999,62.849998,335.52,62.830002C335.72,63.23,335.89999,63.849998,335.96001,64.20999900000001C337.22,64.22999999999999,338,64.16999799999999,338.48,63.93C338.98,63.709999,339.15999999999997,63.290001,339.15999999999997,62.470001L339.15999999999997,56.830002L341.36,56.110001L341.15999999999997,54.73L339.15999999999997,55.349998L339.15999999999997,51.389999L341.3,51.389999L341.3,49.990002L339.15999999999997,49.990002L339.15999999999997,45.970001L337.75999,45.970001ZM355.52,55.830002L355.52,57.189999L357.8,57.189999L357.8,61.09C357.8,62.029999,357.14,62.73,356.8,62.990002C357.06,63.25,357.46001,63.790001,357.62,64.110001C357.89999,63.73,358.38,63.369999,361.5,61.189999C361.34000000000003,60.950001,361.14,60.43,361.03999,60.049999L359.08000000000004,61.369999L359.08000000000004,57.189999L361.3,57.189999L361.3,55.830002L359.08000000000004,55.830002L359.08000000000004,53.110001L361.10001,53.110001L361.10001,51.790001L356.34000000000003,51.790001C356.82001,51.130001,357.25999,50.389999,357.65999999999997,49.57L361.17999,49.57L361.17999,48.190002L358.25999,48.190002C358.52,47.549999,358.75999,46.889999,358.94,46.23L357.62,45.889999C357.08000000000004,47.91,356.14,49.849998,355.02,51.150002C355.3,51.43,355.74001,52.07,355.89999,52.349998L356.28,51.869999L356.28,53.110001L357.8,53.110001L357.8,55.830002L355.52,55.830002ZM366.06,47.529999L366.06,48.630001L368.44,48.630001L368.44,50.23L365.56,50.23L365.56,51.389999L368.44,51.389999L368.44,53.010002L366.06,53.010002L366.06,54.130001L368.44,54.130001L368.44,55.650002L366,55.650002L366,56.830002L368.44,56.830002L368.44,58.470001L365.5,58.470001L365.5,59.650002L368.44,59.650002L368.44,62.110001L369.64,62.110001L369.64,59.650002L373.34000000000003,59.650002L373.34000000000003,58.470001L369.64,58.470001L369.64,56.830002L372.89999,56.830002L372.89999,55.650002L369.64,55.650002L369.64,54.130001L372.58000000000004,54.130001L372.58000000000004,51.389999L373.8,51.389999L373.8,50.23L372.58000000000004,50.23L372.58000000000004,47.529999L369.64,47.529999L369.64,46.010002L368.44,46.010002L368.44,47.529999L366.06,47.529999ZM369.64,51.389999L371.45999,51.389999L371.45999,53.010002L369.64,53.010002L369.64,51.389999ZM369.64,50.23L369.64,48.630001L371.45999,48.630001L371.45999,50.23L369.64,50.23ZM361.84000000000003,54.59C361.84000000000003,54.489998,361.98,54.369999,362.14,54.25L364.25999,54.25C364.10001,55.869999,363.84000000000003,57.290001,363.48,58.510002C363.17999,57.810001,362.89999,57.010002,362.67999,56.07L361.65999999999997,56.490002C362.02,57.889999,362.46001,59.049999,362.96001,59.990002C362.3,61.549999,361.39999,62.669998,360.28,63.389999C360.53999,63.669998,360.86,64.130001,361.03999,64.450001C362.15999999999997,63.669998,363.06,62.630001,363.75999,61.23C365.53999,63.529999,367.96001,64.07,370.72,64.07L373.34000000000003,64.07C373.41999999999996,63.709999,373.60001,63.110001,373.8,62.77C373.14,62.790001,371.28,62.790001,370.8,62.790001C368.28,62.790001,365.94,62.290001,364.3,59.970001C364.94,58.169998,365.36,55.91,365.53999,53.049999L364.8,52.950001L364.58000000000004,52.970001L363.32001,52.970001C364.15999999999997,51.43,365,49.450001,365.67999,47.470001L364.84000000000003,46.91L364.44,47.110001L361.56,47.110001L361.56,48.510002L363.96001,48.510002C363.38,50.23,362.62,51.830002,362.34000000000003,52.310001C362.02,52.93,361.56,53.470001,361.22,53.549999C361.41999999999996,53.810001,361.72,54.330002,361.84000000000003,54.59ZM383.98,53.709999C385.03999,55.25,386.39999,57.369999,387.03999,58.59L388.36,57.830002C387.67999,56.610001,386.3,54.57,385.22,53.049999L383.98,53.709999ZM380.98,54.709999L380.98,59.27L377.56,59.27L377.56,54.709999L380.98,54.709999ZM380.98,53.369999L377.56,53.369999L377.56,48.990002L380.98,48.990002L380.98,53.369999ZM376.12,47.630001L376.12,62.25L377.56,62.25L377.56,60.630001L382.38,60.630001L382.38,47.630001L376.12,47.630001ZM389.78,46.050003L389.78,49.950001L383.3,49.950001L383.3,51.43L389.78,51.43L389.78,62.09C389.78,62.490002,389.62,62.630001,389.22,62.630001C388.78,62.669998,387.3,62.669998,385.74001,62.610001C385.96001,63.049999,386.2,63.73,386.3,64.150002C388.3,64.150002,389.58000000000004,64.130001,390.3,63.869999C391.02,63.630001,391.3,63.189999,391.3,62.09L391.3,51.43L393.74001,51.43L393.74001,49.950001L391.3,49.950001L391.3,46.050003L389.78,46.050003ZM397.64,64.889999C399.74001,64.150002,401.10001,62.509998,401.10001,60.349998C401.10001,58.950001,400.5,58.049999,399.39999,58.049999C398.58000000000004,58.049999,397.88,58.549999,397.88,59.490002C397.88,60.43,398.56,60.91,399.38,60.91L399.72,60.869999C399.62,62.25,398.74001,63.189999,397.2,63.830002L397.64,64.889999ZM189.279999,83.529999L199.98,83.529999L199.98,86.470001L189.279999,86.470001L189.279999,83.529999ZM189.279999,82.110001L189.279999,79.129997L199.98,79.129997L199.98,82.110001L189.279999,82.110001ZM189.279999,87.870003L199.98,87.870003L199.98,90.830002L189.279999,90.830002L189.279999,87.870003ZM193.599998,74.910004C193.439999,75.709999,193.119999,76.809998,192.82,77.690002L187.76,77.690002L187.76,93.370003L189.279999,93.370003L189.279999,92.25L199.98,92.25L199.98,93.269997L201.559998,93.269997L201.559998,77.690002L194.34,77.690002C194.68,76.93,195.02,76.010002,195.34,75.150002L193.599998,74.910004ZM206.279999,76.589996L206.279999,77.93L214.02,77.93L214.02,76.589996L206.279999,76.589996ZM217.559998,75.290001C217.559998,76.709999,217.559998,78.150002,217.5,79.57L214.639999,79.57L214.639999,81.010002L217.439999,81.010002C217.200001,85.57,216.400002,89.75,213.66,92.25C214.059998,92.470001,214.580002,92.970001,214.84,93.330002C217.779999,90.529999,218.639999,85.970001,218.919998,81.010002L221.900002,81.010002C221.68,88.110001,221.419998,90.769997,220.879997,91.370003C220.68,91.610001,220.459999,91.669998,220.099998,91.669998C219.68,91.669998,218.619999,91.669998,217.5,91.550003C217.759998,91.989998,217.919998,92.610001,217.959999,93.029999C219.02,93.110001,220.119999,93.110001,220.739998,93.050003C221.379997,92.989998,221.779999,92.809998,222.18,92.290001C222.879997,91.410004,223.119999,88.57,223.400002,80.330002C223.400002,80.110001,223.400002,79.57,223.400002,79.57L218.98,79.57C219.02,78.150002,219.040001,76.709999,219.040001,75.290001L217.559998,75.290001ZM206.279999,90.870003L206.299999,90.849998L206.299999,90.889999C206.759998,90.610001,207.48,90.389999,213.040001,89.129997L213.419998,90.470001L214.739998,90.029999C214.360001,88.629997,213.459999,86.25,212.700001,84.449997L211.459999,84.790001C211.860001,85.730003,212.259998,86.830002,212.619999,87.870003L207.860001,88.870003C208.639999,87.07,209.400002,84.830002,209.900002,82.730003L214.380001,82.730003L214.380001,81.349998L205.580002,81.349998L205.580002,82.730003L208.360001,82.730003C207.84,85.07,207,87.43,206.720001,88.089996C206.380001,88.849998,206.119999,89.389999,205.799999,89.489998C205.98,89.849998,206.200001,90.57,206.279999,90.870003ZM232.91999800000002,87.370003C233.95999899999998,88.449997,235.08000199999998,89.970001,235.54000100000002,90.989998L236.83999599999999,90.230003C236.33999599999999,89.209999,235.199997,87.75,234.139999,86.709999L232.91999800000002,87.370003ZM239.599998,82.25L239.599998,84.730003L231.5,84.730003L231.5,86.129997L239.599998,86.129997L239.599998,91.550003C239.599998,91.830002,239.5,91.910004,239.18,91.93C238.83999599999999,91.949997,237.699997,91.949997,236.5,91.910004C236.699997,92.330002,236.91999800000002,92.93,236.979996,93.330002C238.559998,93.330002,239.620003,93.309998,240.239998,93.089996C240.900002,92.849998,241.08000199999998,92.43,241.08000199999998,91.57L241.08000199999998,86.129997L243.5,86.129997L243.5,84.730003L241.08000199999998,84.730003L241.08000199999998,82.25L239.599998,82.25ZM225.380001,78.470001C226.400002,79.489998,227.560001,80.910004,228.060001,81.870003L229.099998,80.989998L229.099998,84.449997C227.68,85.75,226.240002,86.989998,225.279999,87.769997L226.099998,89.029999C227.02,88.209999,228.060001,87.230003,229.099998,86.230003L229.099998,93.330002L230.559998,93.330002L230.559998,74.949997L229.099998,74.949997L229.099998,80.790001C228.54000100000002,79.870003,227.400002,78.589996,226.419998,77.650002L225.380001,78.470001ZM234.599998,79.550003C235.279999,80.110001,236,80.889999,236.440002,81.510002C234.95999899999998,82.230003,233.300003,82.75,231.68,83.07C231.95999899999998,83.370003,232.260002,83.910004,232.41999800000002,84.269997C236.82,83.270004,241.239998,81.07,243.139999,77.010002L242.16000400000001,76.489998L241.900002,76.550003L237.58000199999998,76.550003C237.940002,76.169998,238.279999,75.790001,238.559998,75.389999L237.04000100000002,74.949997C235.940002,76.550003,233.82,78.190002,231.519997,79.150002C231.82,79.389999,232.300003,79.849998,232.5,80.129997C233.82,79.510002,235.099998,78.709999,236.220001,77.790001L241.04000100000002,77.790001C240.220001,79.010002,239.04000100000002,80.029999,237.66000400000001,80.849998C237.199997,80.209999,236.400002,79.449997,235.699997,78.889999L234.599998,79.550003ZM247.260002,76.43C248.279999,78.010002,249.279999,80.110001,249.620003,81.43L251.08000199999998,80.870003C250.699997,79.510002,249.639999,77.470001,248.620003,75.93L247.260002,76.43ZM260.400002,75.709999C259.839996,77.290001,258.739998,79.510002,257.879997,80.870003L259.160004,81.370003C260.040001,80.07,261.119995,78.010002,261.959999,76.270004L260.400002,75.709999ZM253.68,74.949997L253.68,82.589996L245.599998,82.589996L245.599998,84.010002L250.940002,84.010002C250.620003,87.809998,249.860001,90.650002,245.18,92.07C245.519997,92.370003,245.95999899999998,92.970001,246.120003,93.349998C251.16000400000001,91.690002,252.16000400000001,88.410004,252.519997,84.010002L256.239998,84.010002L256.239998,91.110001C256.239998,92.830002,256.720001,93.309998,258.519997,93.309998C258.879997,93.309998,261.020004,93.309998,261.419998,93.309998C263.119995,93.309998,263.520004,92.449997,263.699997,89.169998C263.279999,89.050003,262.639999,88.790001,262.300003,88.529999C262.220001,91.410004,262.099998,91.889999,261.300003,91.889999C260.82,91.889999,259.059998,91.889999,258.68,91.889999C257.900002,91.889999,257.739998,91.769997,257.739998,91.110001L257.739998,84.010002L263.459999,84.010002L263.459999,82.589996L255.199997,82.589996L255.199997,74.949997L253.68,74.949997ZM273.82,76.470001L273.82,77.889999L282.54,77.889999L282.54,76.470001L273.82,76.470001ZM280.08,85.25C281.02,87.25,281.96,89.849998,282.26,91.43L283.64,90.93C283.3,89.349998,282.34000000000003,86.809998,281.36,84.849998L280.08,85.25ZM274.32,84.910004C273.8,87.029999,272.9,89.169998,271.78,90.610001C272.12,90.769997,272.72,91.190002,273,91.389999C274.08,89.870003,275.08,87.529999,275.7,85.209999L274.32,84.910004ZM272.94,81.25L272.94,82.669998L277.22,82.669998L277.22,91.389999C277.22,91.650002,277.14,91.730003,276.84000000000003,91.75C276.58,91.75,275.64,91.769997,274.6,91.730003C274.8,92.190002,275.02,92.830002,275.08,93.269997C276.48,93.269997,277.4,93.230003,277.98,92.989998C278.56,92.730003,278.74,92.269997,278.74,91.410004L278.74,82.669998L283.62,82.669998L283.62,81.25L272.94,81.25ZM268.54,74.949997L268.54,79.190002L265.48,79.190002L265.48,80.589996L268.22,80.589996C267.56,83.07,266.26,85.949997,264.98,87.449997C265.26,87.830002,265.65999999999997,88.449997,265.82,88.849998C266.82,87.57,267.8,85.470001,268.54,83.309998L268.54,93.330002L270.04,93.330002L270.04,82.870003C270.72,83.849998,271.52,85.089996,271.86,85.730003L272.74,84.550003C272.34000000000003,83.989998,270.62,81.790001,270.04,81.129997L270.04,80.589996L272.65999999999997,80.589996L272.65999999999997,79.190002L270.04,79.190002L270.04,74.949997L268.54,74.949997ZM288.98,84.190002C288.56,87.809998,287.46,90.669998,285.22,92.410004C285.58,92.629997,286.2,93.129997,286.44,93.410004C287.78,92.25,288.74,90.730003,289.44,88.870003C291.28,92.330002,294.28,93.029999,298.46001,93.029999L303.14,93.029999C303.2,92.589996,303.48,91.870003,303.7,91.510002C302.72,91.529999,299.28,91.529999,298.53999,91.529999C297.36,91.529999,296.25999,91.470001,295.25999,91.290001L295.25999,87.25L301.22,87.25L301.22,85.849998L295.25999,85.849998L295.25999,82.57L300.39999,82.57L300.39999,81.110001L288.72,81.110001L288.72,82.57L293.7,82.57L293.7,90.870003C292.06,90.25,290.8,89.07,290.02,86.970001C290.22,86.150002,290.38,85.269997,290.5,84.349998L288.98,84.190002ZM293.02,75.229996C293.36,75.830002,293.72,76.589996,293.94,77.209999L286.14,77.209999L286.14,81.57L287.62,81.57L287.62,78.629997L301.32001,78.629997L301.32001,81.57L302.86,81.57L302.86,77.209999L295.65999999999997,77.209999C295.46001,76.550003,294.94,75.550003,294.5,74.809998L293.02,75.229996ZM311.88,78.589996L311.88,80.050003L322.78,80.050003L322.78,78.589996L311.88,78.589996ZM313.2,81.57C313.8,84.349998,314.39999,88.050003,314.56,90.150002L316.03999,89.709999C315.84000000000003,87.669998,315.22,84.07,314.56,81.25L313.2,81.57ZM315.89999,75.190002C316.28,76.190002,316.67999,77.510002,316.84000000000003,78.370003L318.34000000000003,77.93C318.14,77.07,317.7,75.809998,317.32001,74.809998L315.89999,75.190002ZM311.02,91.07L311.02,92.510002L323.60001,92.510002L323.60001,91.07L319.46001,91.07C320.2,88.389999,321.02,84.449997,321.56,81.370003L319.98,81.110001C319.62,84.110001,318.82001,88.370003,318.06,91.07L311.02,91.07ZM310.22,75.029999C309.10001,78.07,307.22,81.07,305.25999,83.010002C305.52,83.349998,305.96001,84.129997,306.12,84.489998C306.8,83.790001,307.46001,82.970001,308.10001,82.07L308.10001,93.309998L309.60001,93.309998L309.60001,79.730003C310.38,78.370003,311.08000000000004,76.910004,311.64,75.449997L310.22,75.029999ZM337.32001,76.669998L337.32001,88.790001L338.72,88.790001L338.72,76.669998L337.32001,76.669998ZM341.28,75.270004L341.28,91.010002C341.28,91.349998,341.17999,91.449997,340.84000000000003,91.449997C340.5,91.470001,339.39999,91.470001,338.22,91.43C338.46001,91.830002,338.7,92.510002,338.78,92.93C340.24001,92.93,341.3,92.889999,341.91999999999996,92.629997C342.52,92.389999,342.74001,91.949997,342.74001,91.010002L342.74001,75.270004L341.28,75.270004ZM325.74001,90.910004L326.08000000000004,92.349998C328.72,91.830002,332.52,91.110001,336.08000000000004,90.410004L336,89.089996L331.8,89.870003L331.8,86.730003L335.8,86.730003L335.8,85.389999L331.8,85.389999L331.8,83.25L330.38,83.25L330.38,85.389999L326.44,85.389999L326.44,86.730003L330.38,86.730003L330.38,90.110001L325.74001,90.910004ZM326.88,82.970001C327.36,82.75,328.10001,82.669998,334.36,82.07C334.64,82.529999,334.88,82.949997,335.06,83.309998L336.2,82.550003C335.62,81.410004,334.3,79.589996,333.17999,78.25L332.08000000000004,78.889999C332.58000000000004,79.489998,333.10001,80.209999,333.58000000000004,80.889999L328.46001,81.330002C329.28,80.25,330.10001,78.910004,330.78,77.589996L336.2,77.589996L336.2,76.270004L325.91999999999996,76.270004L325.91999999999996,77.589996L329.10001,77.589996C328.46001,79.010002,327.64,80.290001,327.34000000000003,80.669998C327,81.150002,326.7,81.489998,326.38,81.550003C326.56,81.949997,326.78,82.650002,326.88,82.970001ZM352.10001,76.209999L352.10001,77.629997L362.17999,77.629997L362.17999,76.209999L352.10001,76.209999ZM345.86,76.989998C347.03999,77.809998,348.62,78.970001,349.39999,79.669998L350.44,78.589996C349.62,77.889999,348,76.790001,346.86,76.029999L345.86,76.989998ZM352,89.370003C352.60001,89.110001,353.48,89.029999,361,88.370003L361.78,89.889999L363.12,89.190002C362.34000000000003,87.669998,360.74001,85.050003,359.5,83.110001L358.25999,83.690002C358.89999,84.709999,359.62,85.93,360.28,87.07L353.67999,87.57C354.74001,86.029999,355.8,84.07,356.62,82.190002L363.60001,82.190002L363.60001,80.770004L350.78,80.770004L350.78,82.190002L354.82001,82.190002C354.06,84.209999,352.94,86.150002,352.58000000000004,86.690002C352.15999999999997,87.330002,351.84000000000003,87.790001,351.48,87.849998C351.65999999999997,88.269997,351.91999999999996,89.050003,352,89.370003ZM349.53999,81.949997L345.34000000000003,81.949997L345.34000000000003,83.349998L348.08000000000004,83.349998L348.08000000000004,89.730003C347.22,90.110001,346.22,90.989998,345.24001,92.050003L346.3,93.43C347.28,92.110001,348.28,90.910004,348.94,90.910004C349.39999,90.910004,350.10001,91.57,350.89999,92.07C352.32001,92.93,353.98,93.169998,356.44,93.169998C358.60001,93.169998,362.02,93.07,363.38,92.970001C363.39999,92.529999,363.64,91.75,363.84000000000003,91.330002C361.78,91.550003,358.75999,91.709999,356.48,91.709999C354.25999,91.709999,352.56,91.57,351.22,90.730003C350.44,90.25,349.96001,89.849998,349.53999,89.650002L349.53999,81.949997ZM368.91999999999996,83.010002L373.67999,83.010002L373.67999,85.169998L368.91999999999996,85.169998L368.91999999999996,83.010002ZM375.22,83.010002L380.2,83.010002L380.2,85.169998L375.22,85.169998L375.22,83.010002ZM368.91999999999996,79.690002L373.67999,79.690002L373.67999,81.809998L368.91999999999996,81.809998L368.91999999999996,79.690002ZM375.22,79.690002L380.2,79.690002L380.2,81.809998L375.22,81.809998L375.22,79.690002ZM378.67999,75.029999C378.22,76.050003,377.39999,77.449997,376.67999,78.410004L371.82001,78.410004L372.64,78.010002C372.24001,77.169998,371.3,75.93,370.48,75.029999L369.22,75.630005C369.94,76.470001,370.72,77.610001,371.15999999999997,78.410004L367.46001,78.410004L367.46001,86.449997L373.67999,86.449997L373.67999,88.349998L365.58000000000004,88.349998L365.58000000000004,89.75L373.67999,89.75L373.67999,93.330002L375.22,93.330002L375.22,89.75L383.48,89.75L383.48,88.349998L375.22,88.349998L375.22,86.449997L381.72,86.449997L381.72,78.410004L378.36,78.410004C379,77.57,379.7,76.529999,380.3,75.57L378.67999,75.029999ZM389.7,77.110001L399.22,77.110001L399.22,79.830002L389.7,79.830002L389.7,77.110001ZM388.2,75.770004L388.2,81.150002L400.8,81.150002L400.8,75.770004L388.2,75.770004ZM385.75999,82.949997L385.75999,84.330002L389.88,84.330002C389.48,85.57,388.98,86.949997,388.56,87.93L399.03999,87.93C398.65999999999997,90.25,398.25999,91.370003,397.75999,91.769997C397.52,91.93,397.28,91.949997,396.8,91.949997C396.24001,91.949997,394.78,91.93,393.38,91.790001C393.65999999999997,92.209999,393.86,92.790001,393.89999,93.230003C395.28,93.309998,396.60001,93.330002,397.28,93.290001C398.06,93.269997,398.53999,93.150002,399.02,92.75C399.75999,92.110001,400.25999,90.610001,400.74001,87.25C400.78,87.029999,400.82001,86.57,400.82001,86.57L390.8,86.57L391.53999,84.330002L403.15999999999997,84.330002L403.15999999999997,82.949997L385.75999,82.949997ZM407.64,93.889999C409.74001,93.150002,411.10001,91.510002,411.10001,89.349998C411.10001,87.949997,410.5,87.050003,409.39999,87.050003C408.58000000000004,87.050003,407.88,87.550003,407.88,88.489998C407.88,89.43,408.56,89.910004,409.38,89.910004L409.72,89.870003C409.62,91.25,408.74001,92.190002,407.2,92.830002L407.64,93.889999ZM165.62,105.370003L165.62,106.870003L179.44,106.870003L179.44,120.17C179.44,120.59,179.299999,120.71,178.86,120.75C178.38,120.75,176.74,120.77,175.139999,120.69C175.38,121.13,175.66,121.87,175.759999,122.31C177.74,122.31,179.139999,122.31,179.94,122.05C180.719999,121.79,181,121.27,181,120.19L181,106.870003L183.459999,106.870003L183.459999,105.370003L165.62,105.370003ZM169.1199999,111.25L174.3800001,111.25L174.3800001,115.85L169.1199999,115.85L169.1199999,111.25ZM167.6599998,109.809998L167.6599998,118.89L169.1199999,118.89L169.1199999,117.29L175.86,117.29L175.86,109.809998L167.6599998,109.809998ZM187.9,103.949997L187.9,122.33L189.4,122.33L189.4,103.949997L187.9,103.949997ZM186.1,107.809998C185.959999,109.43,185.6,111.63,185.059999,112.95L186.24,113.37C186.780001,111.91,187.139999,109.589996,187.24,107.970001L186.1,107.809998ZM189.440001,107.629997C190.040001,108.830002,190.68,110.410004,190.92000000000002,111.37L192.040001,110.81C191.799999,109.870003,191.119999,108.330002,190.5,107.169998L189.440001,107.629997ZM200.599998,113.13L197.5,113.13C197.580002,112.27,197.599998,111.43,197.599998,110.610001L197.599998,108.550003L200.599998,108.550003L200.599998,113.13ZM196.099998,103.949997L196.099998,107.129997L192.18,107.129997L192.18,108.550003L196.099998,108.550003L196.099998,110.610001C196.099998,111.41,196.07999999999998,112.27,196,113.13L191.1,113.13L191.1,114.59L195.799999,114.59C195.279999,117.05,193.959999,119.51,190.440001,121.27C190.779999,121.55,191.299999,122.11,191.5,122.43C194.860001,120.57,196.380001,118.09,197.059998,115.55C198.220001,118.69,200.080002,121.17,202.900002,122.41C203.119999,121.97,203.619999,121.33,203.98,121.01C201.18,119.99,199.259998,117.55,198.18,114.59L203.799999,114.59L203.799999,113.13L202.080002,113.13L202.080002,107.129997L197.599998,107.129997L197.599998,103.949997L196.099998,103.949997ZM205.860001,105.550003C206.98,106.589996,208.34,108.07,208.959999,109.010002L210.16,108.110001C209.5,107.169998,208.119999,105.75,207,104.770004L205.860001,105.550003ZM209.82,111.09L205.459999,111.09L205.459999,112.49L208.380001,112.49L208.380001,118.75C207.459999,119.07,206.400002,119.91,205.34,120.93L206.279999,122.19C207.34,120.95,208.380001,119.89,209.119999,119.89C209.580002,119.89,210.200001,120.47,211.040001,120.97C212.439999,121.75,214.139999,121.97,216.5,121.97C218.400002,121.97,221.879997,121.85,223.32,121.75C223.34,121.33,223.580002,120.65,223.739998,120.27C221.799999,120.47,218.84,120.61,216.540001,120.61C214.380001,120.61,212.66,120.49,211.380001,119.75C210.68,119.37,210.220001,119.01,209.82,118.81L209.82,111.09ZM213.059998,110.190002L216.239998,110.190002L216.239998,112.75L213.059998,112.75L213.059998,110.190002ZM217.700001,110.190002L221.040001,110.190002L221.040001,112.75L217.700001,112.75L217.700001,110.190002ZM216.239998,103.970001L216.239998,106.029999L210.860001,106.029999L210.860001,107.330002L216.239998,107.330002L216.239998,108.989998L211.66,108.989998L211.66,113.95L215.580002,113.95C214.419998,115.65,212.459999,117.27,210.619999,118.05C210.939999,118.33,211.380001,118.83,211.599998,119.19C213.239998,118.33,215,116.79,216.239998,115.09L216.239998,119.77L217.700001,119.77L217.700001,115.13C219.380001,116.35,221.16,117.81,222.099998,118.85L223.059998,117.85C222,116.73,219.959999,115.17,218.18,113.95L222.48,113.95L222.48,108.989998L217.700001,108.989998L217.700001,107.330002L223.400002,107.330002L223.400002,106.029999L217.700001,106.029999L217.700001,103.970001L216.239998,103.970001ZM226.119999,105.190002C227.220001,106.190002,228.559998,107.650002,229.18,108.57L230.33999599999999,107.610001C229.68,106.730003,228.299999,105.349998,227.200001,104.370003L226.119999,105.190002ZM238.900002,104.370003L238.900002,107.589996L235.599998,107.589996L235.599998,104.370003L234.120003,104.370003L234.120003,107.589996L231.279999,107.589996L231.279999,109.029999L234.120003,109.029999L234.120003,111.37L234.08000199999998,112.61L231.16000400000001,112.61L231.16000400000001,114.05L233.91999800000002,114.05C233.620003,115.57,232.95999899999998,117.05,231.45999899999998,118.19C231.779999,118.41,232.33999599999999,118.97,232.54000100000002,119.27C234.32,117.91,235.099998,115.97,235.400002,114.05L238.900002,114.05L238.900002,119.15L240.400002,119.15L240.400002,114.05L243.379997,114.05L243.379997,112.61L240.400002,112.61L240.400002,109.029999L242.979996,109.029999L242.979996,107.589996L240.400002,107.589996L240.400002,104.370003L238.900002,104.370003ZM235.599998,109.029999L238.900002,109.029999L238.900002,112.61L235.559998,112.61L235.599998,111.39L235.599998,109.029999ZM229.739998,111.19L225.5,111.19L225.5,112.59L228.259998,112.59L228.259998,118.33C227.360001,118.67,226.32,119.55,225.259998,120.71L226.259998,122.07C227.299999,120.71,228.279999,119.53,228.95999899999998,119.53C229.400002,119.53,230.04000100000002,120.19,230.879997,120.71C232.260002,121.59,233.940002,121.81,236.41999800000002,121.81C238.32,121.81,241.91999800000002,121.69,243.33999599999999,121.61C243.360001,121.17,243.599998,120.45,243.779999,120.05C241.83999599999999,120.27,238.82,120.43,236.45999899999998,120.43C234.199997,120.43,232.519997,120.29,231.199997,119.47C230.54000100000002,119.05,230.120003,118.67,229.739998,118.45L229.739998,111.19ZM253.199997,105.150002L253.199997,106.589996L263.040001,106.589996L263.040001,105.150002L253.199997,105.150002ZM249.83999599999999,103.93C248.82,105.389999,246.879997,107.169998,245.199997,108.309998C245.45999899999998,108.589996,245.879997,109.169998,246.08000199999998,109.510002C247.879997,108.230003,249.940002,106.270004,251.279999,104.529999L249.83999599999999,103.93ZM252.32,110.669998L252.32,112.11L259.059998,112.11L259.059998,120.41C259.059998,120.73,258.919998,120.83,258.540001,120.85C258.18,120.87,256.82,120.87,255.400002,120.81C255.620003,121.25,255.83999599999999,121.87,255.900002,122.29C257.860001,122.29,259,122.29,259.68,122.07C260.339996,121.81,260.580002,121.35,260.580002,120.43L260.580002,112.11L263.599998,112.11L263.599998,110.669998L252.32,110.669998ZM250.639999,108.230003C249.260002,110.510002,247.059998,112.83,245,114.31C245.300003,114.61,245.83999599999999,115.27,246.059998,115.57C246.800003,114.97,247.58000199999998,114.25,248.33999599999999,113.47L248.33999599999999,122.41L249.82,122.41L249.82,111.83C250.66000400000001,110.83,251.41999800000002,109.790001,252.059998,108.75L250.639999,108.230003ZM265.6,105.43L265.6,106.93L273.32,106.93L273.32,122.33L274.9,122.33L274.9,111.73C277.2,112.97,279.88,114.63,281.28,115.75L282.34000000000003,114.39C280.74,113.17,277.56,111.37,275.18,110.209999L274.9,110.529999L274.9,106.93L283.42,106.93L283.42,105.43L265.6,105.43ZM285.38,112.13L285.38,113.77L303.7,113.77L303.7,112.13L285.38,112.13ZM313.7,109.830002L313.7,122.33L315.25999,122.33L315.25999,109.830002L313.7,109.830002ZM314.62,103.93C312.62,107.270004,308.98,110.190002,305.2,111.83C305.62,112.19,306.06,112.77,306.32001,113.21C309.39999,111.71,312.36,109.389999,314.52,106.629997C317.17999,109.75,319.82001,111.67,322.78,113.23C323.02,112.75,323.48,112.19,323.88,111.87C320.8,110.370003,317.96001,108.489998,315.39999,105.43L315.96001,104.550003L314.62,103.93ZM332.10001,105.209999L332.10001,106.629997L342.17999,106.629997L342.17999,105.209999L332.10001,105.209999ZM325.86,105.989998C327.03999,106.809998,328.62,107.970001,329.39999,108.669998L330.44,107.589996C329.62,106.889999,328,105.790001,326.86,105.029999L325.86,105.989998ZM332,118.37C332.60001,118.11,333.48,118.03,341,117.37L341.78,118.89L343.12,118.19C342.34000000000003,116.67,340.74001,114.05,339.5,112.11L338.25999,112.69C338.89999,113.71,339.62,114.93,340.28,116.07L333.67999,116.57C334.74001,115.03,335.8,113.07,336.62,111.19L343.60001,111.19L343.60001,109.770004L330.78,109.770004L330.78,111.19L334.82001,111.19C334.06,113.21,332.94,115.15,332.58000000000004,115.69C332.15999999999997,116.33,331.84000000000003,116.79,331.48,116.85C331.65999999999997,117.27,331.91999999999996,118.05,332,118.37ZM329.53999,110.95L325.34000000000003,110.95L325.34000000000003,112.35L328.08000000000004,112.35L328.08000000000004,118.73C327.22,119.11,326.22,119.99,325.24001,121.05L326.3,122.43C327.28,121.11,328.28,119.91,328.94,119.91C329.39999,119.91,330.10001,120.57,330.89999,121.07C332.32001,121.93,333.98,122.17,336.44,122.17C338.60001,122.17,342.02,122.07,343.38,121.97C343.39999,121.53,343.64,120.75,343.84000000000003,120.33C341.78,120.55,338.75999,120.71,336.48,120.71C334.25999,120.71,332.56,120.57,331.22,119.73C330.44,119.25,329.96001,118.85,329.53999,118.65L329.53999,110.95ZM348.91999999999996,112.01L353.67999,112.01L353.67999,114.17L348.91999999999996,114.17L348.91999999999996,112.01ZM355.22,112.01L360.2,112.01L360.2,114.17L355.22,114.17L355.22,112.01ZM348.91999999999996,108.690002L353.67999,108.690002L353.67999,110.81L348.91999999999996,110.81L348.91999999999996,108.690002ZM355.22,108.690002L360.2,108.690002L360.2,110.81L355.22,110.81L355.22,108.690002ZM358.67999,104.029999C358.22,105.050003,357.39999,106.449997,356.67999,107.410004L351.82001,107.410004L352.64,107.010002C352.24001,106.169998,351.3,104.93,350.48,104.029999L349.22,104.630005C349.94,105.470001,350.72,106.610001,351.15999999999997,107.410004L347.46001,107.410004L347.46001,115.45L353.67999,115.45L353.67999,117.35L345.58000000000004,117.35L345.58000000000004,118.75L353.67999,118.75L353.67999,122.33L355.22,122.33L355.22,118.75L363.48,118.75L363.48,117.35L355.22,117.35L355.22,115.45L361.72,115.45L361.72,107.410004L358.36,107.410004C359,106.57,359.7,105.529999,360.3,104.57L358.67999,104.029999ZM369.7,106.110001L379.22,106.110001L379.22,108.830002L369.7,108.830002L369.7,106.110001ZM368.2,104.770004L368.2,110.150002L380.8,110.150002L380.8,104.770004L368.2,104.770004ZM365.75999,111.95L365.75999,113.33L369.88,113.33C369.48,114.57,368.98,115.95,368.56,116.93L379.03999,116.93C378.65999999999997,119.25,378.25999,120.37,377.75999,120.77C377.52,120.93,377.28,120.95,376.8,120.95C376.24001,120.95,374.78,120.93,373.38,120.79C373.65999999999997,121.21,373.86,121.79,373.89999,122.23C375.28,122.31,376.60001,122.33,377.28,122.29C378.06,122.27,378.53999,122.15,379.02,121.75C379.75999,121.11,380.25999,119.61,380.74001,116.25C380.78,116.03,380.82001,115.57,380.82001,115.57L370.8,115.57L371.53999,113.33L383.15999999999997,113.33L383.15999999999997,111.95L365.75999,111.95ZM395.53999,112.29C396.64,113.75,398,115.75,398.60001,116.97L399.88,116.17C399.22,114.99,397.84000000000003,113.05,396.7,111.63L395.53999,112.29ZM389.3,103.910004C389.14,104.870003,388.8,106.190002,388.48,107.169998L386.24001,107.169998L386.24001,121.83L387.62,121.83L387.62,120.25L393.2,120.25L393.2,107.169998L389.86,107.169998C390.2,106.309998,390.58000000000004,105.190002,390.91999999999996,104.190002L389.3,103.910004ZM387.62,108.510002L391.82001,108.510002L391.82001,112.73L387.62,112.73L387.62,108.510002ZM387.62,118.89L387.62,114.05L391.82001,114.05L391.82001,118.89L387.62,118.89ZM396.46001,103.870003C395.82001,106.629997,394.74001,109.389999,393.36,111.17C393.72,111.37,394.34000000000003,111.79,394.62,112.03C395.3,111.07,395.94,109.849998,396.5,108.489998L401.62,108.489998C401.38,116.51,401.06,119.59,400.41999999999996,120.27C400.17999,120.55,399.96001,120.61,399.56,120.61C399.10001,120.61,397.89999,120.59,396.58000000000004,120.49C396.86,120.87,397.03999,121.51,397.08000000000004,121.93C398.2,121.99,399.38,122.03,400.06,121.97C400.78,121.89,401.22,121.73,401.67999,121.13C402.48,120.15,402.75999,117.05,403.06,107.870003C403.08000000000004,107.669998,403.08000000000004,107.110001,403.08000000000004,107.110001L397.03999,107.110001C397.36,106.169998,397.65999999999997,105.169998,397.89999,104.190002L396.46001,103.870003ZM408.46001,104.010002L408.46001,107.870003L405.52,107.870003L405.52,109.270004L408.46001,109.270004L408.46001,113.73L405.25999,114.45L405.7,115.91L408.46001,115.21L408.46001,120.51C408.46001,120.79,408.36,120.87,408.08000000000004,120.89C407.82001,120.89,406.94,120.89,406,120.87C406.2,121.25,406.41999999999996,121.87,406.46001,122.25C407.84000000000003,122.25,408.67999,122.23,409.2,121.97C409.72,121.75,409.94,121.35,409.94,120.49L409.94,114.83L412.72,114.09L412.53999,112.71L409.94,113.37L409.94,109.270004L412.56,109.270004L412.56,107.870003L409.94,107.870003L409.94,104.010002L408.46001,104.010002ZM412.89999,105.830002L412.89999,107.230003L421.14001,107.230003L421.14001,112.19L413.38,112.19L413.38,113.69L421.14001,113.69L421.14001,119.41L412.75999,119.41L412.75999,120.83L421.14001,120.83L421.14001,122.29L422.57999,122.29L422.57999,105.830002L412.89999,105.830002ZM439.45999,103.949997L439.45999,106.830002L435.88,106.830002L435.88,103.949997L434.44,103.949997L434.44,106.830002L431.66,106.830002L431.66,108.190002L434.44,108.190002L434.44,110.81L435.88,110.81L435.88,108.190002L439.45999,108.190002L439.45999,110.81L440.89999,110.81L440.89999,108.190002L443.54001,108.190002L443.54001,106.830002L440.89999,106.830002L440.89999,103.949997L439.45999,103.949997ZM433.92001,117.13L436.94,117.13L436.94,119.95L433.92001,119.95L433.92001,117.13ZM433.92001,115.81L433.92001,113.05L436.94,113.05L436.94,115.81L433.92001,115.81ZM441.38,117.13L441.38,119.95L438.29999,119.95L438.29999,117.13L441.38,117.13ZM441.38,115.81L438.29999,115.81L438.29999,113.05L441.38,113.05L441.38,115.81ZM432.54001,111.71L432.54001,122.31L433.92001,122.31L433.92001,121.29L441.38,121.29L441.38,122.21L442.82001,122.21L442.82001,111.71L432.54001,111.71ZM427.76001,103.970001L427.76001,107.989998L425.34,107.989998L425.34,109.389999L427.76001,109.389999L427.76001,113.79C426.73999,114.11,425.79999,114.37,425.06,114.57L425.44,116.05L427.76001,115.29L427.76001,120.47C427.76001,120.75,427.66,120.83,427.42001,120.83C427.17999,120.85,426.39999,120.85,425.51999,120.83C425.72,121.23,425.89999,121.85,425.95999,122.21C427.22,122.23,428,122.17,428.48001,121.93C428.98001,121.71,429.16,121.29,429.16,120.47L429.16,114.83L431.35999,114.11L431.16,112.73L429.16,113.35L429.16,109.389999L431.29999,109.389999L431.29999,107.989998L429.16,107.989998L429.16,103.970001L427.76001,103.970001Z" fill="#FFFFFF" fill-opacity="1"/></g></svg>