<svg xmlns="http://www.w3.org/2000/svg" xmlns:xlink="http://www.w3.org/1999/xlink" fill="none" version="1.1" width="40.96" height="40.96" viewBox="0 0 40.959999084472656 40.959999084472656"><defs><clipPath id="master_svg0_2_1403"><rect x="0" y="0" width="40.959999084472656" height="40.959999084472656" rx="0"/></clipPath></defs><g clip-path="url(#master_svg0_2_1403)"><path d="M5.760498046875,20.480219726562503L15.515812846875,10.7249071265625C16.235967046875,10.0048290165625,17.212684046874998,9.6002197265625,18.231128046875,9.6002197265625L31.360496046875,9.6002197265625C33.481331046875,9.6002197265625,35.200499046874995,11.3194389265625,35.200499046874995,13.4402196265625L35.200499046874995,27.5202197265625C35.200499046874995,29.6410527265625,33.481331046875,31.3602197265625,31.360496046875,31.3602197265625L18.231128046875,31.3602197265625C17.212684046874998,31.3602197265625,16.235967046875,30.9557397265625,15.515812846875,30.2354827265625L5.760498046875,20.480219726562503ZM18.231128046875,29.6962207265625L31.360496046875,29.6962207265625C32.562162046875,29.6962207265625,33.536499046875,28.7220117265625,33.536499046875,27.5202197265625L33.536499046875,13.4402196265625C33.536499046875,12.2384276265625,32.562162046875,11.2642069265625,31.360496046875,11.2642069265625L18.231128046875,11.2642069265625C17.653938046875,11.2642069265625,17.100504046875002,11.4935062265625,16.692377046875002,11.9015445265625L8.113778146875,20.480219726562503L16.692377046875002,29.0589067265625C17.100504046875002,29.4669727265625,17.653938046875,29.6962207265625,18.231128046875,29.6962207265625ZM19.474930046875002,15.9547538265625C19.100018046875,16.329679026562502,19.100018046875,16.9374876265625,19.474930046875002,17.3124118265625L22.642801046875,20.480295726562503L19.475059046875,23.6480927265625C19.100018046875,24.023004726562498,19.100018046875,24.6307477265625,19.475059046875,25.0056587265625C19.849842046875,25.3805717265625,20.457713046875,25.3805717265625,20.832497046874998,25.0056587265625L24.000498046875,21.8378777265625L27.168369046875,25.0056587265625C27.543156046875,25.3805717265625,28.151024046875,25.3805717265625,28.525938046875,25.0056587265625C28.900848046875,24.6308747265625,28.900848046875,24.023004726562498,28.525938046875,23.6480927265625L25.357939046875,20.480219726562503L28.525938046875,17.3124118265625C28.900848046875,16.9374876265625,28.900848046875,16.3295893265625,28.525938046875,15.9547538265625C28.151024046875,15.579829226562499,27.543156046875,15.579829226562499,27.168369046875,15.9547538265625L24.000498046875,19.1226387265625L20.832497046874998,15.9547538265625C20.457713046875,15.579829226562499,19.849842046875,15.579829226562499,19.474930046875002,15.9547538265625Z" fill-rule="evenodd" fill="#000000" fill-opacity="1"/></g></svg>