<svg xmlns="http://www.w3.org/2000/svg" xmlns:xlink="http://www.w3.org/1999/xlink" fill="none" version="1.1" width="38" height="38" viewBox="0 0 38 38"><path d="M15.496757,7.123545399999999L15.4375,7.125L10.6875,7.125C10.031673399999999,7.125,9.5,6.5933384,9.5,5.9375C9.5,5.30153435,9.9999375,4.782335654,10.6282434,4.7514546812L10.6875,4.749999993640813L15.4375,4.749999993640813C16.093327000000002,4.749999993640813,16.625,5.28166157,16.625,5.9375C16.625,6.5734656000000005,16.125063,7.0926642,15.496757,7.123545399999999ZM8.371756600000001,10.686045199999999L8.3125,10.6875L5.9375,10.6875C5.3015342,10.6875,4.7823358,11.1874375,4.751454600000001,11.815743399999999L4.75,11.875L4.75,29.6875C4.75,30.323465,5.2499285,30.84267,5.8782437000000005,30.873547L5.9375,30.875L32.0625,30.875C32.698406,30.875,33.21764,30.375063,33.248515999999995,29.746756L33.25,29.6875L33.25,11.875C33.25,11.239034199999999,32.750063,10.7198296,32.121874,10.688954800000001L32.0625,10.6875L17.8125,10.6875C17.156672999999998,10.6875,16.625,10.155826600000001,16.625,9.5C16.625,8.864034199999999,17.124937,8.3448298,17.753242999999998,8.3139546L17.8125,8.3125L32.0625,8.3125C33.999609,8.3125,35.575718,9.8587732,35.623814,11.7844529L35.625,11.875L35.625,29.6875C35.625,31.624758,34.078579000000005,33.200835999999995,32.153048,33.248873L32.0625,33.25L5.9375,33.25C4.0002542000000005,33.25,2.424165562,31.703728,2.3761282414,29.778048L2.37500011640077,29.6875L2.37500011640077,11.875C2.37500011640077,9.937742199999999,3.9212854,8.3616624,5.8469529,8.3136282L5.9375,8.3125L8.3125,8.3125C8.968326600000001,8.3125,9.5,8.844173399999999,9.5,9.5C9.5,10.135965800000001,9.0000625,10.6551704,8.371756600000001,10.686045199999999ZM29.09375,16.625C28.109997,16.625,27.3125,15.827505,27.3125,14.84375C27.3125,13.8599958,28.109997,13.0625,29.09375,13.0625C30.077503,13.0625,30.875,13.8599958,30.875,14.84375C30.875,15.827505,30.077503,16.625,29.09375,16.625ZM19,27.90625C15.064981,27.90625,11.875,24.716269,11.875,20.78125C11.875,16.846231,15.064981,13.65625,19,13.65625C22.935019,13.65625,26.125,16.846231,26.125,20.78125C26.125,24.716269,22.935019,27.90625,19,27.90625ZM19,25.53125C21.623365,25.53125,23.75,23.404615,23.75,20.78125C23.75,18.157884,21.623365,16.03125,19,16.03125C16.376634,16.03125,14.25,18.157884,14.25,20.78125C14.25,23.404615,16.376634,25.53125,19,25.53125Z" fill="#1D2129" fill-opacity="1"/></svg>