<svg xmlns="http://www.w3.org/2000/svg" xmlns:xlink="http://www.w3.org/1999/xlink" fill="none" version="1.1" width="36" height="36" viewBox="0 0 36 36"><defs><clipPath id="master_svg0_105_1227"><rect x="0" y="0" width="36" height="36" rx="0"/></clipPath></defs><g clip-path="url(#master_svg0_105_1227)"><g><path d="M15.023783,17.569601L5.47796047,27.115423C4.81406909,27.779314,4.84572732,28.887354,5.54867113,29.590298C6.2516149,30.293242,7.3596535,30.3249,8.0235448,29.661007L17.569366000000002,20.115185L27.115253,29.661072C27.779142,30.324961,28.887182,30.293306,29.590126,29.590363C30.29307,28.887419,30.324726,27.779377,29.660837,27.115488L20.11495,17.569601L29.661011,8.0235405C30.3249,7.359651599999999,30.293245,6.2516117,29.590302,5.54866791C28.887358,4.84572411,27.779316,4.81406784,27.115427,5.47795677L17.569366000000002,15.024017L8.023370700000001,5.4780215C7.3594792,4.81413013,6.2514406000000005,4.84578836,5.54849684,5.54873216C4.84555304,6.251676,4.81389475,7.3597145,5.47778618,8.0236058L15.023783,17.569601Z" fill-rule="evenodd" fill="#FF6100" fill-opacity="1"/></g></g></svg>