<svg xmlns="http://www.w3.org/2000/svg" xmlns:xlink="http://www.w3.org/1999/xlink" fill="none" version="1.1" width="56" height="56" viewBox="0 0 56 56"><defs><clipPath id="master_svg0_84_452034"><rect x="0" y="0" width="56" height="56" rx="0"/></clipPath></defs><g clip-path="url(#master_svg0_84_452034)"><ellipse cx="28" cy="28" rx="28" ry="28" fill="#FFFFFF" fill-opacity="1"/><path d="M28.57599115,28.83538818359375C27.85636735,28.83538818359375,27.26953125,29.25510722359375,27.26953125,29.77666968359375L27.26953125,33.32267858359375C27.26953125,33.84115458359375,27.85208392,34.26396038359375,28.57599115,34.26396038359375C29.29561495,34.26396038359375,29.88245105,33.84424018359375,29.88245105,33.32267858359375L29.88245105,29.77358359359375C29.88245105,29.25510722359375,29.29561495,28.83538818359375,28.57599115,28.83538818359375L28.57599115,28.83538818359375Z" fill="#1D2129" fill-opacity="1"/><g><path d="M34.61237737890625,14.70013427734375L21.39379737890625,14.70013427734375C20.01778027890625,14.70013427734375,18.89996337890625,15.791306177343749,18.89996337890625,17.13452287734375L18.89996337890625,20.93364527734375C18.89996337890625,23.59548857734375,20.27283157890625,26.091352277343752,22.51791187890625,27.57288627734375L22.51791187890625,38.86574727734375C22.51791187890625,40.20896327734375,23.63572927890625,41.30013427734375,25.01174547890625,41.30013427734375L30.98813037890625,41.30013427734375C32.36414737890625,41.30013427734375,33.48196537890625,40.20896327734375,33.48196537890625,38.86574727734375L33.48196537890625,27.57288627734375C35.727045378906254,26.091352277343752,37.099912378906254,23.59548857734375,37.099912378906254,20.93364527734375L37.099912378906254,17.13759687734375C37.106210378906255,15.79437967734375,35.985244378906245,14.70013427734375,34.61237737890625,14.70013427734375ZM21.67808437890625,16.87103267734375L34.87018337890625,16.87103267734375C35.18764637890625,16.87103267734375,35.44539237890625,17.11833427734375,35.44539237890625,17.42293737734375L35.44539237890625,18.49960417734375L21.10601807890625,18.49960417734375L21.10601807890625,17.42293737734375C21.10601807890625,17.11833427734375,21.36376217890625,16.87103267734375,21.67808437890625,16.87103267734375ZM31.83462237890625,27.15346527734375C31.83462237890625,26.817753277343748,32.01688937890625,26.506906277343752,32.31228737890625,26.33594127734375C34.24494337890625,25.22933227734375,35.442249378906254,23.17153457734375,35.44539237890625,20.96763987734375L35.44539237890625,20.12835697734375L21.10601807890625,20.12835697734375L21.10601807890625,20.96763987734375C21.10601807890625,23.17464347734375,22.30332277890625,25.22933227734375,24.235980078906252,26.33594127734375C24.53137777890625,26.503799277343752,24.71364497890625,26.81464427734375,24.71364497890625,27.15346527734375L24.71678737890625,39.10236527734375C24.71678737890625,39.416321277343755,24.97447487890625,39.67121527734375,25.29187057890625,39.67121527734375L31.25639737890625,39.67121527734375C31.57379137890625,39.67121527734375,31.83148037890625,39.416321277343755,31.83148037890625,39.10236527734375L31.83148037890625,28.04248227734375L31.83462237890625,27.15346527734375Z" fill-rule="evenodd" fill="#1D2129" fill-opacity="1"/></g></g></svg>